<svg width="10" height="10" viewBox="0 0 10 10" fill="none" xmlns="http://www.w3.org/2000/svg">
<path d="M7.40755 8.40105C8.3654 7.7218 9.02375 6.6481 9.146 5.41665H8V4.58333H9.98435L9.98875 4.70004H9.9907C9.9966 4.79929 10 4.89929 10 5C10 7.7614 7.7614 10 5 10C2.89854 10 1.10022 8.7034 0.360515 6.8667H1.27425C1.58211 7.47995 2.03713 8.0063 2.59261 8.4004L5 4.25L7.40755 8.40105ZM3.33968 8.82195C3.84843 9.0433 4.40974 9.16665 5 9.16665C5.5902 9.16665 6.15155 9.04355 6.6603 8.82225L5 5.91665L3.33968 8.82195ZM4.99756 2.16667C5.56285 2.1662 6.11545 2.33497 6.58415 2.65104C7.0528 2.9671 7.41635 3.41601 7.62775 3.94026C7.8392 4.46453 7.88895 5.04015 7.77065 5.59295C7.6524 6.1457 7.3713 6.6505 6.96385 7.0423L6.5 6.33335C6.7931 6.05145 6.90825 5.82425 6.99335 5.4266C7.07845 5.0289 7.04275 4.61466 6.89065 4.23746C6.7385 3.8603 6.477 3.53712 6.1398 3.30974C5.8026 3.08235 5.4049 2.9611 4.99822 2.96144C4.59154 2.96179 4.19421 3.08392 3.85741 3.31185C3.52063 3.5398 3.25971 3.86332 3.10823 4.24072C2.95676 4.61815 2.92156 5.0323 3.00731 5.42985C3.09308 5.8274 3.20641 6.0519 3.5 6.33335L3.03939 7.0454C2.63132 6.65425 2.3495 6.1499 2.2303 5.59735C2.11858 5.0793 2.15456 4.54096 2.333 4.04345L2.3706 3.94466C2.58116 3.42006 2.9438 2.97032 3.41195 2.65349C3.88007 2.33669 4.43231 2.16715 4.99756 2.16667ZM4.33333 0.886555C2.4836 1.18403 1.04128 2.69896 0.854165 4.58333H2V5.41665H0.015625L0.0125325 5.33335H0.0113932C0.00414019 5.22315 0 5.112 0 5C0 2.46463 1.8871 0.370211 4.33333 0.0442709V0.886555ZM5.66665 0.0442709C7.48845 0.28701 9.0001 1.51051 9.65315 3.16667H8.7425C8.1579 1.97555 7.0216 1.10445 5.66665 0.886555V0.0442709ZM5.41665 2H4.58333V0H5.41665V2Z" fill="#011329"/>
</svg>
