<svg width="91" height="90" viewBox="0 0 91 90" fill="none" xmlns="http://www.w3.org/2000/svg">
<path d="M73.875 11.25H65.4375V8.4375C65.4375 7.69158 65.1412 6.97621 64.6137 6.44876C64.0863 5.92132 63.3709 5.625 62.625 5.625C61.8791 5.625 61.1637 5.92132 60.6363 6.44876C60.1088 6.97621 59.8125 7.69158 59.8125 8.4375V11.25H31.6875V8.4375C31.6875 7.69158 31.3912 6.97621 30.8637 6.44876C30.3363 5.92132 29.6209 5.625 28.875 5.625C28.1291 5.625 27.4137 5.92132 26.8863 6.44876C26.3588 6.97621 26.0625 7.69158 26.0625 8.4375V11.25H17.625C16.1332 11.25 14.7024 11.8426 13.6475 12.8975C12.5926 13.9524 12 15.3832 12 16.875V73.125C12 74.6168 12.5926 76.0476 13.6475 77.1025C14.7024 78.1574 16.1332 78.75 17.625 78.75H73.875C75.3668 78.75 76.7976 78.1574 77.8525 77.1025C78.9074 76.0476 79.5 74.6168 79.5 73.125V16.875C79.5 15.3832 78.9074 13.9524 77.8525 12.8975C76.7976 11.8426 75.3668 11.25 73.875 11.25ZM26.0625 16.875V19.6875C26.0625 20.4334 26.3588 21.1488 26.8863 21.6762C27.4137 22.2037 28.1291 22.5 28.875 22.5C29.6209 22.5 30.3363 22.2037 30.8637 21.6762C31.3912 21.1488 31.6875 20.4334 31.6875 19.6875V16.875H59.8125V19.6875C59.8125 20.4334 60.1088 21.1488 60.6363 21.6762C61.1637 22.2037 61.8791 22.5 62.625 22.5C63.3709 22.5 64.0863 22.2037 64.6137 21.6762C65.1412 21.1488 65.4375 20.4334 65.4375 19.6875V16.875H73.875V28.125H17.625V16.875H26.0625ZM73.875 73.125H17.625V33.75H73.875V73.125ZM49.9688 46.4062C49.9688 47.2406 49.7213 48.0563 49.2578 48.7501C48.7942 49.4438 48.1353 49.9846 47.3644 50.3039C46.5936 50.6232 45.7453 50.7067 44.927 50.5439C44.1086 50.3812 43.3569 49.9794 42.7669 49.3894C42.1769 48.7994 41.7751 48.0476 41.6123 47.2293C41.4495 46.4109 41.5331 45.5627 41.8524 44.7918C42.1717 44.0209 42.7124 43.362 43.4062 42.8985C44.1 42.4349 44.9156 42.1875 45.75 42.1875C46.8689 42.1875 47.9419 42.632 48.7331 43.4231C49.5243 44.2143 49.9688 45.2874 49.9688 46.4062ZM65.4375 46.4062C65.4375 47.2406 65.1901 48.0563 64.7265 48.7501C64.2629 49.4438 63.6041 49.9846 62.8332 50.3039C62.0623 50.6232 61.2141 50.7067 60.3957 50.5439C59.5774 50.3812 58.8256 49.9794 58.2356 49.3894C57.6456 48.7994 57.2438 48.0476 57.0811 47.2293C56.9183 46.4109 57.0018 45.5627 57.3211 44.7918C57.6404 44.0209 58.1812 43.362 58.8749 42.8985C59.5687 42.4349 60.3844 42.1875 61.2188 42.1875C62.3376 42.1875 63.4107 42.632 64.2019 43.4231C64.993 44.2143 65.4375 45.2874 65.4375 46.4062ZM34.5 60.4688C34.5 61.3031 34.2526 62.1188 33.789 62.8126C33.3255 63.5063 32.6666 64.0471 31.8957 64.3664C31.1248 64.6857 30.2766 64.7692 29.4582 64.6064C28.6399 64.4437 27.8881 64.0419 27.2981 63.4519C26.7081 62.8619 26.3063 62.1101 26.1436 61.2918C25.9808 60.4734 26.0643 59.6252 26.3836 58.8543C26.7029 58.0834 27.2437 57.4246 27.9374 56.961C28.6312 56.4974 29.4469 56.25 30.2812 56.25C31.4001 56.25 32.4732 56.6945 33.2644 57.4856C34.0555 58.2768 34.5 59.3499 34.5 60.4688ZM49.9688 60.4688C49.9688 61.3031 49.7213 62.1188 49.2578 62.8126C48.7942 63.5063 48.1353 64.0471 47.3644 64.3664C46.5936 64.6857 45.7453 64.7692 44.927 64.6064C44.1086 64.4437 43.3569 64.0419 42.7669 63.4519C42.1769 62.8619 41.7751 62.1101 41.6123 61.2918C41.4495 60.4734 41.5331 59.6252 41.8524 58.8543C42.1717 58.0834 42.7124 57.4246 43.4062 56.961C44.1 56.4974 44.9156 56.25 45.75 56.25C46.8689 56.25 47.9419 56.6945 48.7331 57.4856C49.5243 58.2768 49.9688 59.3499 49.9688 60.4688ZM65.4375 60.4688C65.4375 61.3031 65.1901 62.1188 64.7265 62.8126C64.2629 63.5063 63.6041 64.0471 62.8332 64.3664C62.0623 64.6857 61.2141 64.7692 60.3957 64.6064C59.5774 64.4437 58.8256 64.0419 58.2356 63.4519C57.6456 62.8619 57.2438 62.1101 57.0811 61.2918C56.9183 60.4734 57.0018 59.6252 57.3211 58.8543C57.6404 58.0834 58.1812 57.4246 58.8749 56.961C59.5687 56.4974 60.3844 56.25 61.2188 56.25C62.3376 56.25 63.4107 56.6945 64.2019 57.4856C64.993 58.2768 65.4375 59.3499 65.4375 60.4688Z" fill="white" fill-opacity="0.5"/>
</svg>
