<svg width="16" height="15" viewBox="0 0 16 15" fill="none" xmlns="http://www.w3.org/2000/svg">
<path d="M3.86548 1.42008C6.48737 -0.560008 10.302 -0.370637 12.8616 1.59195C12.9625 1.67182 12.9629 1.67172 13.0657 1.75309C13.1188 1.79423 13.1721 1.8357 13.2268 1.87809C13.6225 2.20297 13.9329 2.59617 14.2444 3.00016C14.2858 3.05183 14.3268 3.10412 14.3694 3.15738C15.6012 4.78654 15.9114 6.81949 15.677 8.80778C15.6221 9.1464 15.5327 9.46472 15.4221 9.78922C15.3971 9.86619 15.3727 9.94337 15.3469 10.0226C15.0169 10.9528 14.5494 11.7505 13.8977 12.4904C13.8434 12.5618 13.7887 12.6336 13.7327 12.7072C13.4482 13.0185 13.1211 13.2715 12.7883 13.5295C12.7083 13.5928 12.7081 13.5927 12.6262 13.6574C11.5787 14.4412 10.3477 14.8451 9.07544 14.9757C9.0758 13.3581 9.08228 9.84844 9.08228 8.3732H10.634C10.7508 7.72179 10.839 7.08045 10.8919 6.42106H9.12037C9.1332 6.15052 9.10787 5.88772 9.12037 5.62516C9.12415 5.5402 9.12741 5.45767 9.13111 5.37516C9.13447 5.3082 9.13849 5.2429 9.14185 5.17789C9.1565 4.86737 9.19687 4.71589 9.38794 4.46305C9.62773 4.27799 9.80046 4.25359 10.1018 4.23942C10.3104 4.23534 10.3109 4.23622 10.9788 4.215V2.51774C10.0582 2.33639 8.85224 2.22071 8.0315 2.73746C7.9788 2.77799 7.92737 2.81726 7.87623 2.8566C7.79394 2.91967 7.71391 2.98095 7.63404 3.04215C7.13304 3.67639 6.96572 4.21436 6.97681 5.01871C6.98051 5.12389 6.98394 5.22616 6.98755 5.32828C6.99134 5.53526 6.99522 5.7424 6.99927 5.94938C7.00444 6.10967 7.00892 6.26551 7.01392 6.42106H5.29126V8.3732H6.92798C6.92798 9.88552 6.9399 13.3688 6.94068 14.9552C6.6161 14.8998 6.30864 14.8134 5.99634 14.7072C5.9192 14.6821 5.84154 14.6569 5.76197 14.631C4.83141 14.3012 4.03348 13.8341 3.29322 13.1828C3.22179 13.1285 3.15007 13.0747 3.07642 13.0187C2.76473 12.7343 2.51157 12.407 2.25318 12.0744C2.21174 12.0226 2.16988 11.9705 2.1272 11.9172C0.889158 10.2777 0.588599 8.24637 0.823491 6.24723C1.03046 4.93212 1.64144 3.75758 2.46119 2.72281C2.50236 2.66984 2.54384 2.61722 2.58619 2.56266C2.91126 2.16719 3.30508 1.85736 3.70923 1.54606C3.76101 1.5047 3.81218 1.46268 3.86548 1.42008Z" fill="white"/>
</svg>
