<svg width="78" height="76" viewBox="0 0 78 76" fill="none" xmlns="http://www.w3.org/2000/svg">
<path d="M16.4262 7.09472C29.8279 -2.96975 49.3263 -2.00891 62.4096 7.96679C62.9261 8.37311 62.9267 8.37332 63.4535 8.78808C63.7248 8.99713 63.9964 9.20649 64.2758 9.42187C66.2982 11.0731 67.884 13.0717 69.476 15.125C69.6875 15.3876 69.8988 15.6511 70.1166 15.9219C76.4132 24.2027 77.9954 34.5362 76.7973 44.6426C76.5167 46.3639 76.0635 47.9804 75.4985 49.6299C75.3702 50.0221 75.2419 50.4145 75.1098 50.8184C73.4231 55.5461 71.0358 59.6007 67.7045 63.3613C67.4272 63.7243 67.1499 64.0881 66.8637 64.4619C65.4095 66.0451 63.738 67.3312 62.0365 68.6426C61.6264 68.9654 61.626 68.9659 61.2074 69.2949C55.8539 73.2783 49.5621 75.3356 43.06 76C43.0618 67.7818 43.099 49.9318 43.099 42.4316H51.0287C51.6256 39.1207 52.08 35.8622 52.35 32.5107H43.2914C43.3571 31.1356 43.2275 29.8013 43.2914 28.4668C43.3108 28.0343 43.3301 27.6143 43.349 27.1943C43.3662 26.854 43.3826 26.5228 43.3998 26.1924C43.4747 24.613 43.6832 23.8432 44.6615 22.5566C45.8875 21.6159 46.769 21.4968 48.31 21.4248C49.3764 21.4041 49.3765 21.4037 52.7904 21.2959V12.6689C48.0843 11.7472 41.9206 11.1613 37.725 13.7881C37.4554 13.9943 37.1927 14.1944 36.9311 14.3945C36.5101 14.7153 36.1014 15.0266 35.6928 15.3379C33.1316 18.5617 32.2756 21.2951 32.3324 25.3838C32.3514 25.9186 32.3706 26.4378 32.3891 26.957C32.4085 28.0093 32.4279 29.0619 32.4487 30.1143C32.4751 30.929 32.5002 31.7201 32.5258 32.5107H23.7153V42.4316H32.0854C32.0854 50.121 32.1508 67.8387 32.1547 75.8975C30.4913 75.6156 28.917 75.1702 27.3168 74.6289C26.9225 74.5014 26.5272 74.3739 26.1205 74.2422C21.3637 72.5659 17.2834 70.1934 13.4994 66.8828C13.1342 66.6068 12.7686 66.3304 12.392 66.0459C10.799 64.6003 9.50562 62.9396 8.18498 61.249C7.97293 60.9855 7.76081 60.7218 7.5424 60.4502C1.2128 52.1166 -0.325607 41.7893 0.875409 31.6269C1.93335 24.9427 5.05844 18.9762 9.24846 13.7168C9.45914 13.4472 9.66945 13.178 9.88615 12.9004C11.5477 10.8903 13.5596 9.31374 15.6254 7.73144C15.8899 7.52137 16.1539 7.31113 16.4262 7.09472Z" fill="#011329"/>
</svg>
