<svg width="91" height="90" viewBox="0 0 91 90" fill="none" xmlns="http://www.w3.org/2000/svg">
<g clip-path="url(#clip0_918_828)">
<path d="M89.6601 35.1239L80.6871 17.171C80.3566 16.5102 79.8991 15.921 79.3408 15.4371C78.7825 14.9531 78.1344 14.5839 77.4334 14.3504C76.7324 14.117 75.9923 14.0239 75.2553 14.0765C74.5183 14.1291 73.7989 14.3264 73.1382 14.6571L64.3938 19.0275L45.9732 14.1543C45.5006 14.0313 45.0043 14.0313 44.5317 14.1543L26.1111 19.0275L17.3667 14.6571C16.706 14.3264 15.9866 14.1291 15.2496 14.0765C14.5126 14.0239 13.7725 14.117 13.0715 14.3504C12.3705 14.5839 11.7224 14.9531 11.1641 15.4371C10.6058 15.921 10.1483 16.5102 9.81777 17.171L0.844827 35.1204C0.514164 35.7812 0.316894 36.5006 0.264281 37.2375C0.211669 37.9745 0.304745 38.7146 0.538194 39.4156C0.771643 40.1166 1.14089 40.7648 1.62486 41.3231C2.10882 41.8813 2.69802 42.3388 3.3588 42.6694L12.8521 47.4196L32.3626 61.3536C32.6501 61.5582 32.9733 61.7072 33.3155 61.7931L55.8182 67.4188C56.2894 67.537 56.7832 67.5311 57.2515 67.4017C57.7198 67.2723 58.1466 67.0238 58.4904 66.6804L77.8532 47.3141L87.1426 42.6694C88.4762 42.0018 89.4901 40.832 89.9616 39.4171C90.433 38.0022 90.3233 36.458 89.6566 35.1239H89.6601ZM70.3605 46.857L58.2618 37.1668C57.7198 36.7327 57.0364 36.5145 56.3431 36.5541C55.6499 36.5937 54.9958 36.8883 54.5067 37.3812C48.2446 43.689 41.2653 42.8909 36.814 40.0781L52.0173 25.3107H63.2019L72.769 44.4415L70.3605 46.857ZM14.8492 19.685L22.0466 23.2784L13.056 41.2278L5.87277 37.6379L14.8492 19.685ZM55.6353 61.5716L35.2036 56.4663L17.9047 44.111L27.7496 24.4211L45.2525 19.7834L48.6982 20.6941L32.876 36.0522L32.8479 36.0838C32.2523 36.6794 31.798 37.4012 31.5186 38.1958C31.2392 38.9904 31.1418 39.8376 31.2336 40.6749C31.3254 41.5122 31.6041 42.3181 32.049 43.0333C32.4939 43.7486 33.0937 44.3547 33.8042 44.8071C41.0332 49.4237 49.7565 48.6748 56.6269 43.0491L66.3487 50.8582L55.6353 61.5716ZM77.4348 41.2243L68.4619 23.2925L75.6557 19.685L84.6321 37.6379L77.4348 41.2243ZM46.5815 73.8075C46.4296 74.4154 46.0789 74.9552 45.5853 75.3412C45.0916 75.7272 44.4832 75.9373 43.8566 75.9382C43.6255 75.9379 43.3953 75.9095 43.171 75.8538L28.5196 72.1901C28.1769 72.1055 27.8535 71.9564 27.5668 71.7506L18.302 65.1334C17.7323 64.6861 17.3571 64.0363 17.2546 63.3194C17.152 62.6024 17.3299 61.8735 17.7513 61.2844C18.1727 60.6953 18.8051 60.2915 19.5168 60.1571C20.2285 60.0226 20.9646 60.1678 21.5719 60.5625L30.4007 66.8703L44.5493 70.4004C45.2728 70.5814 45.8949 71.0424 46.2786 71.682C46.6624 72.3215 46.7764 73.0874 46.5956 73.811L46.5815 73.8075Z" fill="white" fill-opacity="0.5"/>
</g>
<defs>
<clipPath id="clip0_918_828">
<rect width="90" height="90" fill="white" transform="translate(0.25)"/>
</clipPath>
</defs>
</svg>
