<svg width="78" height="76" viewBox="0 0 78 76" fill="none" xmlns="http://www.w3.org/2000/svg">
<path d="M55.0867 0C61.5786 0 67.2974 2.14525 71.3162 6.28223C75.335 10.2661 77.4998 15.7823 77.4998 22.2178V53.7822C77.4998 60.3709 75.3353 66.0405 71.1619 70.0244C67.1432 73.8549 61.5787 75.9999 54.9324 76H23.4002C17.063 76 11.4984 74.0081 7.32501 70.0244C2.99706 65.8873 0.832825 60.2176 0.832825 53.6289V22.2178C0.832825 8.88729 9.79765 0.000212 23.2449 0H55.0867ZM23.4002 7.04883C18.7631 7.04883 14.7437 8.42739 12.116 11.0322C9.33389 13.7903 7.94318 17.6211 7.94318 22.2178V53.6289C7.94318 58.3788 9.33389 62.2097 12.116 64.9678C14.8983 67.5726 18.7631 68.9512 23.4002 68.9512H54.9324C59.5694 68.9511 63.4334 67.5725 66.2156 64.9678C68.9979 62.3629 70.6981 58.5322 70.6981 53.7822V22.2178C70.6981 17.7743 69.1528 13.9436 66.5252 11.1855C63.743 8.42748 59.8781 7.04883 55.241 7.04883H23.4002ZM39.1668 18.2344C49.9867 18.2344 58.952 27.1219 58.952 37.8477C58.9518 48.5733 50.1412 57.46 39.1668 57.46C28.1925 57.4599 19.3818 48.7265 19.3817 37.8477C19.3817 26.9687 28.347 18.2344 39.1668 18.2344ZM39.1668 25.2832C32.2112 25.2833 26.492 30.9525 26.492 37.8477C26.4922 44.7426 32.2113 50.412 39.1668 50.4121C46.1224 50.4121 51.8415 44.7427 51.8416 37.8477C51.8416 30.9525 46.1224 25.2832 39.1668 25.2832ZM59.7117 13.3311C62.1872 13.3311 64.1939 15.3205 64.1942 17.7744C64.1942 20.2285 62.1874 22.2188 59.7117 22.2188C57.2362 22.2186 55.2293 20.2284 55.2293 17.7744C55.2295 15.3206 57.2364 13.3312 59.7117 13.3311Z" fill="#011329"/>
</svg>
