<svg width="16" height="15" viewBox="0 0 16 15" fill="none" xmlns="http://www.w3.org/2000/svg">
<path d="M8.24987 3.59863C6.13294 3.59863 4.37891 5.32242 4.37891 7.4696C4.37891 9.61678 6.1027 11.3406 8.24987 11.3406C10.3971 11.3406 12.1208 9.58654 12.1208 7.4696C12.1208 5.35266 10.3668 3.59863 8.24987 3.59863ZM8.24987 9.94944C6.88899 9.94944 5.77004 8.83049 5.77004 7.4696C5.77004 6.10871 6.88899 4.98976 8.24987 4.98976C9.61076 4.98976 10.7297 6.10871 10.7297 7.4696C10.7297 8.83049 9.61076 9.94944 8.24987 9.94944Z" fill="white"/>
<path d="M12.2725 4.38489C12.7569 4.38489 13.1495 3.99224 13.1495 3.50788C13.1495 3.02351 12.7569 2.63086 12.2725 2.63086C11.7882 2.63086 11.3955 3.02351 11.3955 3.50788C11.3955 3.99224 11.7882 4.38489 12.2725 4.38489Z" fill="white"/>
<path d="M14.5403 1.23992C13.754 0.423387 12.6351 0 11.3649 0H5.13508C2.50403 0 0.75 1.75403 0.75 4.38508V10.5847C0.75 11.8851 1.17339 13.004 2.02016 13.8206C2.83669 14.6069 3.9254 15 5.16532 15H11.3347C12.6351 15 13.7238 14.5766 14.5101 13.8206C15.3266 13.0343 15.75 11.9153 15.75 10.6149V4.38508C15.75 3.11492 15.3266 2.02621 14.5403 1.23992ZM14.4194 10.6149C14.4194 11.5524 14.0867 12.3085 13.5423 12.8226C12.998 13.3367 12.2419 13.6089 11.3347 13.6089H5.16532C4.25806 13.6089 3.50202 13.3367 2.95766 12.8226C2.41331 12.2782 2.14113 11.5222 2.14113 10.5847V4.38508C2.14113 3.47782 2.41331 2.72177 2.95766 2.17742C3.47177 1.66331 4.25806 1.39113 5.16532 1.39113H11.3952C12.3024 1.39113 13.0585 1.66331 13.6028 2.20766C14.1169 2.75202 14.4194 3.50806 14.4194 4.38508V10.6149Z" fill="white"/>
</svg>
