<svg width="76" height="76" viewBox="0 0 76 76" fill="none" xmlns="http://www.w3.org/2000/svg">
<path d="M70.1538 0H5.84615C4.29566 0 2.80866 0.615932 1.7123 1.7123C0.615932 2.80866 0 4.29566 0 5.84615V70.1538C0 71.7043 0.615932 73.1913 1.7123 74.2877C2.80866 75.3841 4.29566 76 5.84615 76H70.1538C71.7043 76 73.1913 75.3841 74.2877 74.2877C75.3841 73.1913 76 71.7043 76 70.1538V5.84615C76 4.29566 75.3841 2.80866 74.2877 1.7123C73.1913 0.615932 71.7043 0 70.1538 0ZM70.1538 70.1538H5.84615V5.84615H70.1538V70.1538ZM26.3077 32.1538V55.5385C26.3077 56.3137 25.9997 57.0572 25.4515 57.6054C24.9034 58.1536 24.1599 58.4615 23.3846 58.4615C22.6094 58.4615 21.8659 58.1536 21.3177 57.6054C20.7695 57.0572 20.4615 56.3137 20.4615 55.5385V32.1538C20.4615 31.3786 20.7695 30.6351 21.3177 30.0869C21.8659 29.5387 22.6094 29.2308 23.3846 29.2308C24.1599 29.2308 24.9034 29.5387 25.4515 30.0869C25.9997 30.6351 26.3077 31.3786 26.3077 32.1538ZM58.4615 42.3846V55.5385C58.4615 56.3137 58.1536 57.0572 57.6054 57.6054C57.0572 58.1536 56.3137 58.4615 55.5385 58.4615C54.7632 58.4615 54.0197 58.1536 53.4715 57.6054C52.9233 57.0572 52.6154 56.3137 52.6154 55.5385V42.3846C52.6154 40.4465 51.8455 38.5878 50.475 37.2173C49.1046 35.8468 47.2458 35.0769 45.3077 35.0769C43.3696 35.0769 41.5108 35.8468 40.1404 37.2173C38.7699 38.5878 38 40.4465 38 42.3846V55.5385C38 56.3137 37.692 57.0572 37.1438 57.6054C36.5957 58.1536 35.8522 58.4615 35.0769 58.4615C34.3017 58.4615 33.5582 58.1536 33.01 57.6054C32.4618 57.0572 32.1538 56.3137 32.1538 55.5385V32.1538C32.1575 31.4379 32.4238 30.7481 32.9022 30.2154C33.3806 29.6827 34.0379 29.3442 34.7494 29.264C35.4609 29.1838 36.1771 29.3675 36.7621 29.7803C37.3472 30.1931 37.7603 30.8062 37.9233 31.5035C39.9007 30.162 42.2061 29.3846 44.5921 29.2546C46.978 29.1246 49.3543 29.647 51.4657 30.7656C53.5772 31.8842 55.344 33.5569 56.5766 35.604C57.8091 37.651 58.4607 39.9951 58.4615 42.3846ZM27.7692 21.9231C27.7692 22.7903 27.5121 23.638 27.0303 24.359C26.5485 25.0801 25.8637 25.6421 25.0625 25.9739C24.2614 26.3058 23.3797 26.3926 22.5292 26.2234C21.6787 26.0543 20.8974 25.6367 20.2842 25.0235C19.671 24.4103 19.2534 23.629 19.0842 22.7785C18.9151 21.9279 19.0019 21.0463 19.3338 20.2452C19.6656 19.444 20.2276 18.7592 20.9487 18.2774C21.6697 17.7956 22.5174 17.5385 23.3846 17.5385C24.5475 17.5385 25.6627 18.0004 26.485 18.8227C27.3073 19.645 27.7692 20.7602 27.7692 21.9231Z" fill="#011329"/>
</svg>
