<svg width="91" height="91" viewBox="0 0 91 91" fill="none" xmlns="http://www.w3.org/2000/svg">
<path d="M86.3126 53.3749C86.0171 53.5965 85.6809 53.7577 85.3231 53.8494C84.9653 53.9411 84.593 53.9614 84.2273 53.9091C83.8617 53.8569 83.5099 53.7332 83.1921 53.545C82.8743 53.3568 82.5967 53.1079 82.3751 52.8124C80.6799 50.5338 78.4734 48.685 75.9332 47.4149C73.393 46.1448 70.5901 45.4889 67.7501 45.4999C67.197 45.4998 66.6563 45.3367 66.1954 45.031C65.7346 44.7252 65.3741 44.2903 65.1591 43.7808C65.0131 43.4347 64.9379 43.063 64.9379 42.6874C64.9379 42.3118 65.0131 41.9401 65.1591 41.594C65.3741 41.0845 65.7346 40.6496 66.1954 40.3438C66.6563 40.0381 67.197 39.8749 67.7501 39.8749C69.3282 39.8748 70.8745 39.4321 72.2136 38.5971C73.5527 37.7622 74.6308 36.5684 75.3254 35.1514C76.0201 33.7345 76.3034 32.1511 76.1433 30.5812C75.9832 29.0113 75.386 27.5177 74.4196 26.2702C73.4531 25.0227 72.1562 24.0712 70.6761 23.5238C69.1961 22.9764 67.5921 22.855 66.0465 23.1735C64.5009 23.492 63.0756 24.2375 61.9325 25.3254C60.7894 26.4134 59.9743 27.8001 59.5798 29.328C59.4874 29.6858 59.3255 30.0219 59.1033 30.3172C58.8811 30.6124 58.6029 30.861 58.2846 31.0487C57.9663 31.2364 57.6141 31.3596 57.2482 31.4112C56.8823 31.4628 56.5098 31.4418 56.152 31.3495C55.7942 31.2572 55.4581 31.0953 55.1629 30.873C54.8677 30.6508 54.6191 30.3726 54.4314 30.0543C54.2437 29.736 54.1205 29.3839 54.0689 29.018C54.0173 28.6521 54.0382 28.2796 54.1306 27.9218C54.6781 25.803 55.7127 23.8412 57.1519 22.1925C58.591 20.5439 60.3951 19.2539 62.4206 18.4252C64.446 17.5965 66.6369 17.2519 68.819 17.4189C71.001 17.586 73.114 18.26 74.9897 19.3873C76.8655 20.5146 78.4522 22.0641 79.6237 23.9126C80.7952 25.7611 81.5191 27.8575 81.7378 30.0349C81.9565 32.2124 81.664 34.4109 80.8836 36.4554C80.1032 38.5 78.8563 40.3341 77.2423 41.812C81.0666 43.4679 84.3911 46.0955 86.8856 49.4339C87.1072 49.7301 87.2682 50.0671 87.3594 50.4257C87.4505 50.7842 87.47 51.1572 87.4168 51.5233C87.3635 51.8894 87.2386 52.2414 87.0491 52.5591C86.8597 52.8768 86.6094 53.154 86.3126 53.3749ZM67.3704 75.0311C67.5739 75.3512 67.7105 75.7092 67.7721 76.0835C67.8337 76.4578 67.8189 76.8407 67.7286 77.2091C67.6384 77.5775 67.4746 77.9239 67.247 78.2274C67.0194 78.5308 66.7328 78.7851 66.4044 78.975C66.076 79.1648 65.7126 79.2862 65.336 79.332C64.9595 79.3777 64.5776 79.3468 64.2133 79.2411C63.849 79.1354 63.5098 78.9571 63.2162 78.717C62.9226 78.4768 62.6806 78.1797 62.5048 77.8436C60.7331 74.8437 58.2098 72.3574 55.1839 70.6303C52.1581 68.9031 48.7342 67.9948 45.2501 67.9948C41.766 67.9948 38.3421 68.9031 35.3162 70.6303C32.2904 72.3574 29.7671 74.8437 27.9954 77.8436C27.8196 78.1797 27.5776 78.4768 27.284 78.717C26.9904 78.9571 26.6512 79.1354 26.2869 79.2411C25.9226 79.3468 25.5407 79.3777 25.1642 79.332C24.7876 79.2862 24.4242 79.1648 24.0958 78.975C23.7674 78.7851 23.4808 78.5308 23.2532 78.2274C23.0256 77.9239 22.8618 77.5775 22.7715 77.2091C22.6813 76.8407 22.6665 76.4578 22.7281 76.0835C22.7896 75.7092 22.9263 75.3512 23.1298 75.0311C25.8565 70.3461 30.0141 66.6593 34.9915 64.5124C32.1907 62.368 30.1323 59.3998 29.1056 56.0251C28.079 52.6503 28.1357 49.0387 29.2678 45.6978C30.3998 42.357 32.5504 39.4549 35.4171 37.3995C38.2839 35.344 41.7226 34.2386 45.2501 34.2386C48.7775 34.2386 52.2163 35.344 55.0831 37.3995C57.9498 39.4549 60.1003 42.357 61.2324 45.6978C62.3645 49.0387 62.4212 52.6503 61.3945 56.0251C60.3679 59.3998 58.3095 62.368 55.5087 64.5124C60.4861 66.6593 64.6437 70.3461 67.3704 75.0311ZM45.2501 62.3749C47.4751 62.3749 49.6502 61.7151 51.5003 60.4789C53.3503 59.2428 54.7923 57.4857 55.6437 55.4301C56.4952 53.3744 56.718 51.1124 56.2839 48.9301C55.8498 46.7478 54.7784 44.7433 53.205 43.1699C51.6317 41.5966 49.6271 40.5251 47.4449 40.0911C45.2626 39.657 43.0006 39.8798 40.9449 40.7312C38.8892 41.5827 37.1322 43.0247 35.8961 44.8747C34.6599 46.7248 34.0001 48.8999 34.0001 51.1249C34.0001 54.1086 35.1854 56.9701 37.2951 59.0798C39.4049 61.1896 42.2664 62.3749 45.2501 62.3749ZM25.5626 42.6874C25.5626 41.9415 25.2663 41.2261 24.7388 40.6987C24.2114 40.1712 23.496 39.8749 22.7501 39.8749C21.172 39.8748 19.6256 39.4321 18.2865 38.5971C16.9475 37.7622 15.8694 36.5684 15.1747 35.1514C14.4801 33.7345 14.1967 32.1511 14.3569 30.5812C14.517 29.0113 15.1142 27.5177 16.0806 26.2702C17.047 25.0227 18.344 24.0712 19.824 23.5238C21.3041 22.9764 22.908 22.855 24.4536 23.1735C25.9992 23.492 27.4245 24.2375 28.5677 25.3254C29.7108 26.4134 30.5259 27.8001 30.9204 29.328C31.1069 30.0506 31.5728 30.6696 32.2156 31.0487C32.8584 31.4278 33.6255 31.536 34.3481 31.3495C35.0707 31.163 35.6897 30.6971 36.0688 30.0543C36.4479 29.4115 36.5561 28.6444 36.3696 27.9218C35.822 25.803 34.7875 23.8412 33.3483 22.1925C31.9092 20.5439 30.1051 19.2539 28.0796 18.4252C26.0542 17.5965 23.8632 17.2519 21.6812 17.4189C19.4991 17.586 17.3862 18.26 15.5105 19.3873C13.6347 20.5146 12.048 22.0641 10.8765 23.9126C9.705 25.7611 8.98109 27.8575 8.76236 30.0349C8.54364 32.2124 8.83613 34.4109 9.61657 36.4554C10.397 38.5 11.6439 40.3341 13.2579 41.812C9.43741 43.4694 6.11666 46.0969 3.62509 49.4339C3.17707 50.0306 2.98445 50.7809 3.08961 51.5196C3.19477 52.2584 3.5891 52.9251 4.18583 53.3731C4.78257 53.8212 5.53284 54.0138 6.27159 53.9086C7.01035 53.8035 7.67707 53.4091 8.12509 52.8124C9.82028 50.5338 12.0268 48.685 14.567 47.4149C17.1072 46.1448 19.9101 45.4889 22.7501 45.4999C23.496 45.4999 24.2114 45.2036 24.7388 44.6761C25.2663 44.1487 25.5626 43.4333 25.5626 42.6874Z" fill="white" fill-opacity="0.5"/>
</svg>
