<svg width="16" height="15" viewBox="0 0 16 15" fill="none" xmlns="http://www.w3.org/2000/svg">
<g clip-path="url(#clip0_1116_335)">
<path d="M12.2618 8.63375L10.1077 7.55673C10.023 7.51447 9.92852 7.49534 9.83397 7.50125C9.73942 7.50716 9.6481 7.5379 9.56923 7.59038L8.58039 8.25006C8.12646 8.00052 7.7529 7.62697 7.50336 7.17304L8.16304 6.18419C8.21552 6.10532 8.24627 6.014 8.25218 5.91945C8.25809 5.8249 8.23895 5.73047 8.1967 5.64568L7.11967 3.49163C7.07503 3.40147 7.00603 3.32563 6.92049 3.27268C6.83494 3.21974 6.73628 3.19182 6.63568 3.19208C5.92157 3.19208 5.23671 3.47576 4.73175 3.98071C4.2268 4.48567 3.94312 5.17053 3.94312 5.88464C3.9449 7.45515 4.56957 8.96081 5.68008 10.0713C6.79059 11.1818 8.29626 11.8065 9.86676 11.8083C10.2204 11.8083 10.5705 11.7386 10.8972 11.6033C11.2238 11.468 11.5207 11.2697 11.7707 11.0197C12.0207 10.7696 12.2191 10.4728 12.3544 10.1461C12.4897 9.81945 12.5593 9.46932 12.5593 9.11572C12.5594 9.01568 12.5316 8.91759 12.479 8.83246C12.4265 8.74733 12.3513 8.67852 12.2618 8.63375ZM9.86676 10.7313C8.5818 10.7298 7.34987 10.2188 6.44126 9.31015C5.53265 8.40154 5.02157 7.16961 5.02014 5.88464C5.02004 5.51113 5.14936 5.14912 5.38611 4.86022C5.62285 4.57132 5.95238 4.37337 6.31863 4.30007L7.0914 5.84829L6.43374 6.82704C6.3846 6.90076 6.3544 6.98547 6.34583 7.07365C6.33726 7.16183 6.35057 7.25077 6.3846 7.33257C6.7699 8.2483 7.49839 8.9768 8.41412 9.36209C8.49617 9.39763 8.58578 9.41218 8.67486 9.40442C8.76394 9.39667 8.84969 9.36685 8.92436 9.31767L9.90782 8.66203L11.456 9.43479C11.3822 9.80147 11.1834 10.1311 10.8935 10.3676C10.6037 10.604 10.2408 10.7326 9.86676 10.7313ZM8.25122 0.499512C7.04257 0.499248 5.85445 0.811909 4.80249 1.40706C3.75052 2.00221 2.87057 2.85958 2.24826 3.89571C1.62596 4.93184 1.28251 6.11144 1.25135 7.31969C1.22019 8.52793 1.50237 9.72367 2.07044 10.7905L1.30642 13.0825C1.24314 13.2723 1.23395 13.476 1.2799 13.6707C1.32585 13.8653 1.42511 14.0434 1.56656 14.1848C1.70801 14.3263 1.88606 14.4256 2.08076 14.4715C2.27545 14.5175 2.47909 14.5083 2.66886 14.445L4.96091 13.681C5.89978 14.1803 6.94009 14.4593 8.00285 14.4965C9.06562 14.5338 10.1229 14.3285 11.0945 13.8962C12.0661 13.4639 12.9264 12.8159 13.6101 12.0014C14.2939 11.1869 14.7831 10.2274 15.0406 9.19565C15.2982 8.16389 15.3173 7.08701 15.0965 6.04676C14.8757 5.00651 14.4208 4.03023 13.7664 3.19202C13.112 2.35381 12.2752 1.67571 11.3196 1.20917C10.364 0.742643 9.31464 0.499948 8.25122 0.499512ZM8.25122 13.4238C7.20986 13.4245 6.18676 13.1503 5.28536 12.6288C5.21936 12.5906 5.14599 12.5668 5.07009 12.559C4.9942 12.5512 4.91751 12.5597 4.84513 12.5837L2.32758 13.4238L3.16699 10.9063C3.19118 10.8339 3.19973 10.7573 3.19207 10.6814C3.18442 10.6055 3.16072 10.5321 3.12256 10.466C2.46959 9.33713 2.20743 8.02428 2.37674 6.73116C2.54605 5.43804 3.13736 4.23694 4.05896 3.31418C4.98055 2.39142 6.1809 1.79859 7.47381 1.62765C8.76671 1.4567 10.0799 1.71721 11.2096 2.36875C12.3394 3.02029 13.2225 4.02644 13.7221 5.23113C14.2216 6.43581 14.3097 7.77168 13.9725 9.03151C13.6354 10.2913 12.8919 11.4047 11.8575 12.1989C10.823 12.993 9.55538 13.4236 8.25122 13.4238Z" fill="white"/>
</g>
<defs>
<clipPath id="clip0_1116_335">
<rect width="15" height="15" fill="white" transform="translate(0.749023)"/>
</clipPath>
</defs>
</svg>
