<svg width="77" height="76" viewBox="0 0 77 76" fill="none" xmlns="http://www.w3.org/2000/svg">
<path fill-rule="evenodd" clip-rule="evenodd" d="M55.5782 45.5435C54.6326 45.0725 49.984 42.7963 49.1173 42.482C48.2507 42.1679 47.6204 42.0112 46.99 42.9529C46.3597 43.8948 44.5476 46.0146 43.996 46.6426C43.4446 47.2706 42.893 47.3494 41.9476 46.8781C41.002 46.4072 37.9554 45.4136 34.3439 42.2075C31.5332 39.7124 29.6354 36.6309 29.084 35.6889C28.5324 34.7468 29.0251 34.2376 29.4984 33.7684C29.924 33.3468 30.4441 32.6693 30.9167 32.1198C31.3897 31.5705 31.5472 31.1777 31.8623 30.55C32.1774 29.9219 32.0199 29.3725 31.7833 28.9015C31.5472 28.4306 29.6562 23.7987 28.8683 21.9143C28.1007 20.0797 27.3213 20.3282 26.7409 20.2991C26.1901 20.2719 25.5589 20.2661 24.9288 20.2661C24.2985 20.2661 23.274 20.5016 22.4073 21.4434C21.5407 22.3854 19.0982 24.6622 19.0982 29.2936C19.0982 33.9256 22.4861 38.3998 22.9589 39.028C23.4316 39.6561 29.6261 49.1606 39.1112 53.2365C41.3669 54.2062 43.1283 54.7852 44.5013 55.2187C46.7663 55.9351 48.8275 55.834 50.4568 55.5916C52.2733 55.3217 56.0508 53.3154 56.8388 51.1175C57.6266 48.9191 57.6266 47.0351 57.3903 46.6426C57.154 46.2501 56.5237 46.0146 55.5782 45.5435ZM38.3262 68.9868H38.3134C32.6695 68.9846 27.1341 67.4755 22.3051 64.6237L21.1565 63.9453L9.25274 67.053L12.43 55.5022L11.6824 54.3179C8.53385 49.3343 6.87091 43.5743 6.87343 37.6597C6.88041 20.4015 20.9898 6.3607 38.3386 6.3607C46.7394 6.36351 54.6363 9.6237 60.5747 15.5403C66.5129 21.4568 69.7812 29.3212 69.778 37.685C69.7709 54.9446 55.6616 68.9868 38.3262 68.9868ZM65.0942 11.0445C57.9497 3.92615 48.4487 0.00413637 38.3257 0C17.4682 0 0.492699 16.8932 0.484238 37.6573C0.481566 44.295 2.22393 50.7735 5.53557 56.4849L0.167175 76L20.2272 70.7631C25.7544 73.7634 31.9773 75.3448 38.3107 75.3469H38.3263C59.1816 75.3469 76.1586 58.4519 76.1672 37.6875C76.171 27.6247 72.2385 18.1629 65.0942 11.0445Z" fill="#011329"/>
</svg>
