<svg width="180" height="80" viewBox="0 0 180 80" fill="none" xmlns="http://www.w3.org/2000/svg">
<g clip-path="url(#clip0_3086_937)">
<path d="M66.0782 34.0629H71.0444V31.6955H66.0782V28.2923H71.3592V25.9248H63.5251V40.4254H71.6389V38.021H66.0782V34.0629Z" fill="white"/>
<path d="M80.9767 32.0654C80.9767 33.2861 80.9767 34.4328 81.0467 35.5795C80.662 34.8027 80.2073 33.9889 79.6477 33.0271L75.416 25.9248H72.9329V40.4254H75.346V34.1739C75.346 32.7682 75.346 31.6215 75.3111 30.5487C75.7307 31.3625 76.2553 32.2873 76.8849 33.3601L81.0817 40.4624H83.4249V25.9248H80.9767V32.0654Z" fill="white"/>
<path d="M88.9857 25.9248L84.2993 40.4254H86.9223L88.2513 36.1714H92.1683L93.5323 40.4254H96.2252L91.5738 25.9248H88.9857ZM91.5738 33.878H88.9158L89.965 30.5487C90.0699 30.2528 90.1399 29.9569 90.2098 29.6609C90.2797 29.9569 90.3847 30.2528 90.4896 30.5857L91.5738 33.878Z" fill="white"/>
<path d="M99.6175 25.9248H97.0645V40.4254H99.6175V25.9248Z" fill="white"/>
<path d="M106.088 31.8437C104.339 31.1408 103.814 30.623 103.814 29.6612C103.814 28.9214 104.339 28.0706 105.808 28.0706C106.787 28.0706 107.557 28.3665 108.011 28.6624L108.466 28.9584L109.2 26.6279L108.886 26.443C108.151 25.9621 107.032 25.7031 105.843 25.7031C103.15 25.7031 101.261 27.4047 101.261 29.8461C101.261 31.7697 102.45 33.1754 104.934 34.1371C106.717 34.84 107.067 35.5058 107.067 36.3936C107.067 37.5403 106.228 38.2432 104.829 38.2432C103.849 38.2432 102.87 37.9472 102.101 37.4294L101.611 37.0964L100.912 39.4639L101.191 39.6488C101.996 40.2037 103.43 40.6106 104.724 40.6106C108.116 40.6106 109.62 38.3911 109.62 36.2086C109.62 34.1741 108.571 32.8424 106.088 31.8437Z" fill="white"/>
<path d="M115.46 31.8437C113.712 31.1408 113.187 30.623 113.187 29.6612C113.187 28.9214 113.712 28.0706 115.181 28.0706C116.16 28.0706 116.964 28.3665 117.384 28.6624L117.839 28.9584L118.573 26.6279L118.258 26.443C117.524 25.9621 116.405 25.7031 115.216 25.7031C112.523 25.7031 110.634 27.4047 110.634 29.8461C110.634 31.7697 111.823 33.1754 114.306 34.1371C116.09 34.84 116.44 35.5058 116.44 36.3936C116.44 37.5403 115.6 38.2432 114.201 38.2432C113.257 38.2432 112.243 37.9472 111.474 37.4294L110.984 37.0964L110.284 39.4639L110.564 39.6488C111.369 40.2037 112.803 40.6106 114.097 40.6106C117.489 40.6106 118.993 38.3911 118.993 36.2086C118.993 34.1741 117.944 32.8424 115.46 31.8437Z" fill="white"/>
<path d="M123.959 25.9248L119.273 40.4254H121.896L123.225 36.1714H127.142L128.506 40.4254H131.199L126.547 25.9248H123.959ZM126.547 33.878H123.889L124.938 30.5487C125.043 30.2528 125.113 29.9569 125.183 29.6609C125.253 29.9569 125.358 30.2528 125.463 30.5857L126.547 33.878Z" fill="white"/>
<path d="M140.152 32.0654C140.152 33.2861 140.152 34.4328 140.222 35.5795C139.837 34.8027 139.347 33.9519 138.823 33.0271L134.556 25.9248H132.073V40.4254H134.486V34.1739C134.486 32.7682 134.486 31.6215 134.451 30.5487C134.871 31.3625 135.395 32.2873 136.025 33.3601L140.222 40.4624H142.565V25.9248H140.152V32.0654Z" fill="white"/>
<path d="M151.028 28.0706C152.252 28.0706 153.057 28.4035 153.406 28.5885L153.861 28.8474L154.526 26.5539L154.211 26.369C153.931 26.221 152.882 25.7031 150.958 25.7031C146.692 25.7031 143.824 28.7364 143.824 33.2864C143.824 37.7623 146.482 40.6477 150.574 40.6477C152.287 40.6477 153.546 40.2778 154.176 39.9448L154.491 39.7969L153.966 37.5034L153.476 37.7623C152.847 38.0953 151.868 38.2802 150.958 38.2802C148.16 38.2802 146.482 36.3937 146.482 33.2864C146.447 29.9941 148.16 28.0706 151.028 28.0706Z" fill="white"/>
<path d="M158.163 38.021V34.0629H163.129V31.6955H158.163V28.2923H163.444V25.9248H155.61V40.4254H163.724V38.021H158.163Z" fill="white"/>
<path d="M60.8671 54.4816C60.3425 54.7776 59.2583 55.0365 57.8594 55.0365C54.6419 55.0365 52.2637 52.891 52.2637 48.9329C52.2637 45.1598 54.6768 42.6074 58.2091 42.6074C59.6081 42.6074 60.5174 42.9403 60.9021 43.1253L60.5174 44.383C59.9928 44.0871 59.1884 43.9021 58.2441 43.9021C55.5861 43.9021 53.8025 45.7147 53.8025 48.859C53.8025 51.8183 55.4113 53.7048 58.1392 53.7048C59.0485 53.7048 59.9578 53.5199 60.5524 53.2239L60.8671 54.4816Z" fill="white"/>
<path d="M72.0936 48.711C72.0936 52.817 69.7154 55.0365 66.8127 55.0365C63.8049 55.0365 61.7065 52.5581 61.7065 48.9329C61.7065 45.1228 63.9448 42.6074 66.9525 42.6074C70.0652 42.6444 72.0936 45.1598 72.0936 48.711ZM63.2454 48.896C63.2454 51.4853 64.5744 53.7788 66.8826 53.7788C69.2258 53.7788 70.5198 51.5223 70.5198 48.785C70.5198 46.3805 69.3307 43.8651 66.8826 43.8651C64.4345 43.8651 63.2454 46.2696 63.2454 48.896Z" fill="white"/>
<path d="M73.9822 54.8513V42.8291H75.591L79.2282 48.9327C80.0675 50.3383 80.732 51.596 81.2566 52.8538H81.2916C81.1517 51.2631 81.1167 49.7835 81.1167 47.9339V42.8291H82.5157V54.8513H81.0468L77.4445 48.7477C76.6402 47.416 75.9057 46.0473 75.3461 44.7527H75.3112C75.3811 46.2693 75.4161 47.712 75.4161 49.7095V54.8513H73.9822Z" fill="white"/>
<path d="M84.8937 52.9651C85.5582 53.409 86.5025 53.7419 87.5167 53.7419C89.0206 53.7419 89.8949 52.8911 89.8949 51.7074C89.8949 50.5977 89.3004 49.9318 87.7615 49.34C85.908 48.6371 84.7538 47.6014 84.7538 45.8998C84.7538 44.0132 86.2227 42.6445 88.426 42.6445C89.5802 42.6445 90.4195 42.9405 90.9091 43.2364L90.4895 44.4941C90.1397 44.2722 89.3703 43.9392 88.3561 43.9392C86.8173 43.9392 86.2227 44.901 86.2227 45.7518C86.2227 46.8615 86.9222 47.4164 88.496 48.0823C90.4195 48.8591 91.3638 49.8578 91.3638 51.5964C91.3638 53.446 90.0698 55.0736 87.4118 55.0736C86.3276 55.0736 85.1036 54.7037 84.509 54.2968L84.8937 52.9651Z" fill="white"/>
<path d="M95.5258 44.1608H92.0635V42.8291H100.457V44.1608H96.9947V54.8513H95.5258V44.1608Z" fill="white"/>
<path d="M101.751 43.0148C102.485 42.8668 103.57 42.7559 104.549 42.7559C106.123 42.7559 107.137 43.0888 107.836 43.7546C108.396 44.2725 108.746 45.1233 108.746 46.0481C108.746 47.6017 107.906 48.8224 106.682 49.2663C105.948 49.5253 105.248 49.4883 105.248 49.4883C105.248 49.4883 109.445 54.4451 109.69 54.889H107.627C107.452 54.5191 103.22 49.6733 103.22 49.6733V54.889H101.751V43.0148ZM103.22 48.4895H104.724C106.298 48.4895 107.277 47.5647 107.277 46.1961C107.277 44.6424 106.228 43.9766 104.654 43.9766C103.954 43.9766 103.465 44.0136 103.22 44.0875V48.4895Z" fill="white"/>
<path d="M112.732 51.0782L111.543 54.8513H110.04L113.922 42.8291H115.67L119.552 54.8513H117.978L116.754 51.0782H112.732ZM116.475 49.8575L115.355 46.4173C115.111 45.6404 114.936 44.9376 114.761 44.2348H114.726C114.551 44.9376 114.376 45.6774 114.166 46.4173L113.047 49.8944H116.475V49.8575Z" fill="white"/>
<path d="M128.855 54.4816C128.331 54.7776 127.246 55.0365 125.847 55.0365C122.63 55.0365 120.252 52.891 120.252 48.9329C120.252 45.1598 122.665 42.6074 126.197 42.6074C127.596 42.6074 128.505 42.9403 128.89 43.1253L128.505 44.383C127.981 44.0871 127.176 43.9021 126.232 43.9021C123.574 43.9021 121.791 45.7147 121.791 48.859C121.791 51.8183 123.399 53.7048 126.127 53.7048C127.037 53.7048 127.946 53.5199 128.54 53.2239L128.855 54.4816Z" fill="white"/>
<path d="M133.332 44.1608H129.87V42.8291H138.263V44.1608H134.836V54.8513H133.367V44.1608H133.332Z" fill="white"/>
<path d="M141.026 42.8291V54.8513H139.557V42.8291H141.026Z" fill="white"/>
<path d="M153.302 48.711C153.302 52.817 150.924 55.0365 148.021 55.0365C145.013 55.0365 142.915 52.5581 142.915 48.9329C142.915 45.1228 145.153 42.6074 148.161 42.6074C151.273 42.6444 153.302 45.1598 153.302 48.711ZM144.454 48.896C144.454 51.4853 145.783 53.7788 148.091 53.7788C150.399 53.7788 151.728 51.5223 151.728 48.785C151.728 46.3805 150.539 43.8651 148.091 43.8651C145.678 43.9021 144.454 46.2696 144.454 48.896Z" fill="white"/>
<path d="M155.19 54.8513V42.8291H156.799L160.436 48.8957C161.276 50.3014 161.94 51.5591 162.465 52.8168H162.5C162.36 51.2261 162.325 49.7465 162.325 47.8969V42.8291H163.724V54.8513H162.255L158.618 48.7477C157.813 47.416 157.079 46.0473 156.519 44.7527H156.484C156.554 46.2693 156.589 47.712 156.589 49.7095V54.8513H155.19Z" fill="white"/>
<path d="M57.3349 33.7673C57.6846 33.7303 58.1742 33.6933 58.6988 33.5084C60.3076 32.9165 61.3568 31.2889 61.3568 29.3653C61.3568 28.1816 60.9371 27.0719 60.2027 26.369C59.2934 25.5182 57.9644 25.1113 56.0409 25.1113C54.8867 25.1113 53.5577 25.2223 52.5435 25.4073L52.3687 25.4443V40.4258H54.6069V34.3962C56.6704 36.7636 59.6781 40.4258 59.6781 40.4258H62.8607C62.8257 40.4258 58.524 35.173 57.3349 33.7673ZM59.1185 29.5503C59.1185 31.1039 57.9644 32.1397 56.1807 32.1397H54.572V27.1459C54.8168 27.1089 55.3064 27.0349 56.1458 27.0349C57.5097 27.0349 59.1185 27.4788 59.1185 29.5503Z" fill="white"/>
<path d="M16.8007 26.6648C18.5843 25.962 20.4379 25.592 22.3264 25.3701C30.755 24.5933 38.0644 25.777 41.7016 28.8473C43.7651 30.6229 44.1498 33.8042 42.4361 35.9866C42.1563 36.3936 41.7716 36.6895 41.4218 36.9854C38.5191 38.872 34.9518 39.0569 28.8664 39.7598C27.6424 39.7598 26.5232 39.9447 25.4041 40.2407C25.4041 40.4256 34.672 45.3825 36.3507 46.2703C38.3092 47.38 50.0253 54.2234 50.41 54.7043C50.5848 55.0003 48.9061 54.7043 48.5214 54.5194C46.458 53.4466 44.2197 52.1519 44.0099 52.6328C43.835 53.1137 45.0241 54.1125 44.1847 54.1125C43.8 54.1125 37.1551 50.6353 36.4207 50.2654C35.6862 49.8584 34.2523 49.0816 33.9725 49.6735C33.6928 50.2654 34.3572 51.3751 33.7977 51.2641C29.2861 49.1926 24.9145 46.8991 20.6827 44.3467C17.8149 42.2382 17.0804 39.2789 18.934 37.5773C21.9417 34.8029 25.7538 35.2838 31.1047 34.507C33.0632 34.2111 36.2458 33.7302 36.2458 31.9176C36.1759 28.4774 32.8884 27.5896 25.7888 26.7758C23.7254 26.4798 21.6619 26.5908 19.7034 26.8867C18.934 26.9977 19.4237 26.5908 18.1996 26.7758C17.64 26.8867 17.1504 26.9977 16.5908 26.8867" fill="white"/>
</g>
<defs>
<clipPath id="clip0_3086_937">
<rect width="147.448" height="30" fill="white" transform="translate(16.2761 25)"/>
</clipPath>
</defs>
</svg>
