<svg width="180" height="80" viewBox="0 0 180 80" fill="none" xmlns="http://www.w3.org/2000/svg">
<g clip-path="url(#clip0_3086_938)">
<path fill-rule="evenodd" clip-rule="evenodd" d="M78.5784 17.1777C78.5784 17.1777 73.4085 22.588 73.4085 33.0482C73.4085 43.5085 77.9774 50.241 77.9774 50.241L61.2646 33.2886L78.5784 17.1777Z" fill="white"/>
<path fill-rule="evenodd" clip-rule="evenodd" d="M81.3435 33.5292C81.8091 22.7185 84.3919 15.8498 90.9984 16.1345C97.6045 16.4192 98.5785 21.7561 98.5785 21.7561C98.5785 21.7561 93.7888 21.1889 93.5666 26.354C93.344 31.5192 98.3889 31.7363 98.5087 31.7414C98.6286 31.7465 103.294 31.3408 104.428 27.758C105.952 22.9415 102.504 17.6583 102.504 17.6583L119.096 33.8895L102.023 50.3614C102.023 50.3614 104.187 46.273 103.707 40.5025C103.395 36.7573 98.5367 36.0539 98.4161 36.0539C98.2963 36.0539 93.2463 36.0539 93.2463 41.2237C93.2463 46.3936 98.0559 46.0326 98.0559 46.0326C98.0559 46.0326 96.8535 51.323 90.2408 51.323C83.6278 51.3238 81.3435 44.3497 81.3435 33.5292ZM61.6374 59.3669C62.2507 58.4285 63.3329 57.9357 64.4511 57.9357C65.2686 57.9357 65.9542 58.1881 66.5073 58.7898L66.5312 58.7659C66.471 58.309 66.7956 57.9844 67.2764 57.9844C67.7336 57.9844 68.0463 58.297 68.0463 58.7539C68.0463 59.1624 67.9501 59.5597 67.9501 59.9683C67.9501 60.2933 68.0463 60.6172 68.0463 60.9423C68.0463 61.4953 67.5292 61.7721 67.036 61.7721C66.3867 61.7721 66.0984 61.4714 66.1223 60.8224C66.1347 60.4734 66.1347 60.3053 65.9059 60.0286C65.6535 59.7279 65.2566 59.6556 64.884 59.6556C63.7658 59.6556 63.2127 60.3656 63.2127 62.3255C63.2127 64.1645 63.7658 64.9228 64.9443 64.9228C65.2689 64.9228 65.6295 64.8745 65.8699 64.6461C66.1583 64.3813 66.1706 64.117 66.1706 63.756C66.1706 63.4793 66.1706 63.2632 66.3268 63.0224C66.4833 62.782 66.7716 62.6854 67.0604 62.6854C67.8419 62.6854 68.1905 63.2508 68.1905 63.9721C68.1905 65.7878 66.4713 66.6296 64.86 66.6296C63.7658 66.6296 62.7076 66.3169 61.9381 65.4871C61.2168 64.7056 60.9038 63.3954 60.9038 62.3491C60.9038 61.3991 61.1086 60.172 61.6374 59.3669ZM71.1952 61.6871C71.1952 62.2402 70.6661 62.4929 70.1613 62.4929C69.5719 62.4929 69.0552 62.0724 69.0552 61.4587C69.0552 60.7011 69.8247 60.0159 71.6764 60.0159C72.2774 60.0159 73.0952 60.0761 73.6244 60.3768C74.2613 60.7371 74.3939 61.3145 74.3939 62.2282V64.4888C74.3939 64.9577 74.4661 65.0543 74.5983 65.0543C74.6946 65.0543 74.7908 65.0303 74.887 65.0303C75.272 65.0303 75.4881 65.3553 75.4881 65.7036C75.4881 66.3772 74.8148 66.63 74.2493 66.63C73.6966 66.63 73.0833 66.4259 72.8792 65.8605C72.3137 66.4016 71.5802 66.63 70.8226 66.63C69.7284 66.63 68.6826 66.0526 68.6826 64.8262C68.6826 61.9762 72.41 63.4553 72.41 61.8683C72.41 61.4107 71.9891 61.1947 71.5925 61.1947C71.3881 61.1947 71.1956 61.231 71.1956 61.4714L71.1952 61.6871ZM72.4096 63.7189C72.061 64.0919 70.6661 63.911 70.6661 64.5487C70.6661 64.9693 71.0027 65.1142 71.3514 65.1142C72.061 65.1142 72.4096 64.6929 72.4096 63.9837V63.7189ZM78.3711 61.6152H78.3951C78.5876 60.6292 79.3211 60.0761 80.3311 60.0761C81.1725 60.0761 81.9181 60.7131 81.9181 61.5792C81.9181 62.1922 81.5331 62.7573 80.8842 62.7573C80.4273 62.7573 80.0424 62.4566 80.0424 61.9758C80.0424 61.8077 80.1146 61.6508 80.1865 61.507C78.84 61.4104 78.8037 63.2385 78.8037 64.2001C78.8037 64.9101 78.8756 65.0419 79.0201 65.0419C79.0804 65.0419 79.1403 65.0179 79.2006 64.9936C79.2725 64.9696 79.3448 64.9573 79.417 64.9573C79.8139 64.9573 79.9461 65.2823 79.9461 65.6433C79.9461 66.1001 79.7417 66.4724 79.3451 66.4724C78.6958 66.4724 78.215 66.3525 77.7218 66.3525C77.265 66.3525 76.8081 66.4724 76.3752 66.4724C75.9787 66.4724 75.7742 66.1001 75.7742 65.6433C75.7742 65.2823 75.9064 64.9573 76.3033 64.9573C76.3872 64.9573 76.4475 64.9813 76.5198 64.9936C76.5801 65.0056 76.64 65.0419 76.7003 65.0419C76.8444 65.0419 76.9167 64.9221 76.9167 64.2001V62.4686C76.9167 61.723 76.8564 61.6275 76.7003 61.6275C76.5801 61.6275 76.4595 61.7111 76.3033 61.7111C75.9064 61.7111 75.7742 61.386 75.7742 61.0258C75.7742 60.5689 75.9787 60.196 76.3752 60.196C76.7239 60.196 76.9646 60.3165 77.2051 60.3165C77.4694 60.3165 77.7218 60.196 77.9985 60.196C78.2633 60.196 78.3711 60.2802 78.3711 60.7131V61.6152Z" fill="white"/>
<path fill-rule="evenodd" clip-rule="evenodd" d="M84.2599 61.6154H84.2838C84.4759 60.6294 85.2095 60.0763 86.2198 60.0763C87.0612 60.0763 87.8072 60.7133 87.8072 61.5794C87.8072 62.1924 87.4222 62.7575 86.7729 62.7575C86.3157 62.7575 85.9311 62.4568 85.9311 61.976C85.9311 61.8079 86.0034 61.651 86.0753 61.5072C84.7287 61.4106 84.6924 63.2387 84.6924 64.2003C84.6924 64.9103 84.7647 65.0421 84.9088 65.0421C84.9687 65.0421 85.029 65.0181 85.089 64.9938C85.1612 64.9698 85.2331 64.9575 85.3058 64.9575C85.7023 64.9575 85.8349 65.2825 85.8349 65.6435C85.8349 66.1003 85.6304 66.4726 85.2335 66.4726C84.5842 66.4726 84.1034 66.3527 83.6102 66.3527C83.1533 66.3527 82.6961 66.4726 82.2636 66.4726C81.8671 66.4726 81.6626 66.1003 81.6626 65.6435C81.6626 65.2825 81.7948 64.9575 82.1917 64.9575C82.276 64.9575 82.3362 64.9814 82.4082 64.9938C82.4684 65.0058 82.5287 65.0421 82.5886 65.0421C82.7328 65.0421 82.8051 64.9223 82.8051 64.2003V62.4688C82.8051 61.7232 82.7448 61.6277 82.5886 61.6277C82.4684 61.6277 82.3482 61.7113 82.1917 61.7113C81.7951 61.7113 81.6626 61.3862 81.6626 61.026C81.6626 60.5691 81.8671 60.1962 82.2636 60.1962C82.6122 60.1962 82.853 60.3167 83.0934 60.3167C83.3582 60.3167 83.6106 60.1962 83.8873 60.1962C84.152 60.1962 84.2599 60.2804 84.2599 60.7133V61.6154ZM90.0068 63.6596C89.6945 63.6596 89.6581 63.7071 89.6581 63.9112C89.6581 64.5972 90.1992 65.114 90.8969 65.114C91.3174 65.114 91.5346 65.0054 91.8708 64.6452C92.2561 64.2359 92.388 64.1636 92.7845 64.1636C93.2541 64.1636 93.6143 64.4403 93.6143 64.9219C93.6143 65.8356 92.4363 66.6291 90.8729 66.6291C88.901 66.6291 87.6746 65.3061 87.6746 63.3585C87.6746 61.4585 88.853 60.0157 90.8246 60.0157C92.6767 60.0157 93.7226 61.1222 93.7226 62.9017C93.7226 63.454 93.6503 63.6592 92.9287 63.6592L90.0068 63.6596ZM91.438 62.325C91.7147 62.325 91.7387 62.2527 91.7387 62.1209C91.7387 61.7959 91.438 61.3753 90.8366 61.3753C90.2236 61.3753 89.7184 61.8442 89.7184 62.1568C89.7184 62.313 89.8746 62.325 90.2236 62.325H91.438ZM95.1864 62C95.1864 61.5311 95.1501 61.5311 94.7779 61.5311C94.3083 61.5311 94.0443 61.4225 94.0443 60.8942C94.0443 60.4014 94.2244 60.1842 94.7176 60.1842C95.1745 60.1842 95.1864 60.1366 95.1984 59.7876C95.2467 58.477 96.3765 57.9355 97.5673 57.9355C97.9638 57.9355 98.4566 58.0078 98.8056 58.1879C99.2142 58.4044 99.5268 58.7893 99.5268 59.2582C99.5268 59.7873 99.1659 60.1958 98.6248 60.1958C98.2282 60.1958 97.8077 59.9191 97.8077 59.4866C97.8077 59.3547 97.844 59.2825 97.9155 59.1616C97.832 59.1252 97.7717 59.1133 97.6751 59.1133C97.2303 59.1133 97.0745 59.378 97.0745 59.7993C97.0745 60.1838 97.0984 60.1838 97.483 60.1838C98.2042 60.1838 98.3372 60.3767 98.3372 60.8335C98.3372 61.3859 98.1803 61.5308 97.3272 61.5308C97.1101 61.5308 97.0748 61.6746 97.0748 61.9996V64.1999C97.0748 64.9219 97.1224 65.0417 97.2913 65.0417C97.3635 65.0417 97.4231 65.0178 97.4834 64.9934C97.5437 64.9814 97.6159 64.9571 97.6875 64.9571C98.0848 64.9571 98.2166 65.2821 98.2166 65.6431C98.2166 66.1 98.0125 66.4722 97.5074 66.4722C96.9902 66.4722 96.5094 66.3523 96.0166 66.3523C95.5598 66.3523 95.1022 66.4602 94.706 66.4722C94.2491 66.4722 94.045 66.1 94.045 65.6431C94.045 65.2821 94.1769 64.9571 94.5742 64.9571C94.6577 64.9571 94.7303 64.9811 94.7906 64.9934C94.8621 65.0174 94.9224 65.0417 94.9707 65.0417C95.1628 65.0417 95.1872 64.7893 95.1872 64.1999V62H95.1864Z" fill="white"/>
<path fill-rule="evenodd" clip-rule="evenodd" d="M104.82 63.2495C104.82 65.2454 103.81 66.6286 101.706 66.6286C99.6136 66.6286 98.4951 65.3783 98.4951 63.3221C98.4951 61.2779 99.6136 60.0156 101.694 60.0156C103.666 60.0153 104.82 61.3139 104.82 63.2495ZM100.479 63.3221C100.479 64.7166 101.104 65.1139 101.597 65.1139C102.018 65.1139 102.379 64.9934 102.571 64.5968C102.751 64.2238 102.836 63.7307 102.836 63.3221C102.836 61.9269 102.307 61.5303 101.658 61.5303C101.092 61.5303 100.479 61.9752 100.479 63.3221ZM107.583 63.7307C107.583 63.9831 107.583 64.4043 107.727 64.6451C107.8 64.7579 107.899 64.8509 108.017 64.9159C108.134 64.9808 108.266 65.0157 108.4 65.0173C108.574 65.0165 108.744 64.972 108.895 64.888C109.046 64.8039 109.174 64.683 109.266 64.5365C109.518 64.1519 109.543 63.7427 109.543 63.2982V62.4684C109.543 61.8194 109.494 61.6273 109.326 61.6273C109.266 61.6273 109.206 61.6505 109.146 61.6636C109.074 61.6869 109.013 61.7112 108.93 61.7112C108.532 61.7112 108.4 61.3862 108.4 61.0259C108.4 60.5691 108.605 60.1961 109.134 60.1961C109.531 60.1961 109.795 60.3167 110.192 60.3167C110.517 60.3167 110.745 60.1961 111.046 60.1961C111.358 60.1961 111.431 60.3287 111.431 60.5934V64.2002C111.431 64.9222 111.515 65.042 111.647 65.042C111.767 65.042 111.888 64.9578 112.044 64.9578C112.441 64.9578 112.573 65.2828 112.573 65.6438C112.573 66.1006 112.369 66.4728 111.864 66.4728C111.563 66.4728 111.286 66.353 111.01 66.353C110.745 66.353 110.481 66.4728 110.252 66.4728C109.952 66.4728 109.82 66.2688 109.82 66.0763V65.5955H109.796C109.351 66.2564 108.485 66.6297 107.68 66.6297C106.441 66.6297 105.696 65.9085 105.696 64.6934V62.4691C105.696 61.7355 105.612 61.628 105.479 61.628C105.419 61.628 105.359 61.6513 105.299 61.6643C105.227 61.6876 105.167 61.7119 105.082 61.7119C104.686 61.7119 104.553 61.3869 104.553 61.0266C104.553 60.5698 104.757 60.1968 105.323 60.1968C105.707 60.1968 106.02 60.3174 106.417 60.3174C106.79 60.3174 106.97 60.1968 107.271 60.1968C107.583 60.1968 107.583 60.4253 107.583 60.7379V63.7307H107.583Z" fill="white"/>
<path fill-rule="evenodd" clip-rule="evenodd" d="M115.036 61.6152H115.06C115.252 60.6293 115.986 60.0762 116.995 60.0762C117.837 60.0762 118.583 60.7131 118.583 61.5793C118.583 62.1923 118.198 62.7573 117.549 62.7573C117.092 62.7573 116.707 62.4566 116.707 61.9758C116.707 61.8077 116.779 61.6508 116.851 61.507C115.504 61.4104 115.468 63.2385 115.468 64.2001C115.468 64.9101 115.54 65.0419 115.685 65.0419C115.745 65.0419 115.805 65.018 115.865 64.9936C115.938 64.9697 116.009 64.9573 116.082 64.9573C116.478 64.9573 116.611 65.2823 116.611 65.6433C116.611 66.1002 116.407 66.4724 116.009 66.4724C115.361 66.4724 114.88 66.3525 114.387 66.3525C113.93 66.3525 113.472 66.4724 113.04 66.4724C112.643 66.4724 112.439 66.1002 112.439 65.6433C112.439 65.2823 112.571 64.9573 112.968 64.9573C113.052 64.9573 113.112 64.9813 113.185 64.9936C113.244 65.0056 113.304 65.0419 113.365 65.0419C113.508 65.0419 113.581 64.9221 113.581 64.2001V62.4686C113.581 61.7231 113.521 61.6276 113.365 61.6276C113.244 61.6276 113.124 61.7111 112.968 61.7111C112.571 61.7111 112.439 61.3861 112.439 61.0258C112.439 60.569 112.643 60.196 113.04 60.196C113.389 60.196 113.629 60.3166 113.869 60.3166C114.134 60.3166 114.387 60.196 114.663 60.196C114.928 60.196 115.036 60.2803 115.036 60.7131L115.036 61.6152Z" fill="white"/>
</g>
<defs>
<clipPath id="clip0_3086_938">
<rect width="70" height="70" fill="white" transform="translate(55 5)"/>
</clipPath>
</defs>
</svg>
