<svg width="180" height="80" viewBox="0 0 180 80" fill="none" xmlns="http://www.w3.org/2000/svg">
<path d="M121.418 15.039H111.52C110.413 15.039 109.515 15.9844 109.515 17.1566C109.515 18.3274 110.413 19.277 111.52 19.277L113.932 19.2871L113.933 19.2856L121.418 19.2871C122.527 19.2871 123.427 18.3374 123.427 17.1652C123.427 15.9916 122.527 15.039 121.418 15.039Z" fill="white"/>
<path d="M56.1529 29.1865C54.9851 29.1865 54.0365 28.2369 54.0365 27.0646C54.0365 25.8924 54.9851 24.9427 56.1529 24.9427H74.7257C75.7551 24.9427 76.3317 24.4442 76.5365 23.7316C76.6691 23.2719 77.4115 22.0824 78.9123 22.0824H108.076C108.076 22.0824 108.188 22.0693 108.243 22.1228C108.292 22.1763 108.303 22.2543 108.303 22.2543V26.3C108.303 26.3 108.277 26.4171 108.215 26.4533C108.117 26.5096 108.022 26.4952 108.022 26.4952L100.102 26.4821C99.1431 26.4821 98.3113 27.2208 98.3113 28.1805V55.0737C98.3113 55.0737 98.3113 56.4527 97.1853 57.2058C97.1853 57.2058 88.8554 62.587 88.3566 62.9267C87.9443 63.2114 86.9899 63.6017 86.1437 62.9845C85.5425 62.5465 85.4704 61.5174 85.4704 61.5174V28.6069C85.4704 26.9909 84.5059 26.4879 83.3353 26.4879L79.4443 26.4865C78.2636 26.4764 77.8397 26.9317 77.6379 27.6442C77.5053 28.1039 76.8925 29.1779 75.3139 29.1779H74.1635C73.3951 29.1779 72.7781 29.8051 72.7781 30.5726V57.1566C72.7781 57.1566 72.8199 59.3695 71.6103 61.1474C70.6372 62.5783 68.4041 63.8749 68.4041 63.8749L59.127 70.0583C59.127 70.0583 55.3614 72.6716 51.1287 71.1033C47.9397 69.921 47.4207 67.7919 47.7696 65.8739C48.1185 63.9602 50.3732 62.8356 51.7688 62.9136C53.4916 63.009 54.8784 63.6045 55.7059 65.6426C56.3936 67.3322 56.927 67.9076 57.7935 67.9668C58.6628 68.0261 59.4716 66.8625 59.4716 64.7132C59.4716 62.5638 59.4716 30.5568 59.4716 30.5568C59.4716 29.8051 58.8646 29.1938 58.1135 29.1938L56.1529 29.1865Z" fill="white"/>
<path d="M121.418 15.039H111.52C110.413 15.039 109.515 15.9844 109.515 17.1566C109.515 18.3274 110.413 19.277 111.52 19.277L113.932 19.2871L113.933 19.2856L121.418 19.2871C122.527 19.2871 123.427 18.3374 123.427 17.1652C123.427 15.9916 122.527 15.039 121.418 15.039Z" fill="white"/>
<path d="M56.1529 29.1865C54.9851 29.1865 54.0365 28.2369 54.0365 27.0646C54.0365 25.8924 54.9851 24.9427 56.1529 24.9427H74.7257C75.7551 24.9427 76.3317 24.4442 76.5365 23.7316C76.6691 23.2719 77.4115 22.0824 78.9123 22.0824H108.076C108.076 22.0824 108.188 22.0693 108.243 22.1228C108.292 22.1763 108.303 22.2543 108.303 22.2543V26.3C108.303 26.3 108.277 26.4171 108.215 26.4533C108.117 26.5096 108.022 26.4952 108.022 26.4952L100.102 26.4821C99.1431 26.4821 98.3113 27.2208 98.3113 28.1805V55.0737C98.3113 55.0737 98.3113 56.4527 97.1853 57.2058C97.1853 57.2058 88.8554 62.587 88.3566 62.9267C87.9443 63.2114 86.9899 63.6017 86.1437 62.9845C85.5425 62.5465 85.4704 61.5174 85.4704 61.5174V28.6069C85.4704 26.9909 84.5059 26.4879 83.3353 26.4879L79.4443 26.4865C78.2636 26.4764 77.8397 26.9317 77.6379 27.6442C77.5053 28.1039 76.8925 29.1779 75.3139 29.1779H74.1635C73.3951 29.1779 72.7781 29.8051 72.7781 30.5726V57.1566C72.7781 57.1566 72.8199 59.3695 71.6103 61.1474C70.6372 62.5783 68.4041 63.8749 68.4041 63.8749L59.127 70.0583C59.127 70.0583 55.3614 72.6716 51.1287 71.1033C47.9397 69.921 47.4207 67.7919 47.7696 65.8739C48.1185 63.9602 50.3732 62.8356 51.7688 62.9136C53.4916 63.009 54.8784 63.6045 55.7059 65.6426C56.3936 67.3322 56.927 67.9076 57.7935 67.9668C58.6628 68.0261 59.4716 66.8625 59.4716 64.7132C59.4716 62.5638 59.4716 30.5568 59.4716 30.5568C59.4716 29.8051 58.8646 29.1938 58.1135 29.1938L56.1529 29.1865Z" fill="white"/>
<path d="M122.908 22.0943V47.5421C122.908 47.5421 122.903 48.9225 121.777 49.6726C121.777 49.6726 113.446 55.0568 112.95 55.3951C112.538 55.6798 111.582 56.0714 110.739 55.4543C110.135 55.0149 110.067 53.9857 110.067 53.9857V22.0943H122.908Z" fill="white"/>
</svg>
