<svg width="180" height="80" viewBox="0 0 180 80" fill="none" xmlns="http://www.w3.org/2000/svg">
<path d="M70.978 26.8125H108.023C115.239 26.8125 121.131 32.6933 121.131 40C121.131 47.3073 115.239 53.1885 108.023 53.1885H70.978C63.7616 53.1885 57.8687 47.3071 57.8687 40C57.8688 32.6932 63.7615 26.8125 70.978 26.8125Z" stroke="white" stroke-width="12" stroke-miterlimit="2.613"/>
<path fill-rule="evenodd" clip-rule="evenodd" d="M75.9855 42.2843C75.8266 42.0461 75.5693 41.9859 75.3032 41.9859C74.8272 41.9859 74.5059 42.3922 74.5059 42.9085C74.5059 43.4331 74.8309 43.8133 75.3148 43.8133C75.5688 43.8133 75.8224 43.7444 75.9851 43.5277V44.4997C75.7274 44.589 75.5406 44.6554 75.2991 44.6554C74.8824 44.6554 74.486 44.4777 74.1764 44.1631C73.8469 43.8307 73.6958 43.3978 73.6958 42.9035C73.6958 42.4486 73.8506 42.0129 74.1366 41.6841C74.4304 41.3471 74.8546 41.1434 75.275 41.1434C75.5248 41.1434 75.7548 41.2048 75.9851 41.3119V42.2843H75.9855ZM79.8893 41.2297H80.6098L81.9363 43.2708H81.9437V41.2297H82.6642V44.5686H81.9437L80.6173 42.5225H80.6098V44.5686H79.8893V41.2297ZM86.6764 44.5686H85.9015V41.9647H85.3267V41.2305H87.2512V41.9647H86.6764V44.5686ZM88.3767 41.8921H88.4523C88.7067 41.8921 88.9931 41.9456 88.9931 42.3088C88.9931 42.6719 88.7067 42.7255 88.4523 42.7255H88.3767V41.8921ZM89.1143 43.1994C89.5388 43.1152 89.7696 42.7163 89.7696 42.2561C89.7696 41.5435 89.3205 41.2297 88.7291 41.2297H87.5683V44.5686H88.3431V43.2837H88.3514L89.0864 44.5686H90.0547L89.1143 43.1994ZM95.1227 42.2843C94.9637 42.0461 94.706 41.9859 94.44 41.9859C93.9643 41.9859 93.6431 42.3922 93.6431 42.9085C93.6431 43.4331 93.9681 43.8133 94.452 43.8133C94.7056 43.8133 94.9596 43.7444 95.1223 43.5277V44.4997C94.8645 44.589 94.6782 44.6554 94.4358 44.6554C94.0199 44.6554 93.6228 44.4777 93.3131 44.1631C92.984 43.8307 92.8334 43.3978 92.8334 42.9035C92.8334 42.4486 92.9882 42.0129 93.2737 41.6841C93.568 41.3471 93.9925 41.1434 94.4126 41.1434C94.6624 41.1434 94.8923 41.2048 95.1227 41.3119V42.2843ZM96.7567 44.5686H95.9818V41.9647H95.407V41.2305H97.3315V41.9647H96.7567V44.5686ZM98.4218 44.5686H97.6469V41.2297H98.4218V44.5686ZM102.424 41.2297H103.144L104.47 43.2708H104.478V41.2297H105.199V44.5686H104.478L103.151 42.5225H103.144V44.5686H102.424V41.2297ZM84.1368 43.2683C84.0069 43.2368 84.0284 43.2426 83.9156 43.2181C83.8031 43.1936 83.5553 43.1015 83.5553 43.1015C83.3843 43.0271 83.2388 42.9045 83.1366 42.7485C83.0344 42.5926 82.98 42.4101 82.9801 42.2237C82.9801 41.6294 83.4615 41.1504 84.0529 41.1504C84.6444 41.1504 85.1237 41.6335 85.1237 42.2278H84.3389V42.1262C84.3389 41.9618 84.2165 41.8286 84.0529 41.8286C83.995 41.8286 83.9383 41.8455 83.8899 41.8773C83.8415 41.9091 83.8034 41.9544 83.7804 42.0076C83.7574 42.0607 83.7505 42.1195 83.7605 42.1765C83.7705 42.2336 83.797 42.2865 83.8367 42.3287C83.8367 42.3287 83.9131 42.4188 84.0895 42.4698C84.2256 42.5096 84.3389 42.4997 84.5501 42.5881C84.7317 42.664 84.8872 42.7918 84.9965 42.9555C85.1057 43.1192 85.1643 43.3114 85.1648 43.5082C85.1648 44.1274 84.6688 44.6292 84.0525 44.6292C83.4362 44.6292 82.9361 44.1299 82.9361 43.5115H83.7118C83.7047 43.5389 83.7109 43.5709 83.7109 43.5999C83.711 43.664 83.7289 43.7267 83.7629 43.781C83.7968 43.8353 83.8453 43.879 83.9028 43.9071C83.9603 43.9353 84.0246 43.9466 84.0883 43.94C84.152 43.9334 84.2125 43.909 84.2631 43.8697C84.3136 43.8304 84.352 43.7776 84.3741 43.7175C84.3961 43.6574 84.4008 43.5923 84.3876 43.5296C84.3745 43.4669 84.344 43.4092 84.2996 43.363C84.2553 43.3168 84.1989 43.284 84.1368 43.2683ZM92.5545 43.4281C92.5545 44.11 92.0033 44.6637 91.3239 44.6637C90.6445 44.6637 90.0933 44.11 90.0933 43.4281V41.2376H90.9317V43.4277C90.9317 43.6427 91.1101 43.817 91.3239 43.817C91.5376 43.817 91.7049 43.6427 91.7049 43.4277V41.2376H92.5545V43.4281ZM76.9775 42.9093C76.9775 42.4067 77.3829 42 77.8831 42C78.3832 42 78.7887 42.4067 78.7887 42.9093C78.7887 43.4111 78.3832 43.8178 77.8831 43.8178C77.3829 43.8178 76.9775 43.4111 76.9775 42.9093ZM77.8831 44.6811C78.858 44.6811 79.6478 43.8876 79.6478 42.9089C79.6478 41.9298 78.858 41.1367 77.8831 41.1367C76.9086 41.1367 76.1188 41.9294 76.1188 42.9089C76.1188 43.8876 76.909 44.6811 77.8831 44.6811ZM99.5087 42.9093C99.5087 42.4067 99.9142 42 100.414 42C100.915 42 101.321 42.4067 101.321 42.9093C101.321 43.0285 101.298 43.1465 101.252 43.2567C101.207 43.3669 101.14 43.467 101.056 43.5514C100.972 43.6357 100.872 43.7027 100.762 43.7484C100.652 43.7941 100.534 43.8177 100.414 43.8178C100.174 43.8174 99.9433 43.7214 99.7734 43.5511C99.6036 43.3807 99.5084 43.1499 99.5087 42.9093ZM100.414 44.6811C101.39 44.6811 102.179 43.8876 102.179 42.9089C102.18 42.6767 102.134 42.4466 102.046 42.2318C101.958 42.017 101.828 41.8218 101.664 41.6572C101.5 41.4926 101.305 41.362 101.091 41.2727C100.876 41.1833 100.647 41.1372 100.414 41.1367C99.4398 41.1367 98.6505 41.9294 98.6505 42.9089C98.6505 43.8876 99.4398 44.6811 100.414 44.6811Z" fill="white"/>
<path fill-rule="evenodd" clip-rule="evenodd" d="M78.3372 37.9876C78.3365 37.6404 78.4738 37.3071 78.7188 37.061C78.9638 36.8149 79.2964 36.6762 79.6437 36.6753C79.9909 36.6762 80.3236 36.8149 80.5686 37.061C80.8136 37.3071 80.9509 37.6404 80.9502 37.9876C80.9509 38.3349 80.8136 38.6682 80.5686 38.9142C80.3236 39.1603 79.9909 39.2991 79.6437 39.2999C79.2964 39.2991 78.9638 39.1603 78.7188 38.9142C78.4738 38.6682 78.3365 38.3349 78.3372 37.9876ZM79.6437 40.5442C81.0502 40.5442 82.1899 39.4 82.1899 37.9876C82.1899 36.5757 81.0498 35.4306 79.6437 35.4306C78.2376 35.4306 77.0975 36.5753 77.0975 37.9876C77.0975 39.4 78.2376 40.5442 79.6437 40.5442ZM94.6264 37.7129C94.6351 37.8029 94.6401 37.8946 94.6401 37.9876C94.6401 39.4 93.5004 40.5442 92.0939 40.5442C90.6873 40.5442 89.5476 39.4 89.5476 37.9876C89.5476 36.5757 90.6877 35.4306 92.0939 35.4306C92.6284 35.4311 93.1492 35.5997 93.5826 35.9127C94.016 36.2256 94.3399 36.6669 94.5085 37.1741L93.1231 37.1791C93.0014 37.0222 92.8453 36.8952 92.6669 36.8079C92.4885 36.7206 92.2925 36.6752 92.0939 36.6753C91.7466 36.6762 91.4139 36.8149 91.1689 37.061C90.9239 37.3071 90.7867 37.6404 90.7873 37.9876C90.7867 38.3349 90.9239 38.6682 91.1689 38.9142C91.4139 39.1603 91.7466 39.2991 92.0939 39.2999C92.3 39.2986 92.5029 39.2486 92.686 39.1539C92.8691 39.0593 93.0273 38.9228 93.1476 38.7554H91.7946V37.7029L94.6264 37.7129ZM86.0078 38.7156C86.0078 39.7191 85.1977 40.5322 84.1983 40.5322C83.1989 40.5322 82.3891 39.7191 82.3891 38.7156V35.4953H83.6222V38.7156C83.6222 39.0318 83.8837 39.2875 84.1983 39.2875C84.5129 39.2875 84.759 39.0314 84.759 38.7156V35.4953H86.0078V38.7156ZM98.458 38.7156C98.458 39.7191 97.6474 40.5322 96.6488 40.5322C95.6494 40.5322 94.8397 39.7191 94.8397 38.7156V35.4953H96.0728V38.7156C96.0728 39.0318 96.3347 39.2875 96.6493 39.2875C96.9638 39.2875 97.2096 39.0314 97.2096 38.7156V35.4953H98.4588V38.7156H98.458ZM101.601 35.4953V36.6396H100.14V37.4161H101.601V38.5595H100.139V39.329H101.597V40.4803H98.9174V35.4958L101.601 35.4953ZM103.695 38.5363C103.504 38.4902 103.535 38.4985 103.37 38.4628C103.205 38.4271 102.84 38.2906 102.84 38.2906C102.589 38.1814 102.375 38.0011 102.224 37.7717C102.074 37.5424 101.994 37.2741 101.994 36.9998C101.994 36.5813 102.161 36.1799 102.456 35.884C102.752 35.5881 103.154 35.4219 103.572 35.4219C104.442 35.4219 105.147 36.1324 105.147 37.0056H103.993V36.8571C103.993 36.6155 103.812 36.4196 103.572 36.4196C103.487 36.4196 103.404 36.4446 103.333 36.4914C103.261 36.5382 103.205 36.6047 103.172 36.6829C103.138 36.7611 103.127 36.8475 103.142 36.9315C103.157 37.0154 103.195 37.0933 103.254 37.1555C103.254 37.1555 103.366 37.2879 103.626 37.363C103.826 37.4211 103.993 37.4066 104.304 37.5373V37.5365C104.571 37.6482 104.799 37.8363 104.96 38.0771C105.121 38.3179 105.207 38.6008 105.208 38.8903C105.208 39.8009 104.478 40.5384 103.572 40.5384C103.357 40.5385 103.143 40.4961 102.943 40.4135C102.744 40.3309 102.563 40.2097 102.41 40.057C102.258 39.9043 102.137 39.7231 102.054 39.5236C101.972 39.3241 101.93 39.1103 101.93 38.8945H103.071C103.061 38.9347 103.07 38.9812 103.07 39.0248C103.07 39.3033 103.294 39.5295 103.572 39.5295C103.85 39.5295 104.075 39.3037 104.075 39.0248C104.075 38.9126 104.038 38.8036 103.969 38.715C103.901 38.6265 103.804 38.5636 103.695 38.5363ZM73.793 35.4953V40.4803L75.6307 40.4844C75.8203 40.4841 76.0079 40.4464 76.1829 40.3735C76.3579 40.3006 76.5168 40.1939 76.6506 40.0596C76.7844 39.9253 76.8904 39.766 76.9625 39.5907C77.0347 39.4154 77.0717 39.2276 77.0713 39.0381C77.0723 38.7786 77.0032 38.5237 76.8712 38.3003C76.7391 38.077 76.5492 37.8935 76.3214 37.7693C76.5417 37.6207 76.7085 37.4054 76.7974 37.1549C76.8863 36.9045 76.8926 36.6322 76.8153 36.3779C76.7381 36.1236 76.5813 35.9008 76.3681 35.7422C76.1549 35.5836 75.8965 35.4975 75.6307 35.4966L73.793 35.4953ZM75.0281 39.3327V38.3836H75.495C75.6171 38.3887 75.7324 38.4403 75.817 38.5285C75.9015 38.6167 75.9488 38.7341 75.9488 38.8563C75.9488 38.9784 75.9015 39.0959 75.817 39.184C75.7324 39.2722 75.6171 39.3243 75.495 39.3294L75.0281 39.3327ZM75.495 36.6305C75.6984 36.6305 75.8636 36.7923 75.8636 36.9965C75.8639 37.0947 75.8253 37.1889 75.7562 37.2587C75.6871 37.3284 75.5932 37.3678 75.495 37.3684L75.0281 37.37V36.6342L75.495 36.6305Z" fill="white"/>
<path fill-rule="evenodd" clip-rule="evenodd" d="M88.6321 40.4848V38.6611L90.0685 35.4961H88.7765L88.0116 37.1732L87.2397 35.4961H85.9473L87.392 38.6611V40.4848H88.6321Z" fill="white"/>
</svg>
