<svg width="180" height="80" viewBox="0 0 180 80" fill="none" xmlns="http://www.w3.org/2000/svg">
<g clip-path="url(#clip0_3086_945)">
<path fill-rule="evenodd" clip-rule="evenodd" d="M57.8146 51.9811C67.8415 51.9811 74.1834 47.6786 74.1834 36.3015C74.1834 24.4904 67.8868 20.8016 57.7117 20.8016H50.4718L50.3794 18.9637C55.3187 18.9637 57.5059 18.7852 60.4394 18.7852C72.4286 18.7852 79.5302 25.5829 79.5302 36.3015C79.5302 42.5046 76.9082 47.6195 72.3775 50.5925C70.7849 51.6382 68.8162 52.8563 66.3117 52.8213L57.6606 52.8225L57.8146 51.9811ZM97.3248 38.982C97.9165 38.982 98.1431 38.7223 98.1431 37.9443C98.1431 35.0889 94.6441 29.7881 89.8285 29.7881C83.8982 29.7881 79.9365 34.8224 79.9365 42.4012C79.9365 49.0962 83.9668 53.7759 89.2368 53.7759C92.9353 53.7759 96.1437 51.5305 97.9211 47.6195L97.0359 46.8403C95.67 49.0512 93.4404 50.2078 90.9184 50.2078C85.1263 50.2078 83.4646 44.9396 84.1847 38.982H97.3248ZM91.8733 37.6322H84.3667C85.1845 34.2075 86.5568 31.5226 89.1921 31.5226C91.7815 31.5226 93.4183 33.9988 93.4183 36.0756C93.4183 37.1133 92.9178 37.6322 91.8733 37.6322Z" fill="white"/>
<path fill-rule="evenodd" clip-rule="evenodd" d="M104.229 48.2656V15.167H103.869C101.979 16.2028 99.9968 17.0372 97.951 17.658V18.2809C100.164 19.2675 100.318 20.0462 100.318 21.966V47.4347C100.318 50.3935 100.163 51.1721 97.4878 51.2755V53.0919H107.007V51.2755C104.383 51.2761 104.229 50.6015 104.229 48.2656ZM109.066 33.5992V45.1518C109.066 50.2888 109.426 53.5018 114.314 53.5018C116.826 53.5018 118.298 52.0917 119.996 49.4961L119.532 48.9249C118.448 49.9429 117.255 50.5153 116.187 50.5744C114.408 50.6705 112.977 49.336 112.977 46.2406V33.5992H120.21L120.54 30.7986H112.976V26.2659H112.564C110.609 28.4978 108.499 30.774 106.183 32.4869V33.5992H109.066Z" fill="white"/>
<path fill-rule="evenodd" clip-rule="evenodd" d="M132.066 50.0308C132.272 52.315 133.61 53.5688 135.616 53.5688C137.932 53.5688 139.373 52.1586 139.681 49.4596H138.704C138.6 50.6014 138.086 51.2243 137.365 51.2243C136.697 51.2243 136.336 50.6531 136.336 49.8227V37.5518C136.336 32.9324 135.753 29.9736 131.139 29.9736C126.045 29.9736 120.333 34.1259 120.333 36.7732C120.333 37.9667 121.105 38.6942 122.289 38.6942C124.244 38.6942 124.81 37.4109 124.81 34.5561C124.81 33.2789 126.258 32.5305 127.887 32.5274C129.982 32.5225 132.375 33.7486 132.375 36.6624V39.5984C124.142 42.6089 120.333 44.8931 120.333 49.0453C120.333 51.7961 122.289 53.6728 125.17 53.6728C127.281 53.6722 129.545 52.4701 132.066 50.0308ZM132.221 48.7339C130.574 50.0308 129.339 50.81 127.796 50.81C125.582 50.81 123.885 49.3051 123.885 47.1773C123.885 44.685 126.561 43.0767 132.221 40.8972V48.7339ZM38.4306 58.0448H39.8075C39.8313 57.8897 39.8366 57.7007 39.822 57.4785C39.8065 57.2516 39.738 57.0323 39.6227 56.8402C39.5041 56.6371 39.3152 56.4641 39.0565 56.3183C38.7973 56.173 38.4329 56.1004 37.9627 56.1004C37.661 56.1004 37.3652 56.1496 37.0745 56.2481C36.7839 56.3478 36.516 56.5017 36.2707 56.7097C36.0254 56.9165 35.8092 57.1837 35.6209 57.5068C35.4331 57.8312 35.2907 58.2171 35.1948 58.6683C35.0379 59.4026 35.1117 59.9775 35.4157 60.3936C35.7191 60.8097 36.23 61.027 36.9472 61.0473C37.2528 61.0614 37.5584 61.0195 37.8505 60.9235C38.1347 60.8296 38.4036 60.6901 38.6479 60.5099C38.8847 60.3354 39.095 60.1237 39.2716 59.8821C39.4454 59.6427 39.5709 59.3878 39.6471 59.1176H38.2021C38.1513 59.2547 38.0812 59.3827 37.994 59.4974C37.924 59.589 37.8413 59.6689 37.7488 59.7344C37.6697 59.7892 37.5825 59.8294 37.4907 59.8532C37.4035 59.8747 37.3239 59.8858 37.2506 59.8858C37.0583 59.8858 36.9153 59.8218 36.8188 59.6937C36.7184 59.554 36.6579 59.3868 36.6444 59.2118C36.6252 59.0003 36.6407 58.7868 36.6903 58.5809C36.7409 58.3538 36.8182 58.1433 36.9205 57.95C37.0147 57.7677 37.1387 57.6046 37.2867 57.4681C37.4285 57.3406 37.5837 57.276 37.7528 57.276C37.7889 57.276 37.8412 57.2772 37.9098 57.2797C37.9784 57.2822 38.0469 57.3049 38.1179 57.348C38.1888 57.3923 38.2533 57.4668 38.3131 57.5739C38.3719 57.6792 38.4114 57.8367 38.4306 58.0448ZM52.4744 56.1004C51.9495 56.1195 51.4857 56.2543 51.0829 56.5066C50.6801 56.7577 50.3505 57.0692 50.0954 57.4422C49.8402 57.8152 49.667 58.214 49.5752 58.6418C49.4839 59.0696 49.4886 59.4666 49.5885 59.8322C49.6885 60.1979 49.8908 60.5007 50.1954 60.7426C50.4999 60.9845 50.9196 61.1057 51.4537 61.1057C51.8513 61.1057 52.214 61.035 52.543 60.8952C52.8595 60.7622 53.1523 60.5733 53.409 60.3363C53.6544 60.108 53.8624 59.8383 54.0245 59.538C54.1867 59.2389 54.3018 58.9299 54.3698 58.6098C54.4221 58.3008 54.4256 57.9968 54.3803 57.6964C54.3389 57.4077 54.2372 57.1325 54.0827 56.8907C53.9304 56.6537 53.7211 56.4641 53.4549 56.3183C53.1887 56.1724 52.8621 56.1004 52.4744 56.1004ZM52.2593 57.3326C52.3552 57.3326 52.4488 57.3554 52.5395 57.3985C52.6301 57.4416 52.7045 57.513 52.7609 57.6127C52.8173 57.7112 52.8539 57.8386 52.8708 57.9925C52.8882 58.1476 52.8737 58.3341 52.8272 58.5514C52.7336 58.9915 52.5912 59.3331 52.4 59.5743C52.2088 59.8156 51.9768 59.9363 51.7025 59.9363C51.4421 59.9363 51.2579 59.8255 51.1503 59.6033C51.0428 59.3811 51.0358 59.0493 51.1294 58.6092C51.2212 58.179 51.3718 57.8589 51.581 57.6484C51.7914 57.4385 52.0169 57.3326 52.2593 57.3326ZM64.9047 56.2592L63.9015 60.9599H65.3052L65.6766 59.2192L65.7998 58.4498L66.8053 60.9599H68.209L69.2122 56.2592H67.7533L67.3941 57.9426L67.2866 58.7046L66.2677 56.2592H64.9047ZM79.163 56.2592L78.8921 57.529H80.1796L79.4472 60.9599H80.9404L81.6728 57.529H82.9875L83.2584 56.2592H79.163ZM94.4274 57.4207H95.2289C95.3888 57.4207 95.498 57.4637 95.5567 57.5505C95.5854 57.5912 95.6052 57.638 95.6149 57.6877C95.6245 57.7374 95.6237 57.7887 95.6125 57.838C95.5851 57.95 95.5251 58.0502 95.4411 58.1242C95.3493 58.2122 95.2289 58.2592 95.1051 58.2553H94.249L94.4274 57.4207ZM93.2161 56.2592L92.2123 60.9599H93.7119L94.0513 59.3718C94.2205 59.3718 94.3861 59.3669 94.5477 59.3577C94.7099 59.3478 94.8442 59.3718 94.9505 59.4297C95.0424 59.4679 95.097 59.5306 95.1127 59.615C95.1284 59.6993 95.1284 59.8052 95.1104 59.9301C95.0886 60.0799 95.0613 60.2288 95.0284 60.3764C94.9892 60.5685 94.9661 60.764 94.9592 60.9605H96.5065L96.5396 60.8078C96.4536 60.7838 96.41 60.7309 96.4123 60.649C96.4135 60.5659 96.4303 60.4484 96.4646 60.2933C96.5042 60.1043 96.5396 59.935 96.5693 59.7861C96.5989 59.6359 96.6065 59.4986 96.5919 59.3761C96.5774 59.2543 96.5323 59.1389 96.4611 59.0419C96.3885 58.9434 96.2705 58.8499 96.106 58.7631C96.2409 58.7489 96.3821 58.6763 96.5262 58.5452C96.6704 58.4141 96.793 58.2565 96.8942 58.0706C96.9965 57.8841 97.0633 57.6859 97.0976 57.4754C97.1307 57.2649 97.1046 57.0692 97.0168 56.8889C96.9308 56.7073 96.7692 56.5571 96.5344 56.4383C96.2996 56.3207 95.9648 56.2604 95.5306 56.2604H93.2161V56.2592ZM109.789 56.1004C109.265 56.1195 108.8 56.2543 108.398 56.5066C108.011 56.7417 107.674 57.0605 107.41 57.4422C107.161 57.8001 106.984 58.2084 106.89 58.6418C106.798 59.0696 106.803 59.4666 106.902 59.8322C107.004 60.1979 107.205 60.5007 107.51 60.7426C107.814 60.9845 108.234 61.1057 108.768 61.1057C109.165 61.1057 109.528 61.035 109.857 60.8952C110.174 60.7624 110.467 60.5734 110.724 60.3363C110.969 60.1077 111.177 59.838 111.339 59.538C111.501 59.2389 111.616 58.9299 111.684 58.6098C111.737 58.3008 111.74 57.9968 111.695 57.6964C111.654 57.4077 111.552 57.1323 111.397 56.8907C111.245 56.6537 111.035 56.4641 110.769 56.3183C110.504 56.1724 110.177 56.1004 109.789 56.1004ZM109.574 57.3326C109.67 57.3326 109.763 57.3554 109.855 57.3985C109.945 57.4416 110.019 57.513 110.076 57.6127C110.132 57.7112 110.169 57.8386 110.186 57.9925C110.203 58.1476 110.188 58.3341 110.142 58.5514C110.049 58.9915 109.906 59.3331 109.715 59.5743C109.524 59.8156 109.291 59.9363 109.018 59.9363C108.758 59.9363 108.573 59.8255 108.467 59.6033C108.358 59.3811 108.352 59.0493 108.445 58.6092C108.537 58.179 108.688 57.8589 108.897 57.6484C109.107 57.4385 109.331 57.3326 109.574 57.3326ZM122.22 56.2592L121.216 60.9599H124.682L124.92 59.8433H122.913L123.679 56.2592H122.22ZM137.822 57.6312H139.227C139.255 57.3259 139.238 57.0772 139.177 56.8833C139.115 56.6894 139.016 56.538 138.877 56.4266C138.739 56.3158 138.562 56.2364 138.349 56.1872C138.107 56.1356 137.861 56.1066 137.614 56.1004C137.024 56.1102 136.548 56.2364 136.192 56.4777C135.835 56.7196 135.592 57.0187 135.466 57.377C135.344 57.734 135.318 58.0189 135.389 58.2294C135.461 58.4387 135.592 58.608 135.781 58.7366C135.971 58.864 136.198 58.9637 136.461 59.0333C136.725 59.1041 136.988 59.1749 137.251 59.2475C137.369 59.2906 137.444 59.3558 137.477 59.4395C137.493 59.4793 137.501 59.5224 137.499 59.5656C137.498 59.6088 137.487 59.6511 137.468 59.6894C137.422 59.781 137.352 59.8567 137.267 59.9073C137.165 59.9729 137.045 60.0033 136.926 59.9941C136.786 59.9941 136.65 59.9603 136.525 59.8895C136.397 59.8199 136.333 59.6851 136.329 59.4869H134.926C134.864 59.7781 134.868 60.0255 134.938 60.2311C135.009 60.4367 135.126 60.6029 135.29 60.7309C135.455 60.8589 135.656 60.9531 135.894 61.0134C136.132 61.075 136.383 61.1045 136.648 61.1045C136.904 61.1045 137.161 61.0663 137.419 60.9913C137.676 60.9162 137.914 60.8084 138.128 60.6693C138.343 60.5284 138.528 60.353 138.682 60.1431C138.836 59.9332 138.937 59.6944 138.985 59.4291C139.018 59.2112 139.01 59.0241 138.961 58.8677C138.912 58.7095 138.823 58.5689 138.702 58.4615C138.563 58.3374 138.404 58.239 138.233 58.1704C138.023 58.0834 137.807 58.0118 137.588 57.9561C137.475 57.9272 137.348 57.8971 137.206 57.8663C137.065 57.8355 136.953 57.7943 136.873 57.7463C136.816 57.7124 136.782 57.6706 136.773 57.6201C136.762 57.5684 136.774 57.5167 136.806 57.4637C136.838 57.4108 136.888 57.3628 136.956 57.3222C137.024 57.2816 137.108 57.2563 137.206 57.2465C137.395 57.2323 137.551 57.2514 137.673 57.3043C137.794 57.3579 137.844 57.4662 137.822 57.6312Z" fill="white"/>
<path fill-rule="evenodd" clip-rule="evenodd" d="M66.5682 52.8945H34.2358L50.3331 18.7852L66.5682 52.8945Z" fill="white"/>
</g>
<defs>
<clipPath id="clip0_3086_945">
<rect width="132.203" height="60" fill="white" transform="translate(23.8984 10)"/>
</clipPath>
</defs>
</svg>
