<svg width="180" height="80" viewBox="0 0 180 80" fill="none" xmlns="http://www.w3.org/2000/svg">
<g clip-path="url(#clip0_3086_953)">
<path d="M5.33838 40.0068V20.6182H5.3374V40.0078L5.33838 40.0068ZM43.9028 20.6182H24.6167L5.33838 40.0068V59.3799L43.9028 20.6182Z" fill="white"/>
<path d="M22.744 17.8491H5.3374V35.0928L22.744 17.8491Z" fill="white"/>
<path d="M97.7533 29.0325L92.7192 50.96H101.614L106.643 29.0325H97.7533Z" fill="white"/>
<path d="M77.4399 41.7406H75.4001L78.6889 35.4149L79.7556 41.7406H77.4399ZM76.1744 29.0298L64.7358 50.9561H70.6183L72.517 47.3013H80.6833L81.2919 50.9561H89.974L86.2837 29.0298H76.1744Z" fill="white"/>
<path d="M138.372 29.0325L133.351 50.96H142.243L147.265 29.0325H138.372Z" fill="white"/>
<path d="M134.398 29.0325H125.284L117.655 36.2052L119.32 29.0325H110.796L105.775 50.96H114.273L116.009 43.3902L120.553 50.96H130.839L123.221 39.4763L134.398 29.0325Z" fill="white"/>
<path d="M57.7566 38.9973C57.7566 38.9973 57.1789 46.1195 51.6084 46.1195H48.4566L51.2326 34.2926H54.093C55.1165 34.2993 58.0789 34.5887 57.7566 38.9973ZM57.3056 29.0427L55.0053 29.0348H43.8766L38.856 50.9532H49.9064L54.2783 50.96C60.4337 50.96 66.4913 45.968 66.4913 38.322C66.4913 29.3253 57.3056 29.0427 57.3056 29.0427Z" fill="white"/>
<path d="M168.506 29.0292L165.54 41.9409L161.588 29.0292H151.697L146.672 50.96H152.822L155.817 37.935L159.782 50.96H169.63L174.662 29.0292H168.506Z" fill="white"/>
</g>
<defs>
<clipPath id="clip0_3086_953">
<rect width="170.462" height="40" fill="white" transform="translate(4.76904 20)"/>
</clipPath>
</defs>
</svg>
