<svg width="180" height="80" viewBox="0 0 180 80" fill="none" xmlns="http://www.w3.org/2000/svg">
<g clip-path="url(#clip0_3086_947)">
<path fill-rule="evenodd" clip-rule="evenodd" d="M68.2097 58.8749L67.3682 55.97H67.3411L66.4338 58.8749H68.2089H68.2097ZM65.934 52.8142H68.7606L72.1799 62.2422H69.1814L68.7862 60.8959H65.8023L65.3823 62.2422H62.476L65.934 52.8142ZM74.7965 59.0732C74.7965 59.311 74.8352 59.5224 74.9011 59.6937C75.1118 60.2615 75.7426 60.3815 76.2818 60.3815C76.7552 60.3815 77.4782 60.222 77.4782 59.5224C77.4782 59.0395 77.0706 58.9078 75.4535 58.4395C73.9682 58.0224 72.2706 57.6127 72.2706 55.7103C72.2706 53.5342 74.1255 52.5932 76.0587 52.5932C78.0965 52.5932 79.8972 53.3747 79.9769 55.6722H77.2418C77.2945 55.3159 77.1365 55.0795 76.8994 54.9207C76.6631 54.7488 76.3345 54.6829 76.0455 54.6829C75.6504 54.6829 75.0065 54.7898 75.0065 55.3173C75.0577 55.9905 76.3967 56.1368 77.7284 56.5071C79.0528 56.8773 80.3699 57.4978 80.3699 59.2276C80.3699 61.6839 78.1162 62.4763 76.0309 62.4763C74.9626 62.4763 71.926 62.0929 71.8967 59.0827H74.7899M83.1291 55.2339H80.5023V52.8171H88.655V55.2339H86.0252V62.2437H83.1321V55.2325M92.2842 56.9359H93.796C94.3352 56.9359 95.0713 56.8429 95.0713 55.9978C95.0713 55.4037 94.7494 55.0612 93.6445 55.0612H92.2908V56.9359H92.2842ZM89.3911 52.8164H94.9008C96.5442 52.8164 97.9645 53.7266 97.9645 55.509C97.9645 56.4866 97.5167 57.5161 96.5574 57.8725C97.3455 58.1768 97.8328 59.0483 97.9374 60.2234C97.9769 60.6844 97.9901 61.8039 98.2535 62.2429H95.3603C95.2155 61.7673 95.1628 61.2771 95.1233 60.7868C95.045 59.8883 94.9659 58.9517 93.8223 58.9517H92.2842V62.2437H89.3911V52.8142V52.8164ZM103.289 60.1188C104.025 60.1188 105.156 59.6285 105.156 57.53C105.156 55.43 104.025 54.942 103.289 54.942C102.553 54.942 101.422 55.4322 101.422 57.5322C101.422 59.6322 102.553 60.1203 103.289 60.1203V60.1188ZM103.289 52.5917C106.143 52.5917 108.049 54.6478 108.049 57.5307C108.049 60.4063 106.142 62.4639 103.289 62.4639C100.435 62.4639 98.5294 60.4034 98.5294 57.5249C98.5294 54.6464 100.435 52.5873 103.289 52.5873V52.5917ZM108.955 52.8112H111.914L114.65 57.8556H114.675V52.812H117.412V62.2437H114.597L111.717 57.0925H111.691V62.2422H108.955V52.8142M63.0292 49.8559L90.256 17.6462L116.861 49.8559H106.475L106.124 37.0291L90.0664 31.3291L73.7274 37.3144L73.4787 49.8559M60.0269 10.1133H119.886V69.9999H60.0269V10.1133Z" fill="white"/>
</g>
<defs>
<clipPath id="clip0_3086_947">
<rect width="60" height="60" fill="white" transform="translate(60 10)"/>
</clipPath>
</defs>
</svg>
