<svg width="180" height="80" viewBox="0 0 180 80" fill="none" xmlns="http://www.w3.org/2000/svg">
<path d="M134.022 34.4055C132.66 32.5842 130.131 30.9766 126.003 30.9766C121.875 30.9766 118.775 32.5842 116.706 34.4055C113.676 37.0312 112.417 40.1929 111.439 45.2295C110.448 50.3177 110.475 53.4803 112.487 56.105C113.848 57.9263 116.321 59.534 120.45 59.534C124.578 59.534 127.731 57.9263 129.802 56.105C132.832 53.4803 134.09 50.3177 135.08 45.2295C136.059 40.1929 136.032 37.0312 134.022 34.4055ZM128.11 45.2284C127.548 48.1204 126.907 50.5851 125.178 52.0327C124.216 52.836 123.061 53.2634 121.668 53.2634C120.273 53.2634 119.338 52.836 118.69 52.0327C117.523 50.5851 117.843 48.1204 118.405 45.2284C118.967 42.3342 119.597 39.9244 121.326 38.4767C122.288 37.6735 123.389 37.245 124.782 37.245C126.176 37.245 127.165 37.6735 127.812 38.4767C128.981 39.9244 128.674 42.3342 128.11 45.2284ZM103.359 50.8009L109.142 21.0654H102.173L96.3067 51.2305C95.5348 55.1943 97.1656 59.2139 102.903 59.2139H106.87L108.016 53.3203H105.335C103.565 53.3193 103.035 52.4612 103.359 50.8009ZM76.4768 31.2977L69.4988 48.5489L67.1176 31.2977H61.6683L52.6306 48.5489L51.4824 31.2977H44.2905L47.2329 59.2129H53.3261L62.5767 41.6931L65.0127 59.2129H71.106L81.1391 37.1859L83.3075 37.1848C85.077 37.1773 85.6102 38.0321 85.2952 39.6935L81.5391 59.23H88.5074L92.3452 39.2338C93.0988 35.2657 91.4508 31.2547 85.7145 31.2805L76.4768 31.2977Z" fill="white"/>
<path d="M90.4716 28.9174C92.8066 28.9174 94.7008 27.0252 94.7008 24.6916C94.7008 22.3591 92.8066 20.4668 90.4716 20.4668C88.1377 20.4668 86.2446 22.358 86.2446 24.6916C86.2446 27.0252 88.1377 28.9174 90.4716 28.9174Z" fill="white"/>
</svg>
