<svg width="223" height="70" viewBox="0 0 223 70" fill="none" xmlns="http://www.w3.org/2000/svg">
<g clip-path="url(#clip0_746_572)">
<path d="M47.9638 54.726C53.5192 50.7863 57.3377 44.559 58.0468 37.4167H51.4V32.5833H62.9093L62.9348 33.2602H62.9462C62.9803 33.8358 63 34.4158 63 35C63 51.0162 50.0162 64 34 64C21.8115 64 11.3812 56.4798 7.09099 45.8269H12.3907C14.1762 49.3837 16.8154 52.4366 20.0372 54.7222L34 30.65L47.9638 54.726ZM24.3702 57.1672C27.3209 58.4512 30.5765 59.1667 34 59.1667C37.4232 59.1667 40.6791 58.4527 43.6298 57.1691L34 40.3167L24.3702 57.1672ZM33.9859 18.5667C37.2645 18.564 40.4697 19.5428 43.1881 21.376C45.9062 23.2092 48.0148 25.8129 49.241 28.8535C50.4673 31.8943 50.7559 35.233 50.0699 38.439C49.3838 41.6451 47.7536 44.5729 45.3904 46.8454L42.7 42.7333C44.4001 41.0984 45.0678 39.7807 45.5613 37.4743C46.0549 35.1675 45.8479 32.7651 44.9657 30.5773C44.0833 28.3897 42.5666 26.5153 40.6109 25.1965C38.6552 23.8776 36.3484 23.1744 33.9897 23.1763C31.6309 23.1783 29.3265 23.8867 27.373 25.2087C25.4197 26.5308 23.9064 28.4072 23.0278 30.5962C22.1492 32.7853 21.9451 35.1873 22.4424 37.4931C22.9399 39.7988 23.5972 41.1011 25.3 42.7333L22.6284 46.8634C20.2616 44.5946 18.6271 41.6694 17.9357 38.4645C17.2878 35.4598 17.4965 32.3376 18.5314 29.452L18.7495 28.8791C19.9708 25.8364 22.074 23.2278 24.7893 21.3902C27.5044 19.5528 30.7074 18.5695 33.9859 18.5667ZM30.1333 11.142C19.4049 12.8673 11.0394 21.654 9.95417 32.5833H16.6V37.4167H5.09062L5.07269 36.9333H5.06608C5.02401 36.2943 5 35.6497 5 35C5 20.2949 15.9452 8.14723 30.1333 6.25677V11.142ZM37.8667 6.25677C48.433 7.66466 57.2007 14.761 60.9883 24.3667H55.7066C52.3159 17.4582 45.7253 12.4058 37.8667 11.142V6.25677ZM36.4167 17.6H31.5833V6H36.4167V17.6Z" fill="white"/>
</g>
<path d="M83.83 41.5392C81.982 41.5392 80.211 41.2972 78.517 40.8132C76.823 40.3072 75.459 39.6582 74.425 38.8662L76.24 34.8402C77.23 35.5442 78.396 36.1272 79.738 36.5892C81.102 37.0292 82.477 37.2492 83.863 37.2492C84.919 37.2492 85.766 37.1502 86.404 36.9522C87.064 36.7322 87.548 36.4352 87.856 36.0612C88.164 35.6872 88.318 35.2582 88.318 34.7742C88.318 34.1582 88.076 33.6742 87.592 33.3222C87.108 32.9482 86.47 32.6512 85.678 32.4312C84.886 32.1892 84.006 31.9692 83.038 31.7712C82.092 31.5512 81.135 31.2872 80.167 30.9792C79.221 30.6712 78.352 30.2752 77.56 29.7912C76.768 29.3072 76.119 28.6692 75.613 27.8772C75.129 27.0852 74.887 26.0732 74.887 24.8412C74.887 23.5212 75.239 22.3222 75.943 21.2442C76.669 20.1442 77.747 19.2752 79.177 18.6372C80.629 17.9772 82.444 17.6472 84.622 17.6472C86.074 17.6472 87.504 17.8232 88.912 18.1752C90.32 18.5052 91.563 19.0112 92.641 19.6932L90.991 23.7522C89.913 23.1362 88.835 22.6852 87.757 22.3992C86.679 22.0912 85.623 21.9372 84.589 21.9372C83.555 21.9372 82.708 22.0582 82.048 22.3002C81.388 22.5422 80.915 22.8612 80.629 23.2572C80.343 23.6312 80.2 24.0712 80.2 24.5772C80.2 25.1712 80.442 25.6552 80.926 26.0292C81.41 26.3812 82.048 26.6672 82.84 26.8872C83.632 27.1072 84.501 27.3272 85.447 27.5472C86.415 27.7672 87.372 28.0202 88.318 28.3062C89.286 28.5922 90.166 28.9772 90.958 29.4612C91.75 29.9452 92.388 30.5832 92.872 31.3752C93.378 32.1672 93.631 33.1682 93.631 34.3782C93.631 35.6762 93.268 36.8642 92.542 37.9422C91.816 39.0202 90.727 39.8892 89.275 40.5492C87.845 41.2092 86.03 41.5392 83.83 41.5392ZM101.747 41.1432V22.3992H94.3547V18.0432H114.485V22.3992H107.093V41.1432H101.747ZM117.361 41.1432V18.0432H127.36C129.428 18.0432 131.21 18.3842 132.706 19.0662C134.202 19.7262 135.357 20.6832 136.171 21.9372C136.985 23.1912 137.392 24.6872 137.392 26.4252C137.392 28.1412 136.985 29.6262 136.171 30.8802C135.357 32.1122 134.202 33.0582 132.706 33.7182C131.21 34.3782 129.428 34.7082 127.36 34.7082H120.331L122.707 32.3652V41.1432H117.361ZM132.046 41.1432L126.271 32.7612H131.98L137.821 41.1432H132.046ZM122.707 32.9592L120.331 30.4512H127.063C128.713 30.4512 129.945 30.0992 130.759 29.3952C131.573 28.6692 131.98 27.6792 131.98 26.4252C131.98 25.1492 131.573 24.1592 130.759 23.4552C129.945 22.7512 128.713 22.3992 127.063 22.3992H120.331L122.707 19.8582V32.9592ZM138.592 41.1432L148.888 18.0432H154.168L164.497 41.1432H158.887L150.439 20.7492H152.551L144.07 41.1432H138.592ZM143.74 36.1932L145.159 32.1342H157.039L158.491 36.1932H143.74ZM170.518 41.1432V22.3992H163.126V18.0432H183.256V22.3992H175.864V41.1432H170.518ZM181.936 41.1432L192.232 18.0432H197.512L207.841 41.1432H202.231L193.783 20.7492H195.895L187.414 41.1432H181.936ZM187.084 36.1932L188.503 32.1342H200.383L201.835 36.1932H187.084Z" fill="white"/>
<path d="M74.6119 54.8568L76.5139 50.6568H77.1079L79.0159 54.8568H78.3859L76.6879 50.9928H76.9279L75.2299 54.8568H74.6119ZM75.4219 53.8068L75.5839 53.3268H77.9479L78.1219 53.8068H75.4219ZM82.4024 54.8568V50.6568H84.0404C84.4084 50.6568 84.7224 50.7148 84.9824 50.8308C85.2424 50.9468 85.4424 51.1148 85.5824 51.3348C85.7224 51.5548 85.7924 51.8168 85.7924 52.1208C85.7924 52.4248 85.7224 52.6868 85.5824 52.9068C85.4424 53.1228 85.2424 53.2888 84.9824 53.4048C84.7224 53.5208 84.4084 53.5788 84.0404 53.5788H82.7324L83.0024 53.3028V54.8568H82.4024ZM85.2104 54.8568L84.1424 53.3328H84.7844L85.8644 54.8568H85.2104ZM83.0024 53.3628L82.7324 53.0688H84.0224C84.4064 53.0688 84.6964 52.9868 84.8924 52.8228C85.0924 52.6548 85.1924 52.4208 85.1924 52.1208C85.1924 51.8208 85.0924 51.5888 84.8924 51.4248C84.6964 51.2608 84.4064 51.1788 84.0224 51.1788H82.7324L83.0024 50.8788V53.3628ZM91.3998 54.9048C91.0798 54.9048 90.7838 54.8528 90.5118 54.7488C90.2438 54.6408 90.0098 54.4908 89.8098 54.2988C89.6138 54.1028 89.4598 53.8748 89.3478 53.6148C89.2358 53.3548 89.1798 53.0688 89.1798 52.7568C89.1798 52.4448 89.2358 52.1588 89.3478 51.8988C89.4598 51.6388 89.6158 51.4128 89.8158 51.2208C90.0158 51.0248 90.2498 50.8748 90.5178 50.7708C90.7898 50.6628 91.0858 50.6088 91.4058 50.6088C91.7298 50.6088 92.0278 50.6648 92.2998 50.7768C92.5758 50.8848 92.8098 51.0468 93.0018 51.2628L92.6118 51.6408C92.4518 51.4728 92.2718 51.3488 92.0718 51.2688C91.8718 51.1848 91.6578 51.1428 91.4298 51.1428C91.1938 51.1428 90.9738 51.1828 90.7698 51.2628C90.5698 51.3428 90.3958 51.4548 90.2478 51.5988C90.0998 51.7428 89.9838 51.9148 89.8998 52.1148C89.8198 52.3108 89.7798 52.5248 89.7798 52.7568C89.7798 52.9888 89.8198 53.2048 89.8998 53.4048C89.9838 53.6008 90.0998 53.7708 90.2478 53.9148C90.3958 54.0588 90.5698 54.1708 90.7698 54.2508C90.9738 54.3308 91.1938 54.3708 91.4298 54.3708C91.6578 54.3708 91.8718 54.3308 92.0718 54.2508C92.2718 54.1668 92.4518 54.0388 92.6118 53.8668L93.0018 54.2448C92.8098 54.4608 92.5758 54.6248 92.2998 54.7368C92.0278 54.8488 91.7278 54.9048 91.3998 54.9048ZM99.6297 50.6568H100.23V54.8568H99.6297V50.6568ZM97.2177 54.8568H96.6177V50.6568H97.2177V54.8568ZM99.6837 52.9848H97.1577V52.4628H99.6837V52.9848ZM104.247 54.8568V50.6568H104.847V54.8568H104.247ZM109.698 54.8568V51.1788H108.258V50.6568H111.732V51.1788H110.292V54.8568H109.698ZM115.692 52.4688H117.852V52.9788H115.692V52.4688ZM115.746 54.3348H118.194V54.8568H115.146V50.6568H118.11V51.1788H115.746V54.3348ZM123.797 54.9048C123.477 54.9048 123.181 54.8528 122.909 54.7488C122.641 54.6408 122.407 54.4908 122.207 54.2988C122.011 54.1028 121.857 53.8748 121.745 53.6148C121.633 53.3548 121.577 53.0688 121.577 52.7568C121.577 52.4448 121.633 52.1588 121.745 51.8988C121.857 51.6388 122.013 51.4128 122.213 51.2208C122.413 51.0248 122.647 50.8748 122.915 50.7708C123.187 50.6628 123.483 50.6088 123.803 50.6088C124.127 50.6088 124.425 50.6648 124.697 50.7768C124.973 50.8848 125.207 51.0468 125.399 51.2628L125.009 51.6408C124.849 51.4728 124.669 51.3488 124.469 51.2688C124.269 51.1848 124.055 51.1428 123.827 51.1428C123.591 51.1428 123.371 51.1828 123.167 51.2628C122.967 51.3428 122.793 51.4548 122.645 51.5988C122.497 51.7428 122.381 51.9148 122.297 52.1148C122.217 52.3108 122.177 52.5248 122.177 52.7568C122.177 52.9888 122.217 53.2048 122.297 53.4048C122.381 53.6008 122.497 53.7708 122.645 53.9148C122.793 54.0588 122.967 54.1708 123.167 54.2508C123.371 54.3308 123.591 54.3708 123.827 54.3708C124.055 54.3708 124.269 54.3308 124.469 54.2508C124.669 54.1668 124.849 54.0388 125.009 53.8668L125.399 54.2448C125.207 54.4608 124.973 54.6248 124.697 54.7368C124.425 54.8488 124.125 54.9048 123.797 54.9048ZM129.803 54.8568V51.1788H128.363V50.6568H131.837V51.1788H130.397V54.8568H129.803ZM136.421 54.9048C136.101 54.9048 135.795 54.8568 135.503 54.7608C135.211 54.6608 134.981 54.5328 134.813 54.3768L135.035 53.9088C135.195 54.0488 135.399 54.1648 135.647 54.2568C135.895 54.3488 136.153 54.3948 136.421 54.3948C136.665 54.3948 136.863 54.3668 137.015 54.3108C137.167 54.2548 137.279 54.1788 137.351 54.0828C137.423 53.9828 137.459 53.8708 137.459 53.7468C137.459 53.6028 137.411 53.4868 137.315 53.3988C137.223 53.3108 137.101 53.2408 136.949 53.1888C136.801 53.1328 136.637 53.0848 136.457 53.0448C136.277 53.0048 136.095 52.9588 135.911 52.9068C135.731 52.8508 135.565 52.7808 135.413 52.6968C135.265 52.6128 135.145 52.5008 135.053 52.3608C134.961 52.2168 134.915 52.0328 134.915 51.8088C134.915 51.5928 134.971 51.3948 135.083 51.2148C135.199 51.0308 135.375 50.8848 135.611 50.7768C135.851 50.6648 136.155 50.6088 136.523 50.6088C136.767 50.6088 137.009 50.6408 137.249 50.7048C137.489 50.7688 137.697 50.8608 137.873 50.9808L137.675 51.4608C137.495 51.3408 137.305 51.2548 137.105 51.2028C136.905 51.1468 136.711 51.1188 136.523 51.1188C136.287 51.1188 136.093 51.1488 135.941 51.2088C135.789 51.2688 135.677 51.3488 135.605 51.4488C135.537 51.5488 135.503 51.6608 135.503 51.7848C135.503 51.9328 135.549 52.0508 135.641 52.1388C135.737 52.2268 135.859 52.2968 136.007 52.3488C136.159 52.4008 136.325 52.4488 136.505 52.4928C136.685 52.5328 136.865 52.5788 137.045 52.6308C137.229 52.6828 137.395 52.7508 137.543 52.8348C137.695 52.9188 137.817 53.0308 137.909 53.1708C138.001 53.3108 138.047 53.4908 138.047 53.7108C138.047 53.9228 137.989 54.1208 137.873 54.3048C137.757 54.4848 137.577 54.6308 137.333 54.7428C137.093 54.8508 136.789 54.9048 136.421 54.9048ZM142.794 54.9048C142.51 54.9048 142.258 54.8588 142.038 54.7668C141.818 54.6748 141.644 54.5468 141.516 54.3828C141.388 54.2188 141.324 54.0288 141.324 53.8128C141.324 53.6248 141.366 53.4528 141.45 53.2968C141.534 53.1408 141.668 52.9908 141.852 52.8468C142.036 52.6988 142.278 52.5468 142.578 52.3908C142.822 52.2628 143.012 52.1508 143.148 52.0548C143.288 51.9588 143.386 51.8688 143.442 51.7848C143.502 51.6968 143.532 51.6028 143.532 51.5028C143.532 51.3668 143.484 51.2568 143.388 51.1728C143.292 51.0848 143.154 51.0408 142.974 51.0408C142.786 51.0408 142.638 51.0888 142.53 51.1848C142.426 51.2768 142.374 51.3988 142.374 51.5508C142.374 51.6268 142.386 51.7008 142.41 51.7728C142.438 51.8408 142.486 51.9188 142.554 52.0068C142.626 52.0908 142.728 52.1988 142.86 52.3308L145.08 54.5388L144.756 54.9228L142.398 52.5768C142.258 52.4368 142.148 52.3128 142.068 52.2048C141.988 52.0928 141.93 51.9848 141.894 51.8808C141.858 51.7768 141.84 51.6708 141.84 51.5628C141.84 51.3748 141.886 51.2108 141.978 51.0708C142.074 50.9268 142.206 50.8168 142.374 50.7408C142.546 50.6608 142.746 50.6208 142.974 50.6208C143.186 50.6208 143.37 50.6568 143.526 50.7288C143.682 50.7968 143.802 50.8968 143.886 51.0288C143.974 51.1568 144.018 51.3128 144.018 51.4968C144.018 51.6568 143.978 51.8048 143.898 51.9408C143.822 52.0768 143.698 52.2088 143.526 52.3368C143.354 52.4648 143.122 52.6028 142.83 52.7508C142.59 52.8748 142.402 52.9908 142.266 53.0988C142.13 53.2028 142.032 53.3068 141.972 53.4108C141.916 53.5148 141.888 53.6288 141.888 53.7528C141.888 53.8848 141.926 54.0028 142.002 54.1068C142.082 54.2068 142.192 54.2848 142.332 54.3408C142.476 54.3968 142.642 54.4248 142.83 54.4248C143.098 54.4248 143.34 54.3668 143.556 54.2508C143.772 54.1348 143.952 53.9608 144.096 53.7288C144.244 53.4968 144.352 53.2088 144.42 52.8648L144.882 53.0148C144.802 53.4188 144.664 53.7608 144.468 54.0408C144.276 54.3208 144.038 54.5348 143.754 54.6828C143.47 54.8308 143.15 54.9048 142.794 54.9048ZM149.103 52.4688H151.263V52.9788H149.103V52.4688ZM149.157 54.3348H151.605V54.8568H148.557V50.6568H151.521V51.1788H149.157V54.3348ZM155.337 54.8568V50.6568H155.829L158.607 54.1068H158.349V50.6568H158.949V54.8568H158.457L155.679 51.4068H155.937V54.8568H155.337ZM164.862 54.9048C164.538 54.9048 164.24 54.8528 163.968 54.7488C163.696 54.6408 163.46 54.4908 163.26 54.2988C163.06 54.1028 162.904 53.8748 162.792 53.6148C162.68 53.3548 162.624 53.0688 162.624 52.7568C162.624 52.4448 162.68 52.1588 162.792 51.8988C162.904 51.6388 163.06 51.4128 163.26 51.2208C163.464 51.0248 163.702 50.8748 163.974 50.7708C164.246 50.6628 164.546 50.6088 164.874 50.6088C165.206 50.6088 165.51 50.6628 165.786 50.7708C166.062 50.8788 166.296 51.0408 166.488 51.2568L166.116 51.6288C165.944 51.4608 165.756 51.3388 165.552 51.2628C165.352 51.1828 165.134 51.1428 164.898 51.1428C164.658 51.1428 164.434 51.1828 164.226 51.2628C164.022 51.3428 163.844 51.4548 163.692 51.5988C163.544 51.7428 163.428 51.9148 163.344 52.1148C163.264 52.3108 163.224 52.5248 163.224 52.7568C163.224 52.9848 163.264 53.1988 163.344 53.3988C163.428 53.5948 163.544 53.7668 163.692 53.9148C163.844 54.0588 164.022 54.1708 164.226 54.2508C164.43 54.3308 164.652 54.3708 164.892 54.3708C165.116 54.3708 165.33 54.3368 165.534 54.2688C165.742 54.1968 165.934 54.0788 166.11 53.9148L166.452 54.3708C166.244 54.5468 166 54.6808 165.72 54.7728C165.444 54.8608 165.158 54.9048 164.862 54.9048ZM165.876 54.2928V52.7328H166.452V54.3708L165.876 54.2928ZM170.361 54.8568V50.6568H170.961V54.8568H170.361ZM174.978 54.8568V50.6568H175.47L178.248 54.1068H177.99V50.6568H178.59V54.8568H178.098L175.32 51.4068H175.578V54.8568H174.978ZM183.153 52.4688H185.313V52.9788H183.153V52.4688ZM183.207 54.3348H185.655V54.8568H182.607V50.6568H185.571V51.1788H183.207V54.3348ZM189.933 52.4688H192.093V52.9788H189.933V52.4688ZM189.987 54.3348H192.435V54.8568H189.387V50.6568H192.351V51.1788H189.987V54.3348ZM196.166 54.8568V50.6568H197.804C198.172 50.6568 198.486 50.7148 198.746 50.8308C199.006 50.9468 199.206 51.1148 199.346 51.3348C199.486 51.5548 199.556 51.8168 199.556 52.1208C199.556 52.4248 199.486 52.6868 199.346 52.9068C199.206 53.1228 199.006 53.2888 198.746 53.4048C198.486 53.5208 198.172 53.5788 197.804 53.5788H196.496L196.766 53.3028V54.8568H196.166ZM198.974 54.8568L197.906 53.3328H198.548L199.628 54.8568H198.974ZM196.766 53.3628L196.496 53.0688H197.786C198.17 53.0688 198.46 52.9868 198.656 52.8228C198.856 52.6548 198.956 52.4208 198.956 52.1208C198.956 51.8208 198.856 51.5888 198.656 51.4248C198.46 51.2608 198.17 51.1788 197.786 51.1788H196.496L196.766 50.8788V53.3628ZM204.51 54.9048C204.19 54.9048 203.884 54.8568 203.592 54.7608C203.3 54.6608 203.07 54.5328 202.902 54.3768L203.124 53.9088C203.284 54.0488 203.488 54.1648 203.736 54.2568C203.984 54.3488 204.242 54.3948 204.51 54.3948C204.754 54.3948 204.952 54.3668 205.104 54.3108C205.256 54.2548 205.368 54.1788 205.44 54.0828C205.512 53.9828 205.548 53.8708 205.548 53.7468C205.548 53.6028 205.5 53.4868 205.404 53.3988C205.312 53.3108 205.19 53.2408 205.038 53.1888C204.89 53.1328 204.726 53.0848 204.546 53.0448C204.366 53.0048 204.184 52.9588 204 52.9068C203.82 52.8508 203.654 52.7808 203.502 52.6968C203.354 52.6128 203.234 52.5008 203.142 52.3608C203.05 52.2168 203.004 52.0328 203.004 51.8088C203.004 51.5928 203.06 51.3948 203.172 51.2148C203.288 51.0308 203.464 50.8848 203.7 50.7768C203.94 50.6648 204.244 50.6088 204.612 50.6088C204.856 50.6088 205.098 50.6408 205.338 50.7048C205.578 50.7688 205.786 50.8608 205.962 50.9808L205.764 51.4608C205.584 51.3408 205.394 51.2548 205.194 51.2028C204.994 51.1468 204.8 51.1188 204.612 51.1188C204.376 51.1188 204.182 51.1488 204.03 51.2088C203.878 51.2688 203.766 51.3488 203.694 51.4488C203.626 51.5488 203.592 51.6608 203.592 51.7848C203.592 51.9328 203.638 52.0508 203.73 52.1388C203.826 52.2268 203.948 52.2968 204.096 52.3488C204.248 52.4008 204.414 52.4488 204.594 52.4928C204.774 52.5328 204.954 52.5788 205.134 52.6308C205.318 52.6828 205.484 52.7508 205.632 52.8348C205.784 52.9188 205.906 53.0308 205.998 53.1708C206.09 53.3108 206.136 53.4908 206.136 53.7108C206.136 53.9228 206.078 54.1208 205.962 54.3048C205.846 54.4848 205.666 54.6308 205.422 54.7428C205.182 54.8508 204.878 54.9048 204.51 54.9048Z" fill="white"/>
<defs>
<clipPath id="clip0_746_572">
<rect width="58" height="58" fill="white" transform="translate(5 6)"/>
</clipPath>
</defs>
</svg>
