<svg width="207" height="70" viewBox="0 0 207 70" fill="none" xmlns="http://www.w3.org/2000/svg">
<g clip-path="url(#clip0_710_685)">
<path d="M45.868 54.726C51.4235 50.7863 55.2419 44.559 55.951 37.4167H49.3042V32.5833H60.8136L60.8391 33.2602H60.8504C60.8845 33.8358 60.9042 34.4158 60.9042 35C60.9042 51.0162 47.9205 64 31.9042 64C19.7157 64 9.28547 56.4798 4.99522 45.8269H10.2949C12.0805 49.3837 14.7196 52.4366 17.9414 54.7222L31.9042 30.65L45.868 54.726ZM22.2744 57.1672C25.2251 58.4512 28.4807 59.1667 31.9042 59.1667C35.3274 59.1667 38.5833 58.4527 41.5341 57.1691L31.9042 40.3167L22.2744 57.1672ZM31.8901 18.5667C35.1688 18.564 38.3739 19.5428 41.0923 21.376C43.8105 23.2092 45.9191 25.8129 47.1453 28.8535C48.3715 31.8943 48.6601 35.233 47.9741 38.439C47.2881 41.6451 45.6579 44.5729 43.2947 46.8454L40.6042 42.7333C42.3043 41.0984 42.972 39.7807 43.4656 37.4743C43.9591 35.1675 43.7521 32.7651 42.8699 30.5773C41.9875 28.3897 40.4708 26.5153 38.5152 25.1965C36.5594 23.8776 34.2527 23.1744 31.8939 23.1763C29.5351 23.1783 27.2307 23.8867 25.2773 25.2087C23.3239 26.5308 21.8106 28.4072 20.932 30.5962C20.0535 32.7853 19.8493 35.1873 20.3467 37.4931C20.8441 39.7988 21.5015 41.1011 23.2042 42.7333L20.5327 46.8634C18.1659 44.5946 16.5313 41.6694 15.84 38.4645C15.192 35.4598 15.4007 32.3376 16.4356 29.452L16.6537 28.8791C17.875 25.8364 19.9783 23.2278 22.6935 21.3902C25.4086 19.5528 28.6117 18.5695 31.8901 18.5667ZM28.0376 11.142C17.3091 12.8673 8.94364 21.654 7.8584 32.5833H14.5042V37.4167H2.99486L2.97692 36.9333H2.97032C2.92825 36.2943 2.90424 35.6497 2.90424 35C2.90424 20.2949 13.8494 8.14723 28.0376 6.25677V11.142ZM35.7709 6.25677C46.3372 7.66466 55.1049 14.761 58.8925 24.3667H53.6108C50.2202 17.4582 43.6295 12.4058 35.7709 11.142V6.25677ZM34.3209 17.6H29.4876V6H34.3209V17.6Z" fill="#011329"/>
</g>
<path d="M80.2455 40.396C78.3975 40.396 76.6265 40.154 74.9325 39.67C73.2385 39.164 71.8745 38.515 70.8405 37.723L72.6555 33.697C73.6455 34.401 74.8115 34.984 76.1535 35.446C77.5175 35.886 78.8925 36.106 80.2785 36.106C81.3345 36.106 82.1815 36.007 82.8195 35.809C83.4795 35.589 83.9635 35.292 84.2715 34.918C84.5795 34.544 84.7335 34.115 84.7335 33.631C84.7335 33.015 84.4915 32.531 84.0075 32.179C83.5235 31.805 82.8855 31.508 82.0935 31.288C81.3015 31.046 80.4215 30.826 79.4535 30.628C78.5075 30.408 77.5505 30.144 76.5825 29.836C75.6365 29.528 74.7675 29.132 73.9755 28.648C73.1835 28.164 72.5345 27.526 72.0285 26.734C71.5445 25.942 71.3025 24.93 71.3025 23.698C71.3025 22.378 71.6545 21.179 72.3585 20.101C73.0845 19.001 74.1625 18.132 75.5925 17.494C77.0445 16.834 78.8595 16.504 81.0375 16.504C82.4895 16.504 83.9195 16.68 85.3275 17.032C86.7355 17.362 87.9785 17.868 89.0565 18.55L87.4065 22.609C86.3285 21.993 85.2505 21.542 84.1725 21.256C83.0945 20.948 82.0385 20.794 81.0045 20.794C79.9705 20.794 79.1235 20.915 78.4635 21.157C77.8035 21.399 77.3305 21.718 77.0445 22.114C76.7585 22.488 76.6155 22.928 76.6155 23.434C76.6155 24.028 76.8575 24.512 77.3415 24.886C77.8255 25.238 78.4635 25.524 79.2555 25.744C80.0475 25.964 80.9165 26.184 81.8625 26.404C82.8305 26.624 83.7875 26.877 84.7335 27.163C85.7015 27.449 86.5815 27.834 87.3735 28.318C88.1655 28.802 88.8035 29.44 89.2875 30.232C89.7935 31.024 90.0465 32.025 90.0465 33.235C90.0465 34.533 89.6835 35.721 88.9575 36.799C88.2315 37.877 87.1425 38.746 85.6905 39.406C84.2605 40.066 82.4455 40.396 80.2455 40.396ZM98.1622 40V21.256H90.7702V16.9H110.9V21.256H103.508V40H98.1622ZM113.777 40V16.9H123.776C125.844 16.9 127.626 17.241 129.122 17.923C130.618 18.583 131.773 19.54 132.587 20.794C133.401 22.048 133.808 23.544 133.808 25.282C133.808 26.998 133.401 28.483 132.587 29.737C131.773 30.969 130.618 31.915 129.122 32.575C127.626 33.235 125.844 33.565 123.776 33.565H116.747L119.123 31.222V40H113.777ZM128.462 40L122.687 31.618H128.396L134.237 40H128.462ZM119.123 31.816L116.747 29.308H123.479C125.129 29.308 126.361 28.956 127.175 28.252C127.989 27.526 128.396 26.536 128.396 25.282C128.396 24.006 127.989 23.016 127.175 22.312C126.361 21.608 125.129 21.256 123.479 21.256H116.747L119.123 18.715V31.816ZM135.007 40L145.303 16.9H150.583L160.912 40H155.302L146.854 19.606H148.966L140.485 40H135.007ZM140.155 35.05L141.574 30.991H153.454L154.906 35.05H140.155ZM166.934 40V21.256H159.542V16.9H179.672V21.256H172.28V40H166.934ZM178.352 40L188.648 16.9H193.928L204.257 40H198.647L190.199 19.606H192.311L183.83 40H178.352ZM183.5 35.05L184.919 30.991H196.799L198.251 35.05H183.5Z" fill="#011329"/>
<path d="M71.9458 53.5L73.8478 49.3H74.4418L76.3498 53.5H75.7198L74.0218 49.636H74.2618L72.5638 53.5H71.9458ZM72.7558 52.45L72.9178 51.97H75.2818L75.4558 52.45H72.7558ZM79.7363 53.5V49.3H81.3743C81.7423 49.3 82.0563 49.358 82.3163 49.474C82.5763 49.59 82.7763 49.758 82.9163 49.978C83.0563 50.198 83.1263 50.46 83.1263 50.764C83.1263 51.068 83.0563 51.33 82.9163 51.55C82.7763 51.766 82.5763 51.932 82.3163 52.048C82.0563 52.164 81.7423 52.222 81.3743 52.222H80.0663L80.3363 51.946V53.5H79.7363ZM82.5443 53.5L81.4763 51.976H82.1183L83.1983 53.5H82.5443ZM80.3363 52.006L80.0663 51.712H81.3563C81.7403 51.712 82.0303 51.63 82.2263 51.466C82.4263 51.298 82.5263 51.064 82.5263 50.764C82.5263 50.464 82.4263 50.232 82.2263 50.068C82.0303 49.904 81.7403 49.822 81.3563 49.822H80.0663L80.3363 49.522V52.006ZM88.7337 53.548C88.4137 53.548 88.1177 53.496 87.8457 53.392C87.5777 53.284 87.3437 53.134 87.1437 52.942C86.9477 52.746 86.7937 52.518 86.6817 52.258C86.5697 51.998 86.5137 51.712 86.5137 51.4C86.5137 51.088 86.5697 50.802 86.6817 50.542C86.7937 50.282 86.9497 50.056 87.1497 49.864C87.3497 49.668 87.5837 49.518 87.8517 49.414C88.1237 49.306 88.4197 49.252 88.7397 49.252C89.0637 49.252 89.3617 49.308 89.6337 49.42C89.9097 49.528 90.1437 49.69 90.3357 49.906L89.9457 50.284C89.7857 50.116 89.6057 49.992 89.4057 49.912C89.2057 49.828 88.9917 49.786 88.7637 49.786C88.5277 49.786 88.3077 49.826 88.1037 49.906C87.9037 49.986 87.7297 50.098 87.5817 50.242C87.4337 50.386 87.3177 50.558 87.2337 50.758C87.1537 50.954 87.1137 51.168 87.1137 51.4C87.1137 51.632 87.1537 51.848 87.2337 52.048C87.3177 52.244 87.4337 52.414 87.5817 52.558C87.7297 52.702 87.9037 52.814 88.1037 52.894C88.3077 52.974 88.5277 53.014 88.7637 53.014C88.9917 53.014 89.2057 52.974 89.4057 52.894C89.6057 52.81 89.7857 52.682 89.9457 52.51L90.3357 52.888C90.1437 53.104 89.9097 53.268 89.6337 53.38C89.3617 53.492 89.0617 53.548 88.7337 53.548ZM96.9636 49.3H97.5636V53.5H96.9636V49.3ZM94.5516 53.5H93.9516V49.3H94.5516V53.5ZM97.0176 51.628H94.4916V51.106H97.0176V51.628ZM101.581 53.5V49.3H102.181V53.5H101.581ZM107.032 53.5V49.822H105.592V49.3H109.066V49.822H107.626V53.5H107.032ZM113.026 51.112H115.186V51.622H113.026V51.112ZM113.08 52.978H115.528V53.5H112.48V49.3H115.444V49.822H113.08V52.978ZM121.131 53.548C120.811 53.548 120.515 53.496 120.243 53.392C119.975 53.284 119.741 53.134 119.541 52.942C119.345 52.746 119.191 52.518 119.079 52.258C118.967 51.998 118.911 51.712 118.911 51.4C118.911 51.088 118.967 50.802 119.079 50.542C119.191 50.282 119.347 50.056 119.547 49.864C119.747 49.668 119.981 49.518 120.249 49.414C120.521 49.306 120.817 49.252 121.137 49.252C121.461 49.252 121.759 49.308 122.031 49.42C122.307 49.528 122.541 49.69 122.733 49.906L122.343 50.284C122.183 50.116 122.003 49.992 121.803 49.912C121.603 49.828 121.389 49.786 121.161 49.786C120.925 49.786 120.705 49.826 120.501 49.906C120.301 49.986 120.127 50.098 119.979 50.242C119.831 50.386 119.715 50.558 119.631 50.758C119.551 50.954 119.511 51.168 119.511 51.4C119.511 51.632 119.551 51.848 119.631 52.048C119.715 52.244 119.831 52.414 119.979 52.558C120.127 52.702 120.301 52.814 120.501 52.894C120.705 52.974 120.925 53.014 121.161 53.014C121.389 53.014 121.603 52.974 121.803 52.894C122.003 52.81 122.183 52.682 122.343 52.51L122.733 52.888C122.541 53.104 122.307 53.268 122.031 53.38C121.759 53.492 121.459 53.548 121.131 53.548ZM127.136 53.5V49.822H125.696V49.3H129.17V49.822H127.73V53.5H127.136ZM133.755 53.548C133.435 53.548 133.129 53.5 132.837 53.404C132.545 53.304 132.315 53.176 132.147 53.02L132.369 52.552C132.529 52.692 132.733 52.808 132.981 52.9C133.229 52.992 133.487 53.038 133.755 53.038C133.999 53.038 134.197 53.01 134.349 52.954C134.501 52.898 134.613 52.822 134.685 52.726C134.757 52.626 134.793 52.514 134.793 52.39C134.793 52.246 134.745 52.13 134.649 52.042C134.557 51.954 134.435 51.884 134.283 51.832C134.135 51.776 133.971 51.728 133.791 51.688C133.611 51.648 133.429 51.602 133.245 51.55C133.065 51.494 132.899 51.424 132.747 51.34C132.599 51.256 132.479 51.144 132.387 51.004C132.295 50.86 132.249 50.676 132.249 50.452C132.249 50.236 132.305 50.038 132.417 49.858C132.533 49.674 132.709 49.528 132.945 49.42C133.185 49.308 133.489 49.252 133.857 49.252C134.101 49.252 134.343 49.284 134.583 49.348C134.823 49.412 135.031 49.504 135.207 49.624L135.009 50.104C134.829 49.984 134.639 49.898 134.439 49.846C134.239 49.79 134.045 49.762 133.857 49.762C133.621 49.762 133.427 49.792 133.275 49.852C133.123 49.912 133.011 49.992 132.939 50.092C132.871 50.192 132.837 50.304 132.837 50.428C132.837 50.576 132.883 50.694 132.975 50.782C133.071 50.87 133.193 50.94 133.341 50.992C133.493 51.044 133.659 51.092 133.839 51.136C134.019 51.176 134.199 51.222 134.379 51.274C134.563 51.326 134.729 51.394 134.877 51.478C135.029 51.562 135.151 51.674 135.243 51.814C135.335 51.954 135.381 52.134 135.381 52.354C135.381 52.566 135.323 52.764 135.207 52.948C135.091 53.128 134.911 53.274 134.667 53.386C134.427 53.494 134.123 53.548 133.755 53.548ZM140.128 53.548C139.844 53.548 139.592 53.502 139.372 53.41C139.152 53.318 138.978 53.19 138.85 53.026C138.722 52.862 138.658 52.672 138.658 52.456C138.658 52.268 138.7 52.096 138.784 51.94C138.868 51.784 139.002 51.634 139.186 51.49C139.37 51.342 139.612 51.19 139.912 51.034C140.156 50.906 140.346 50.794 140.482 50.698C140.622 50.602 140.72 50.512 140.776 50.428C140.836 50.34 140.866 50.246 140.866 50.146C140.866 50.01 140.818 49.9 140.722 49.816C140.626 49.728 140.488 49.684 140.308 49.684C140.12 49.684 139.972 49.732 139.864 49.828C139.76 49.92 139.708 50.042 139.708 50.194C139.708 50.27 139.72 50.344 139.744 50.416C139.772 50.484 139.82 50.562 139.888 50.65C139.96 50.734 140.062 50.842 140.194 50.974L142.414 53.182L142.09 53.566L139.732 51.22C139.592 51.08 139.482 50.956 139.402 50.848C139.322 50.736 139.264 50.628 139.228 50.524C139.192 50.42 139.174 50.314 139.174 50.206C139.174 50.018 139.22 49.854 139.312 49.714C139.408 49.57 139.54 49.46 139.708 49.384C139.88 49.304 140.08 49.264 140.308 49.264C140.52 49.264 140.704 49.3 140.86 49.372C141.016 49.44 141.136 49.54 141.22 49.672C141.308 49.8 141.352 49.956 141.352 50.14C141.352 50.3 141.312 50.448 141.232 50.584C141.156 50.72 141.032 50.852 140.86 50.98C140.688 51.108 140.456 51.246 140.164 51.394C139.924 51.518 139.736 51.634 139.6 51.742C139.464 51.846 139.366 51.95 139.306 52.054C139.25 52.158 139.222 52.272 139.222 52.396C139.222 52.528 139.26 52.646 139.336 52.75C139.416 52.85 139.526 52.928 139.666 52.984C139.81 53.04 139.976 53.068 140.164 53.068C140.432 53.068 140.674 53.01 140.89 52.894C141.106 52.778 141.286 52.604 141.43 52.372C141.578 52.14 141.686 51.852 141.754 51.508L142.216 51.658C142.136 52.062 141.998 52.404 141.802 52.684C141.61 52.964 141.372 53.178 141.088 53.326C140.804 53.474 140.484 53.548 140.128 53.548ZM146.437 51.112H148.597V51.622H146.437V51.112ZM146.491 52.978H148.939V53.5H145.891V49.3H148.855V49.822H146.491V52.978ZM152.671 53.5V49.3H153.163L155.941 52.75H155.683V49.3H156.283V53.5H155.791L153.013 50.05H153.271V53.5H152.671ZM162.196 53.548C161.872 53.548 161.574 53.496 161.302 53.392C161.03 53.284 160.794 53.134 160.594 52.942C160.394 52.746 160.238 52.518 160.126 52.258C160.014 51.998 159.958 51.712 159.958 51.4C159.958 51.088 160.014 50.802 160.126 50.542C160.238 50.282 160.394 50.056 160.594 49.864C160.798 49.668 161.036 49.518 161.308 49.414C161.58 49.306 161.88 49.252 162.208 49.252C162.54 49.252 162.844 49.306 163.12 49.414C163.396 49.522 163.63 49.684 163.822 49.9L163.45 50.272C163.278 50.104 163.09 49.982 162.886 49.906C162.686 49.826 162.468 49.786 162.232 49.786C161.992 49.786 161.768 49.826 161.56 49.906C161.356 49.986 161.178 50.098 161.026 50.242C160.878 50.386 160.762 50.558 160.678 50.758C160.598 50.954 160.558 51.168 160.558 51.4C160.558 51.628 160.598 51.842 160.678 52.042C160.762 52.238 160.878 52.41 161.026 52.558C161.178 52.702 161.356 52.814 161.56 52.894C161.764 52.974 161.986 53.014 162.226 53.014C162.45 53.014 162.664 52.98 162.868 52.912C163.076 52.84 163.268 52.722 163.444 52.558L163.786 53.014C163.578 53.19 163.334 53.324 163.054 53.416C162.778 53.504 162.492 53.548 162.196 53.548ZM163.21 52.936V51.376H163.786V53.014L163.21 52.936ZM167.694 53.5V49.3H168.294V53.5H167.694ZM172.312 53.5V49.3H172.804L175.582 52.75H175.324V49.3H175.924V53.5H175.432L172.654 50.05H172.912V53.5H172.312ZM180.487 51.112H182.647V51.622H180.487V51.112ZM180.541 52.978H182.989V53.5H179.941V49.3H182.905V49.822H180.541V52.978ZM187.266 51.112H189.427V51.622H187.266V51.112ZM187.32 52.978H189.769V53.5H186.72V49.3H189.685V49.822H187.32V52.978ZM193.5 53.5V49.3H195.138C195.506 49.3 195.82 49.358 196.08 49.474C196.34 49.59 196.54 49.758 196.68 49.978C196.82 50.198 196.89 50.46 196.89 50.764C196.89 51.068 196.82 51.33 196.68 51.55C196.54 51.766 196.34 51.932 196.08 52.048C195.82 52.164 195.506 52.222 195.138 52.222H193.83L194.1 51.946V53.5H193.5ZM196.308 53.5L195.24 51.976H195.882L196.962 53.5H196.308ZM194.1 52.006L193.83 51.712H195.12C195.504 51.712 195.794 51.63 195.99 51.466C196.19 51.298 196.29 51.064 196.29 50.764C196.29 50.464 196.19 50.232 195.99 50.068C195.794 49.904 195.504 49.822 195.12 49.822H193.83L194.1 49.522V52.006ZM201.843 53.548C201.523 53.548 201.217 53.5 200.925 53.404C200.633 53.304 200.403 53.176 200.235 53.02L200.457 52.552C200.617 52.692 200.821 52.808 201.069 52.9C201.317 52.992 201.575 53.038 201.843 53.038C202.087 53.038 202.285 53.01 202.437 52.954C202.589 52.898 202.701 52.822 202.773 52.726C202.845 52.626 202.881 52.514 202.881 52.39C202.881 52.246 202.833 52.13 202.737 52.042C202.645 51.954 202.523 51.884 202.371 51.832C202.223 51.776 202.059 51.728 201.879 51.688C201.699 51.648 201.517 51.602 201.333 51.55C201.153 51.494 200.987 51.424 200.835 51.34C200.687 51.256 200.567 51.144 200.475 51.004C200.383 50.86 200.337 50.676 200.337 50.452C200.337 50.236 200.393 50.038 200.505 49.858C200.621 49.674 200.797 49.528 201.033 49.42C201.273 49.308 201.577 49.252 201.945 49.252C202.189 49.252 202.431 49.284 202.671 49.348C202.911 49.412 203.119 49.504 203.295 49.624L203.097 50.104C202.917 49.984 202.727 49.898 202.527 49.846C202.327 49.79 202.133 49.762 201.945 49.762C201.709 49.762 201.515 49.792 201.363 49.852C201.211 49.912 201.099 49.992 201.027 50.092C200.959 50.192 200.925 50.304 200.925 50.428C200.925 50.576 200.971 50.694 201.063 50.782C201.159 50.87 201.281 50.94 201.429 50.992C201.581 51.044 201.747 51.092 201.927 51.136C202.107 51.176 202.287 51.222 202.467 51.274C202.651 51.326 202.817 51.394 202.965 51.478C203.117 51.562 203.239 51.674 203.331 51.814C203.423 51.954 203.469 52.134 203.469 52.354C203.469 52.566 203.411 52.764 203.295 52.948C203.179 53.128 202.999 53.274 202.755 53.386C202.515 53.494 202.211 53.548 201.843 53.548Z" fill="#011329"/>
<defs>
<clipPath id="clip0_710_685">
<rect width="58" height="58" fill="white" transform="translate(2.90424 6)"/>
</clipPath>
</defs>
</svg>
