<svg width="100%" height="auto" viewBox="0 0 1440 650" fill="none" xmlns="http://www.w3.org/2000/svg">
<rect width="100%" height="100%" rx="10" fill="white" fill-opacity="0.2"/>
<path d="M391.696 146.14H393.096V149.875H393.747V146.14H395.147V145.509H391.696V146.14ZM399.448 145.509L397.997 147.56L396.597 145.509H395.947V149.875H396.597V146.666L397.797 148.349H398.197L399.398 146.666V149.875H400.048V145.509H399.448ZM332.334 150.559H322.982V145.509H346.887V150.559H337.585V176.438H332.384V150.559H332.334ZM379.394 145.509V176.438H400.048V171.494H384.545V145.509H379.394ZM363.29 158.87L375.593 145.562H369.241L355.239 161.131V145.562H350.087V176.491H355.239V167.549L359.79 162.604L369.842 176.491L376.043 176.544L363.29 158.87ZM313.38 164.866C317.831 164.13 321.081 160.027 320.931 155.293C320.931 152.768 319.981 150.401 318.281 148.612C315.98 146.456 312.98 145.351 309.879 145.509H293.076L296.726 150.453H309.679C313.48 150.453 315.78 152.242 315.78 155.556C315.78 158.712 313.43 160.711 309.729 160.711H304.178L315.73 176.333H321.832L313.38 164.866Z" fill="white"/>
<path d="M100.038 161.106C99.7875 152.427 106.289 145.22 114.491 145.01C114.741 145.01 114.941 145.01 115.191 145.01C119.492 144.852 123.693 146.588 126.693 149.797L123.392 153.794C121.192 151.375 118.191 150.007 114.991 149.954C109.54 150.165 105.289 154.951 105.439 160.685C105.439 160.79 105.439 160.843 105.439 160.948C105.089 166.734 109.289 171.679 114.791 171.994C114.891 171.994 115.041 171.994 115.141 171.994C118.341 171.942 121.392 170.469 123.542 167.997L126.843 171.521C123.843 175.15 119.492 177.149 114.941 176.991C106.739 177.044 100.088 170.101 100.038 161.474C99.9875 161.369 99.9875 161.264 100.038 161.106ZM162.201 145.536H167.352V171.521H182.855V176.465H162.201V145.536ZM186.506 145.536H191.657V171.521H207.16V176.465H186.556V145.536H186.506ZM211.161 145.536H216.312V176.465H211.161V145.536ZM220.513 171.994L223.614 168.102C226.114 170.627 229.415 172.099 232.916 172.099C236.116 172.099 238.117 170.574 238.117 168.207C238.117 165.998 236.916 164.788 231.465 163.473C225.264 161.79 221.763 159.791 221.763 154.11C222.063 148.902 226.314 144.905 231.265 145.22C231.465 145.22 231.615 145.273 231.815 145.273C235.716 145.22 239.467 146.588 242.468 149.165L239.667 153.321C237.417 151.375 234.616 150.27 231.715 150.165C228.715 150.165 226.914 151.795 226.914 153.847C226.914 156.214 228.265 157.266 233.866 158.686C239.467 160.106 243.318 162.631 243.318 167.734C243.318 173.52 239.117 176.939 232.816 176.939C228.265 176.991 223.864 175.203 220.513 171.994ZM246.368 161.106C246.818 152.164 254.07 145.325 262.572 145.746C270.423 146.167 276.725 152.795 277.175 161.106C276.725 170.048 269.473 176.886 260.971 176.465C253.07 176.044 246.818 169.417 246.368 161.106ZM271.574 161.106C271.774 155.267 267.423 150.323 261.872 150.112C261.772 150.112 261.672 150.112 261.572 150.112C256.07 150.112 251.62 154.846 251.67 160.632C251.67 160.79 251.67 160.895 251.67 161.053C251.469 166.892 255.82 171.836 261.372 172.047C261.472 172.047 261.572 172.047 261.672 172.047C267.173 172.047 271.624 167.313 271.574 161.527C271.574 161.421 271.574 161.264 271.574 161.106ZM285.827 145.536H281.026V176.518H286.127V154.478L302.38 176.518H308.682L285.827 145.536ZM141.046 145.325L128.143 176.465H133.445L143.397 151.795L148.498 164.209H143.497L141.546 168.996H150.348L153.349 176.465H158.8L145.847 145.273H141.046V145.325Z" fill="white"/>
<path d="M213.307 237.531C239.969 237.531 261.579 259.234 261.579 286.001C261.579 312.769 239.969 334.472 213.307 334.472H120.668V334.471C94.0181 334.456 72.4217 312.76 72.4216 286.001C72.4216 259.233 94.0323 237.531 120.694 237.531H213.307ZM119.844 272.037C112.167 272.037 105.939 278.287 105.939 286.001C105.939 293.714 112.167 299.965 119.844 299.965H214.156C221.832 299.965 228.061 293.714 228.061 286.001C228.061 278.287 221.832 272.037 214.156 272.037H119.844Z" fill="white" stroke="white" stroke-miterlimit="2.613"/>
<path d="M119.843 272.037H214.156C221.832 272.037 228.061 278.287 228.061 286.001C228.061 293.714 221.832 299.965 214.156 299.965H119.843C112.166 299.965 105.94 293.714 105.94 286.001C105.94 278.407 111.974 272.233 119.485 272.042L119.843 272.037Z" stroke="white" stroke-miterlimit="2.613"/>
<path fill-rule="evenodd" clip-rule="evenodd" d="M133.214 291.711C132.816 291.115 132.173 290.965 131.508 290.965C130.318 290.965 129.515 291.98 129.515 293.271C129.515 294.583 130.327 295.533 131.537 295.533C132.172 295.533 132.806 295.361 133.213 294.819V297.249C132.568 297.472 132.102 297.638 131.498 297.638C130.456 297.638 129.465 297.194 128.691 296.408C127.867 295.577 127.49 294.495 127.49 293.259C127.49 292.122 127.877 291.032 128.591 290.21C129.326 289.368 130.386 288.858 131.437 288.858C132.062 288.858 132.637 289.012 133.213 289.28V291.711H133.214ZM142.973 289.074H144.775L148.091 294.177H148.109V289.074H149.911V297.422H148.109L144.793 292.306H144.775V297.422H142.973V289.074ZM159.941 297.422H158.004V290.912H156.567V289.076H161.378V290.912H159.941V297.422ZM164.192 290.73H164.381C165.017 290.73 165.733 290.864 165.733 291.772C165.733 292.68 165.017 292.814 164.381 292.814H164.192V290.73ZM166.036 293.999C167.097 293.788 167.674 292.791 167.674 291.64C167.674 289.859 166.551 289.074 165.073 289.074H162.171V297.422H164.108V294.209H164.129L165.966 297.422H168.387L166.036 293.999ZM181.057 291.711C180.659 291.115 180.015 290.965 179.35 290.965C178.161 290.965 177.358 291.98 177.358 293.271C177.358 294.583 178.17 295.533 179.38 295.533C180.014 295.533 180.649 295.361 181.056 294.819V297.249C180.411 297.472 179.945 297.638 179.34 297.638C178.3 297.638 177.307 297.194 176.533 296.408C175.71 295.577 175.333 294.495 175.333 293.259C175.333 292.122 175.72 291.032 176.434 290.21C177.17 289.368 178.231 288.858 179.281 288.858C179.906 288.858 180.481 289.012 181.057 289.28V291.711ZM185.142 297.422H183.204V290.912H181.767V289.076H186.579V290.912H185.142V297.422ZM189.304 297.422H187.367V289.074H189.304V297.422ZM199.31 289.074H201.111L204.426 294.177H204.445V289.074H206.248V297.422H204.445L201.129 292.306H201.111V297.422H199.31V289.074ZM153.592 294.171C153.267 294.092 153.321 294.106 153.039 294.045C152.758 293.984 152.138 293.754 152.138 293.754C151.711 293.568 151.347 293.261 151.091 292.871C150.836 292.481 150.7 292.025 150.7 291.559C150.7 290.073 151.904 288.876 153.382 288.876C154.861 288.876 156.059 290.084 156.059 291.57H154.097V291.315C154.097 290.905 153.791 290.571 153.382 290.571C153.237 290.571 153.096 290.614 152.975 290.693C152.854 290.773 152.759 290.886 152.701 291.019C152.644 291.152 152.626 291.299 152.651 291.441C152.676 291.584 152.743 291.716 152.842 291.822C152.842 291.822 153.033 292.047 153.474 292.175C153.814 292.274 154.097 292.249 154.625 292.47C155.079 292.66 155.468 292.98 155.741 293.389C156.014 293.798 156.161 294.279 156.162 294.771C156.162 296.319 154.922 297.573 153.381 297.573C151.84 297.573 150.59 296.325 150.59 294.779H152.529C152.512 294.847 152.527 294.927 152.527 295C152.527 295.16 152.572 295.317 152.657 295.453C152.742 295.588 152.863 295.698 153.007 295.768C153.151 295.838 153.312 295.867 153.471 295.85C153.63 295.834 153.781 295.773 153.908 295.674C154.034 295.576 154.13 295.444 154.185 295.294C154.24 295.143 154.252 294.981 154.219 294.824C154.186 294.667 154.11 294.523 153.999 294.408C153.888 294.292 153.747 294.21 153.592 294.171ZM174.636 294.57C174.636 296.275 173.258 297.659 171.56 297.659C169.861 297.659 168.483 296.275 168.483 294.57V289.094H170.579V294.569C170.579 295.107 171.025 295.542 171.56 295.542C172.094 295.542 172.512 295.107 172.512 294.569V289.094H174.636V294.57ZM135.694 293.273C135.694 292.017 136.707 291 137.958 291C139.208 291 140.222 292.017 140.222 293.273C140.222 294.528 139.208 295.545 137.958 295.545C136.707 295.545 135.694 294.528 135.694 293.273ZM137.958 297.703C140.395 297.703 142.369 295.719 142.369 293.272C142.369 290.825 140.395 288.842 137.958 288.842C135.521 288.842 133.547 290.824 133.547 293.272C133.547 295.719 135.522 297.703 137.958 297.703ZM192.022 293.273C192.022 292.017 193.036 291 194.286 291C195.538 291 196.552 292.017 196.552 293.273C196.552 293.571 196.494 293.866 196.38 294.142C196.267 294.417 196.1 294.667 195.889 294.878C195.679 295.089 195.429 295.257 195.154 295.371C194.879 295.485 194.584 295.544 194.286 295.545C193.684 295.543 193.108 295.304 192.684 294.878C192.259 294.452 192.021 293.875 192.022 293.273ZM194.286 297.703C196.724 297.703 198.698 295.719 198.698 293.272C198.699 292.692 198.586 292.116 198.365 291.58C198.144 291.043 197.819 290.554 197.41 290.143C197 289.732 196.513 289.405 195.977 289.182C195.441 288.958 194.866 288.843 194.286 288.842C191.85 288.842 189.876 290.824 189.876 293.272C189.876 295.719 191.85 297.703 194.286 297.703Z" fill="white"/>
<path fill-rule="evenodd" clip-rule="evenodd" d="M139.093 280.969C139.091 280.101 139.434 279.268 140.047 278.652C140.659 278.037 141.491 277.69 142.359 277.688C143.227 277.69 144.059 278.037 144.672 278.652C145.284 279.268 145.627 280.101 145.626 280.969C145.627 281.837 145.284 282.67 144.672 283.286C144.059 283.901 143.227 284.248 142.359 284.25C141.491 284.248 140.659 283.901 140.047 283.286C139.434 282.67 139.091 281.837 139.093 280.969ZM142.359 287.361C145.876 287.361 148.725 284.5 148.725 280.969C148.725 277.439 145.875 274.576 142.359 274.576C138.844 274.576 135.994 277.438 135.994 280.969C135.994 284.5 138.844 287.361 142.359 287.361ZM179.816 280.282C179.838 280.507 179.85 280.737 179.85 280.969C179.85 284.5 177.001 287.361 173.485 287.361C169.968 287.361 167.119 284.5 167.119 280.969C167.119 277.439 169.969 274.576 173.485 274.576C174.821 274.578 176.123 274.999 177.206 275.782C178.29 276.564 179.1 277.667 179.521 278.935L176.058 278.948C175.753 278.556 175.363 278.238 174.917 278.02C174.471 277.801 173.981 277.688 173.485 277.688C172.617 277.69 171.785 278.037 171.172 278.652C170.56 279.268 170.217 280.101 170.218 280.969C170.217 281.837 170.56 282.67 171.172 283.286C171.785 283.901 172.617 284.248 173.485 284.25C174 284.246 174.507 284.121 174.965 283.885C175.423 283.648 175.818 283.307 176.119 282.889H172.737V280.257L179.816 280.282ZM158.27 282.789C158.27 285.298 156.244 287.33 153.746 287.33C151.247 287.33 149.223 285.298 149.223 282.789V274.738H152.305V282.789C152.305 283.58 152.959 284.219 153.746 284.219C154.532 284.219 155.147 283.579 155.147 282.789V274.738H158.27V282.789ZM189.395 282.789C189.395 285.298 187.369 287.33 184.872 287.33C182.374 287.33 180.349 285.298 180.349 282.789V274.738H183.432V282.789C183.432 283.58 184.087 284.219 184.873 284.219C185.66 284.219 186.274 283.579 186.274 282.789V274.738H189.397V282.789H189.395ZM197.254 274.738V277.599H193.6V279.54H197.254V282.399H193.598V284.322H197.243V287.201H190.544V274.739L197.254 274.738ZM202.488 282.341C202.01 282.226 202.089 282.246 201.676 282.157C201.263 282.068 200.351 281.726 200.351 281.726C199.722 281.454 199.186 281.003 198.81 280.429C198.435 279.856 198.235 279.185 198.235 278.5C198.235 277.453 198.651 276.45 199.391 275.71C200.131 274.97 201.135 274.555 202.181 274.555C204.354 274.555 206.117 276.331 206.117 278.514H203.233V278.143C203.233 277.539 202.781 277.049 202.181 277.049C201.968 277.049 201.76 277.111 201.582 277.228C201.404 277.345 201.264 277.512 201.179 277.707C201.094 277.903 201.069 278.119 201.105 278.329C201.141 278.539 201.239 278.733 201.384 278.889C201.384 278.889 201.665 279.22 202.316 279.407C202.816 279.553 203.232 279.516 204.01 279.843V279.841C204.678 280.121 205.249 280.591 205.651 281.193C206.053 281.795 206.268 282.502 206.27 283.226C206.27 285.502 204.446 287.346 202.181 287.346C201.641 287.346 201.107 287.24 200.609 287.034C200.11 286.827 199.657 286.524 199.276 286.143C198.894 285.761 198.592 285.308 198.386 284.809C198.18 284.31 198.075 283.776 198.075 283.236H200.927C200.903 283.337 200.925 283.453 200.925 283.562C200.925 284.258 201.486 284.824 202.181 284.824C202.874 284.824 203.438 284.259 203.438 283.562C203.439 283.282 203.346 283.009 203.174 282.788C203.001 282.566 202.76 282.409 202.488 282.341ZM127.732 274.738V287.201L132.327 287.211C132.801 287.21 133.27 287.116 133.707 286.934C134.145 286.751 134.542 286.485 134.876 286.149C135.211 285.813 135.476 285.415 135.656 284.977C135.837 284.538 135.929 284.069 135.928 283.595C135.931 282.946 135.758 282.309 135.428 281.751C135.098 281.192 134.623 280.734 134.053 280.423C134.604 280.052 135.021 279.513 135.244 278.887C135.466 278.261 135.482 277.58 135.288 276.945C135.095 276.309 134.703 275.752 134.17 275.356C133.637 274.959 132.991 274.744 132.327 274.741L127.732 274.738ZM130.82 284.332V281.959H131.988C132.293 281.972 132.581 282.101 132.792 282.321C133.004 282.542 133.122 282.835 133.122 283.141C133.122 283.446 133.004 283.74 132.792 283.96C132.581 284.181 132.293 284.311 131.988 284.324L130.82 284.332ZM131.988 277.576C132.496 277.576 132.909 277.981 132.909 278.491C132.91 278.737 132.813 278.972 132.64 279.147C132.468 279.321 132.233 279.42 131.988 279.421L130.82 279.425V277.585L131.988 277.576Z" fill="white"/>
<path fill-rule="evenodd" clip-rule="evenodd" d="M164.83 287.212V282.653L168.421 274.74H165.191L163.279 278.933L161.349 274.74H158.118L161.73 282.653V287.212H164.83Z" fill="white"/>
<path d="M1024.41 557.727C1024.41 553.512 1027.33 550.124 1031.39 550.124C1033.92 550.124 1035.37 551.033 1036.67 552.438L1035.14 554.339C1034.07 553.265 1032.92 552.521 1031.31 552.521C1028.71 552.521 1026.87 554.835 1026.87 557.727V557.81C1026.87 560.703 1028.78 563.017 1031.31 563.017C1033 563.017 1034.07 562.273 1035.22 561.116L1036.75 562.769C1035.37 564.339 1033.76 565.331 1031.23 565.331C1027.33 565.331 1024.41 561.942 1024.41 557.727Z" fill="white"/>
<path d="M1039.05 550.371H1041.5V556.487H1047.94V550.371H1050.31V565.082H1047.94V558.883H1041.5V565.082H1039.05V550.371Z" fill="white"/>
<path d="M1073.91 557.974C1075.75 557.974 1076.82 556.9 1076.82 555.33V555.247C1076.82 553.512 1075.68 552.602 1073.91 552.602H1071.08V557.892H1073.91V557.974ZM1068.7 550.371H1074.07C1077.28 550.371 1079.2 552.355 1079.2 555.247V555.33C1079.2 558.636 1076.75 560.371 1073.76 560.371H1071.08V565.082H1068.7V550.371Z" fill="white"/>
<path d="M1081.5 550.371H1084.03L1088.16 557.313L1092.3 550.371H1094.83V565.082H1092.46V554.503L1088.16 561.445H1088.09L1083.8 554.586V565.082H1081.5V550.371Z" fill="white"/>
<path d="M1113.22 550.371H1115.37L1122.65 560.536V550.371H1125.02V565.082H1123.03L1115.52 554.586V565.082H1113.22V550.371Z" fill="white"/>
<path d="M1138.05 552.768H1133.76V550.371H1144.79V552.768H1140.5V565.082H1138.05V552.768Z" fill="white"/>
<path d="M1171.07 550.371H1173.45V562.685H1180.57V565.082H1171.07V550.371Z" fill="white"/>
<path d="M1192.76 557.727C1192.76 554.835 1190.84 552.438 1188.16 552.438C1185.48 552.438 1183.56 554.752 1183.56 557.645V557.727C1183.56 560.537 1185.48 562.934 1188.16 562.934C1190.84 562.934 1192.76 560.62 1192.76 557.727ZM1181.03 557.727C1181.03 553.595 1183.94 550.124 1188.16 550.124C1192.3 550.124 1195.21 553.512 1195.21 557.645V557.727C1195.21 561.86 1192.3 565.331 1188.08 565.331C1183.87 565.331 1181.03 561.86 1181.03 557.727Z" fill="white"/>
<path d="M1057.13 559.215L1059.43 553.347L1061.81 559.215H1057.13ZM1060.58 550.289H1058.36L1052.92 563.76V565.082H1054.83L1056.21 561.529H1062.65L1064.03 565.082H1066.02V563.76L1060.58 550.289Z" fill="white"/>
<path d="M1101.65 559.215L1103.95 553.347L1106.32 559.215H1101.65ZM1105.1 550.289H1102.88L1097.44 563.76V565.082H1099.35L1100.73 561.529H1107.17L1108.55 565.082H1110.54V563.76L1105.1 550.289Z" fill="white"/>
<path d="M1148.47 559.215L1150.77 553.347L1153.14 559.215H1148.47ZM1151.92 550.289H1149.69L1144.25 563.76V565.082H1146.17L1147.55 561.529H1153.98L1155.36 565.082H1157.36V563.76L1151.92 550.289Z" fill="white"/>
<path d="M1203.64 557.645H1200.11V552.686H1203.56C1205.32 552.686 1206.4 553.513 1206.4 555.083C1206.4 556.653 1205.32 557.645 1203.64 557.645ZM1206.17 559.463C1207.62 558.885 1208.85 557.48 1208.85 555.083C1208.85 553.844 1208.46 552.686 1207.7 551.943C1206.85 551.034 1205.48 550.455 1203.79 550.455H1197.74V565.083H1200.11V559.959H1203.64L1207.01 565.083H1209V563.761L1206.17 559.463Z" fill="white"/>
<path d="M1168.31 550.371H1166.4L1162.49 556.9L1158.74 550.371H1156.67V551.693L1161.34 559.297V565.082H1163.72V559.214L1168.31 551.693V550.371Z" fill="white"/>
<path d="M973 575L985.566 535L1015.3 555.992L1013.07 565.744L973 575ZM988.325 546.901L974.686 573.595L1011.46 565.083L988.325 546.901ZM985.796 537.727L975.988 568.884L987.635 546.074L985.796 537.727ZM991.16 547.81L1012.38 564.421L1014.15 556.57L991.16 547.81ZM988.555 545.744L1011.08 554.256L986.562 536.983L988.555 545.744Z" fill="white"/>
<path d="M649.813 346.577H658.635L650.067 309.421H640.018L622.569 346.577H631.9L634.925 339.337H648.279L649.813 346.577ZM638.346 331.147L643.729 318.261H643.813L646.544 331.147H638.346Z" fill="white"/>
<path d="M685.997 337.931H659.928L658.634 346.578H684.702L685.997 337.931ZM688.97 318.065H662.902L664.196 309.421H690.264L688.97 318.065ZM683.707 332.321H660.767L662.062 323.677H685.002L683.707 332.321ZM714.724 337.051C712.237 338.201 708.525 338.389 706.705 338.389C700.836 338.389 696.95 334.378 697.147 328.417C697.357 322.122 702.106 317.61 708.556 317.61C711.607 317.61 714.291 318.619 716.699 320.657L718.484 311.761C714.8 309.587 711.709 308.696 707.848 308.696C697.169 308.696 688.356 317.61 687.984 328.808C687.625 339.67 694.673 347.303 705.141 347.303C706.961 347.303 710.899 347.113 713.383 345.964L714.724 337.051ZM736.893 308.786C746.813 309.492 752.949 317.581 751.843 328.394C750.697 339.539 741.721 347.835 731.598 347.112C721.676 346.406 715.54 338.317 716.649 327.503C717.792 316.36 726.768 308.062 736.893 308.786ZM743.018 329.298C744.366 323.016 742.031 318.122 737.291 317.154C732.083 316.083 727.346 320.08 725.917 326.719C724.566 333.002 726.9 337.895 731.64 338.867C736.853 339.931 741.589 335.936 743.018 329.298ZM793.031 346.578L792.351 309.419H783.988L773.283 330.379L768.961 309.419H760.607L749.084 346.578H758.302L764.573 324.823L768.514 346.578H773.212L784.081 324.832L783.952 346.578H793.031Z" fill="white"/>
<path d="M716.942 62.5772H698.77C696.737 62.5772 695.088 64.3126 695.088 66.4647C695.088 68.614 696.737 70.3574 698.77 70.3574L703.198 70.376L703.2 70.3732L716.942 70.376C718.977 70.376 720.629 68.6326 720.629 66.4805C720.629 64.3259 718.977 62.5772 716.942 62.5772Z" fill="white"/>
<path d="M597.125 88.5503C594.981 88.5503 593.24 86.8069 593.24 84.6549C593.24 82.5028 594.981 80.7594 597.125 80.7594H631.222C633.112 80.7594 634.17 79.8441 634.546 78.5359C634.79 77.6921 636.153 75.5082 638.908 75.5082H692.447C692.447 75.5082 692.653 75.4842 692.754 75.5824C692.844 75.6806 692.865 75.8239 692.865 75.8239V83.2512C692.865 83.2512 692.818 83.4661 692.704 83.5325C692.524 83.636 692.349 83.6094 692.349 83.6094L677.808 83.5854C676.048 83.5854 674.521 84.9415 674.521 86.7035V136.075C674.521 136.075 674.521 138.607 672.454 139.989C672.454 139.989 657.162 149.868 656.246 150.492C655.489 151.015 653.737 151.731 652.183 150.598C651.08 149.794 650.947 147.905 650.947 147.905V87.4862C650.947 84.5196 649.177 83.5961 647.028 83.5961L639.884 83.5935C637.717 83.575 636.939 84.4107 636.568 85.7189C636.325 86.5627 635.2 88.5344 632.302 88.5344H630.19C628.779 88.5344 627.646 89.686 627.646 91.095V139.899C627.646 139.899 627.723 143.961 625.503 147.225C623.716 149.852 619.616 152.233 619.616 152.233L602.585 163.584C602.585 163.584 595.672 168.382 587.902 165.503C582.047 163.332 581.094 159.424 581.735 155.902C582.375 152.389 586.515 150.325 589.077 150.468C592.239 150.643 594.786 151.736 596.305 155.478C597.567 158.58 598.546 159.636 600.137 159.745C601.733 159.853 603.218 157.717 603.218 153.771C603.218 149.826 603.218 91.0658 603.218 91.0658C603.218 89.686 602.104 88.5636 600.725 88.5636L597.125 88.5503Z" fill="white"/>
<path d="M716.942 62.5772H698.77C696.737 62.5772 695.088 64.3126 695.088 66.4647C695.088 68.614 696.737 70.3574 698.77 70.3574L703.198 70.376L703.2 70.3732L716.942 70.376C718.977 70.376 720.629 68.6326 720.629 66.4805C720.629 64.3259 718.977 62.5772 716.942 62.5772Z" fill="white"/>
<path d="M597.125 88.5503C594.981 88.5503 593.24 86.8069 593.24 84.6549C593.24 82.5028 594.981 80.7594 597.125 80.7594H631.222C633.112 80.7594 634.17 79.8441 634.546 78.5359C634.79 77.6921 636.153 75.5082 638.908 75.5082H692.447C692.447 75.5082 692.653 75.4842 692.754 75.5824C692.844 75.6806 692.865 75.8239 692.865 75.8239V83.2512C692.865 83.2512 692.818 83.4661 692.704 83.5325C692.524 83.636 692.349 83.6094 692.349 83.6094L677.808 83.5854C676.048 83.5854 674.521 84.9415 674.521 86.7035V136.075C674.521 136.075 674.521 138.607 672.454 139.989C672.454 139.989 657.162 149.868 656.246 150.492C655.489 151.015 653.737 151.731 652.183 150.598C651.08 149.794 650.947 147.905 650.947 147.905V87.4862C650.947 84.5196 649.177 83.5961 647.028 83.5961L639.884 83.5935C637.717 83.575 636.939 84.4107 636.568 85.7189C636.325 86.5627 635.2 88.5344 632.302 88.5344H630.19C628.779 88.5344 627.646 89.686 627.646 91.095V139.899C627.646 139.899 627.723 143.961 625.503 147.225C623.716 149.852 619.616 152.233 619.616 152.233L602.585 163.584C602.585 163.584 595.672 168.382 587.902 165.503C582.047 163.332 581.094 159.424 581.735 155.902C582.375 152.389 586.515 150.325 589.077 150.468C592.239 150.643 594.786 151.736 596.305 155.478C597.567 158.58 598.546 159.636 600.137 159.745C601.733 159.853 603.218 157.717 603.218 153.771C603.218 149.826 603.218 91.0658 603.218 91.0658C603.218 89.686 602.104 88.5636 600.725 88.5636L597.125 88.5503Z" fill="white"/>
<path d="M719.676 75.5294V122.247C719.676 122.247 719.668 124.782 717.601 126.159C717.601 126.159 702.306 136.043 701.396 136.664C700.639 137.187 698.884 137.906 697.336 136.773C696.227 135.966 696.102 134.077 696.102 134.077V75.5294H719.676Z" fill="white"/>
<path fill-rule="evenodd" clip-rule="evenodd" d="M1130.91 307.875H1120.39L1106.23 328.725H1106.11V307.875H1097.29V352.295H1106.11V330.5H1106.23L1120.21 352.295H1131.2L1115.69 329.198L1130.91 307.875ZM1155.47 348.322H1155.58V352.279H1163.75C1163.52 351.158 1163.34 350.095 1163.34 348.5V330.896C1163.34 323.928 1157.11 321.089 1149.65 321.089C1139.07 321.089 1135.78 327.058 1135.49 331.724H1143.59C1143.77 329.009 1145.83 327.238 1149.3 327.238C1153 327.238 1155.23 329.009 1155.23 332.612V334.028L1147.42 334.502C1135.6 335.209 1134.54 340.585 1134.54 343.831C1134.54 350.742 1140.36 353.105 1145.12 353.105C1148.65 353.105 1152.64 352.044 1155.47 348.322ZM1148.18 339.697L1155.23 339.045V341.829C1155.23 345.487 1150.94 346.963 1148.3 346.963C1145.48 346.963 1143.01 346.139 1143.01 343.421C1143.01 341.234 1144.3 340.054 1148.18 339.697ZM1169.6 352.295H1178.07V307.875H1169.6V352.295ZM1198.62 346.61C1194.09 346.61 1191.92 343.065 1191.56 339.525H1213.66V337.162C1213.66 327.355 1207.31 321.089 1198.21 321.089C1189.1 321.089 1182.75 327.355 1182.75 337.162C1182.75 346.846 1189.1 353.105 1198.21 353.105C1205.32 353.105 1210.84 349.861 1212.9 343.657L1204.67 343.007C1203.5 345.37 1201.2 346.61 1198.62 346.61ZM1198.62 327.591C1202.67 327.591 1204.91 331.134 1205.2 334.088H1191.56C1192.04 330.665 1194.21 327.591 1198.62 327.591Z" fill="white"/>
<path fill-rule="evenodd" clip-rule="evenodd" d="M1089.38 307.875H1085.73V310.3H1082.05V307.875H1078.37V310.3H1074.69V307.875H1071.01L1071 326.327H1089.38V307.875Z" fill="white"/>
<g clip-path="url(#clip0_691_704)">
<path d="M872.264 134.427H882.362V129.614H872.264V122.694H883.002V117.88H867.073V147.365H883.571V142.475H872.264V134.427Z" fill="white"/>
<path d="M902.558 130.366C902.558 132.848 902.558 135.18 902.7 137.511C901.918 135.932 900.994 134.277 899.856 132.321L891.251 117.88H886.202V147.364H891.109V134.653C891.109 131.795 891.109 129.463 891.038 127.282C891.891 128.937 892.958 130.817 894.238 132.998L902.771 147.44H907.536V117.88H902.558V130.366Z" fill="white"/>
<path d="M918.843 117.88L909.314 147.365H914.647L917.349 138.715H925.314L928.087 147.365H933.563L924.105 117.88H918.843ZM924.105 134.051H918.7L920.834 127.282C921.047 126.68 921.189 126.078 921.332 125.477C921.474 126.078 921.687 126.68 921.901 127.357L924.105 134.051Z" fill="white"/>
<path d="M940.461 117.88H935.27V147.365H940.461V117.88Z" fill="white"/>
<path d="M953.617 129.914C950.061 128.485 948.994 127.432 948.994 125.477C948.994 123.972 950.061 122.243 953.048 122.243C955.039 122.243 956.603 122.844 957.528 123.446L958.452 124.048L959.946 119.309L959.306 118.933C957.812 117.955 955.537 117.429 953.119 117.429C947.643 117.429 943.803 120.889 943.803 125.853C943.803 129.764 946.221 132.622 951.27 134.578C954.897 136.007 955.608 137.361 955.608 139.166C955.608 141.498 953.901 142.927 951.057 142.927C949.065 142.927 947.074 142.325 945.51 141.272L944.514 140.595L943.092 145.409L943.661 145.785C945.297 146.913 948.212 147.741 950.843 147.741C957.741 147.741 960.799 143.228 960.799 138.79C960.799 134.653 958.666 131.945 953.617 129.914Z" fill="white"/>
<path d="M972.675 129.914C969.119 128.485 968.052 127.432 968.052 125.477C968.052 123.972 969.119 122.243 972.106 122.243C974.097 122.243 975.733 122.844 976.586 123.446L977.51 124.048L979.004 119.309L978.364 118.933C976.87 117.955 974.595 117.429 972.177 117.429C966.701 117.429 962.861 120.889 962.861 125.853C962.861 129.764 965.279 132.622 970.328 134.578C973.955 136.007 974.666 137.361 974.666 139.166C974.666 141.498 972.959 142.927 970.115 142.927C968.195 142.927 966.132 142.325 964.568 141.272L963.572 140.595L962.15 145.409L962.719 145.785C964.355 146.913 967.27 147.741 969.901 147.741C976.799 147.741 979.857 143.228 979.857 138.79C979.857 134.653 977.724 131.945 972.675 129.914Z" fill="white"/>
<path d="M989.955 117.88L980.426 147.365H985.76L988.462 138.715H996.427L999.2 147.365H1004.68L995.218 117.88H989.955ZM995.218 134.051H989.813L991.946 127.282C992.16 126.68 992.302 126.078 992.444 125.477C992.586 126.078 992.8 126.68 993.013 127.357L995.218 134.051Z" fill="white"/>
<path d="M1022.88 130.366C1022.88 132.848 1022.88 135.18 1023.02 137.511C1022.24 135.932 1021.24 134.202 1020.18 132.321L1011.5 117.88H1006.45V147.364H1011.36V134.653C1011.36 131.795 1011.36 129.463 1011.29 127.282C1012.14 128.937 1013.21 130.817 1014.49 132.998L1023.02 147.44H1027.79V117.88H1022.88V130.366Z" fill="white"/>
<path d="M1045 122.243C1047.49 122.243 1049.12 122.919 1049.83 123.296L1050.76 123.822L1052.11 119.159L1051.47 118.783C1050.9 118.482 1048.77 117.429 1044.85 117.429C1036.18 117.429 1030.35 123.596 1030.35 132.848C1030.35 141.949 1035.75 147.816 1044.07 147.816C1047.56 147.816 1050.12 147.064 1051.4 146.387L1052.04 146.086L1050.97 141.423L1049.97 141.949C1048.69 142.626 1046.7 143.002 1044.85 143.002C1039.16 143.002 1035.75 139.166 1035.75 132.848C1035.68 126.154 1039.16 122.243 1045 122.243Z" fill="white"/>
<path d="M1059.5 142.475V134.427H1069.6V129.614H1059.5V122.694H1070.24V117.88H1054.31V147.365H1070.81V142.475H1059.5Z" fill="white"/>
<path d="M861.668 175.947C860.602 176.549 858.397 177.075 855.553 177.075C849.01 177.075 844.175 172.713 844.175 164.665C844.175 156.993 849.081 151.803 856.264 151.803C859.108 151.803 860.957 152.48 861.739 152.856L860.957 155.413C859.89 154.811 858.255 154.435 856.335 154.435C850.93 154.435 847.304 158.121 847.304 164.514C847.304 170.531 850.575 174.367 856.122 174.367C857.97 174.367 859.819 173.991 861.028 173.39L861.668 175.947Z" fill="white"/>
<path d="M884.496 164.213C884.496 172.562 879.66 177.075 873.758 177.075C867.642 177.075 863.375 172.036 863.375 164.665C863.375 156.917 867.926 151.803 874.042 151.803C880.371 151.878 884.496 156.993 884.496 164.213ZM866.504 164.589C866.504 169.855 869.206 174.518 873.9 174.518C878.664 174.518 881.295 169.93 881.295 164.364C881.295 159.475 878.878 154.36 873.9 154.36C868.922 154.36 866.504 159.249 866.504 164.589Z" fill="white"/>
<path d="M888.336 176.699V152.254H891.607L899.003 164.664C900.709 167.523 902.06 170.08 903.127 172.637H903.198C902.914 169.403 902.843 166.394 902.843 162.634V152.254H905.687V176.699H902.7L895.376 164.288C893.74 161.581 892.247 158.798 891.109 156.165H891.038C891.18 159.249 891.251 162.182 891.251 166.244V176.699H888.336Z" fill="white"/>
<path d="M910.523 172.863C911.874 173.766 913.794 174.443 915.856 174.443C918.914 174.443 920.692 172.713 920.692 170.306C920.692 168.049 919.483 166.695 916.354 165.492C912.585 164.063 910.238 161.957 910.238 158.497C910.238 154.661 913.225 151.878 917.705 151.878C920.052 151.878 921.758 152.48 922.754 153.081L921.901 155.639C921.19 155.187 919.625 154.51 917.563 154.51C914.434 154.51 913.225 156.466 913.225 158.196C913.225 160.453 914.647 161.581 917.847 162.935C921.758 164.514 923.678 166.545 923.678 170.08C923.678 173.841 921.047 177.15 915.643 177.15C913.438 177.15 910.949 176.398 909.74 175.571L910.523 172.863Z" fill="white"/>
<path d="M932.141 154.962H925.101V152.254H942.168V154.962H935.128V176.699H932.141V154.962Z" fill="white"/>
<path d="M944.799 152.63C946.292 152.329 948.497 152.104 950.488 152.104C953.688 152.104 955.75 152.78 957.173 154.134C958.31 155.187 959.021 156.917 959.021 158.798C959.021 161.957 957.315 164.439 954.826 165.342C953.332 165.868 951.91 165.793 951.91 165.793C951.91 165.793 960.444 175.872 960.941 176.774H956.746C956.39 176.022 947.786 166.169 947.786 166.169V176.774H944.799V152.63ZM947.786 163.762H950.844C954.044 163.762 956.035 161.882 956.035 159.099C956.035 155.94 953.901 154.586 950.701 154.586C949.279 154.586 948.283 154.661 947.786 154.811V163.762Z" fill="white"/>
<path d="M967.128 169.027L964.71 176.699H961.652L969.546 152.254H973.101L980.995 176.699H977.795L975.306 169.027H967.128ZM974.737 166.545L972.461 159.55C971.964 157.97 971.608 156.541 971.253 155.112H971.181C970.826 156.541 970.47 158.046 970.044 159.55L967.768 166.62H974.737V166.545Z" fill="white"/>
<path d="M999.911 175.947C998.844 176.549 996.639 177.075 993.795 177.075C987.253 177.075 982.417 172.713 982.417 164.665C982.417 156.993 987.324 151.803 994.506 151.803C997.351 151.803 999.2 152.48 999.982 152.856L999.2 155.413C998.133 154.811 996.497 154.435 994.577 154.435C989.173 154.435 985.546 158.121 985.546 164.514C985.546 170.531 988.817 174.367 994.364 174.367C996.213 174.367 998.062 173.991 999.271 173.39L999.911 175.947Z" fill="white"/>
<path d="M1009.01 154.962H1001.97V152.254H1019.04V154.962H1012.07V176.699H1009.08V154.962H1009.01Z" fill="white"/>
<path d="M1024.66 152.254V176.699H1021.67V152.254H1024.66Z" fill="white"/>
<path d="M1049.62 164.213C1049.62 172.562 1044.78 177.075 1038.88 177.075C1032.77 177.075 1028.5 172.036 1028.5 164.665C1028.5 156.917 1033.05 151.803 1039.17 151.803C1045.49 151.878 1049.62 156.993 1049.62 164.213ZM1031.63 164.589C1031.63 169.855 1034.33 174.518 1039.02 174.518C1043.72 174.518 1046.42 169.93 1046.42 164.364C1046.42 159.475 1044 154.36 1039.02 154.36C1034.12 154.435 1031.63 159.249 1031.63 164.589Z" fill="white"/>
<path d="M1053.46 176.699V152.254H1056.73L1064.13 164.589C1065.83 167.447 1067.18 170.005 1068.25 172.562H1068.32C1068.04 169.328 1067.97 166.319 1067.97 162.558V152.254H1070.81V176.699H1067.82L1060.43 164.288C1058.79 161.581 1057.3 158.798 1056.16 156.165H1056.09C1056.23 159.249 1056.3 162.182 1056.3 166.244V176.699H1053.46Z" fill="white"/>
<path d="M854.486 133.826C855.197 133.751 856.193 133.676 857.259 133.3C860.531 132.096 862.664 128.787 862.664 124.875C862.664 122.468 861.811 120.212 860.317 118.783C858.468 117.053 855.766 116.226 851.855 116.226C849.508 116.226 846.806 116.451 844.744 116.827L844.388 116.903V147.365H848.939V135.105C853.135 139.919 859.251 147.365 859.251 147.365H865.722C865.651 147.365 856.904 136.684 854.486 133.826ZM858.113 125.251C858.113 128.411 855.766 130.517 852.139 130.517H848.868V120.362C849.366 120.287 850.362 120.137 852.068 120.137C854.842 120.137 858.113 121.039 858.113 125.251Z" fill="white"/>
<path d="M772.067 119.384C775.693 117.955 779.462 117.203 783.302 116.752C800.441 115.172 815.303 117.579 822.699 123.822C826.894 127.432 827.677 133.901 824.192 138.339C823.623 139.166 822.841 139.768 822.13 140.37C816.227 144.206 808.974 144.582 796.6 146.011C794.112 146.011 791.836 146.387 789.56 146.989C789.56 147.365 808.405 157.444 811.818 159.249C815.801 161.505 839.623 175.42 840.406 176.398C840.761 177 837.348 176.398 836.566 176.022C832.37 173.841 827.819 171.208 827.392 172.186C827.037 173.164 829.454 175.195 827.748 175.195C826.965 175.195 813.454 168.124 811.961 167.372C810.467 166.545 807.552 164.965 806.983 166.169C806.414 167.372 807.765 169.629 806.627 169.403C797.454 165.191 788.565 160.528 779.96 155.338C774.129 151.05 772.636 145.033 776.405 141.573C782.52 135.932 790.271 136.91 801.152 135.33C805.134 134.728 811.605 133.751 811.605 130.065C811.463 123.07 804.778 121.265 790.343 119.61C786.147 119.008 781.951 119.234 777.969 119.836C776.405 120.061 777.4 119.234 774.911 119.61C773.773 119.836 772.778 120.061 771.64 119.836" fill="white"/>
</g>
<g clip-path="url(#clip1_691_704)">
<path fill-rule="evenodd" clip-rule="evenodd" d="M339.557 445.564L337.86 439.706H337.805L335.975 445.564H339.555H339.557ZM334.967 433.342H340.668L347.563 452.355H341.516L340.719 449.64H334.702L333.855 452.355H327.994L334.967 433.342ZM352.84 445.964C352.84 446.444 352.918 446.87 353.051 447.216C353.476 448.361 354.748 448.603 355.835 448.603C356.79 448.603 358.248 448.281 358.248 446.87C358.248 445.896 357.426 445.631 354.165 444.686C351.17 443.845 347.746 443.019 347.746 439.182C347.746 434.794 351.487 432.896 355.385 432.896C359.495 432.896 363.126 434.472 363.287 439.106H357.771C357.878 438.387 357.559 437.91 357.081 437.59C356.604 437.243 355.942 437.111 355.359 437.111C354.562 437.111 353.263 437.326 353.263 438.39C353.367 439.748 356.067 440.043 358.753 440.789C361.424 441.536 364.08 442.787 364.08 446.276C364.08 451.229 359.535 452.827 355.329 452.827C353.175 452.827 347.051 452.054 346.992 445.983H352.827M369.644 438.222H364.347V433.348H380.788V438.222H375.485V452.358H369.65V438.219M388.107 441.654H391.156C392.243 441.654 393.728 441.467 393.728 439.762C393.728 438.564 393.078 437.874 390.85 437.874H388.12V441.654H388.107ZM382.272 433.346H393.384C396.698 433.346 399.562 435.182 399.562 438.777C399.562 440.748 398.659 442.824 396.725 443.543C398.314 444.157 399.297 445.914 399.508 448.284C399.587 449.214 399.614 451.471 400.145 452.357H394.31C394.018 451.398 393.912 450.409 393.832 449.42C393.674 447.608 393.515 445.719 391.209 445.719H388.107V452.358H382.272V433.342V433.346ZM410.3 448.073C411.785 448.073 414.066 447.084 414.066 442.852C414.066 438.617 411.785 437.633 410.3 437.633C408.816 437.633 406.534 438.622 406.534 442.857C406.534 447.092 408.816 448.076 410.3 448.076V448.073ZM410.3 432.893C416.055 432.893 419.899 437.04 419.899 442.854C419.899 448.653 416.054 452.802 410.3 452.802C404.545 452.802 400.701 448.647 400.701 442.842C400.701 437.037 404.545 432.885 410.3 432.885V432.893ZM421.727 433.336H427.695L433.21 443.509H433.262V433.338H438.781V452.358H433.104L427.296 441.97H427.243V452.355H421.727V433.342M329.109 427.376L384.017 362.42L437.67 427.376H416.725L416.017 401.509L383.634 390.014L350.684 402.084L350.182 427.376M323.055 347.229H443.771V468H323.055V347.229Z" fill="white"/>
</g>
<path d="M1020.61 353.107H885.334V217.832H1020.61V353.107ZM1021.99 216.451H883.954V354.488H1021.99V216.451Z" fill="white"/>
<path d="M917.055 314.513L910.871 331.022H916.393L917.11 328.841H922.825L923.543 331.022H929.064L922.908 314.513H917.055ZM918.38 324.893L919.54 321.387C919.705 320.78 919.871 320.117 919.982 319.261C920.092 320.117 920.258 320.78 920.451 321.387L921.61 324.893H918.38Z" fill="white"/>
<path d="M935.69 314.513H930.224V331.022H942.73V326.246H935.69V314.513Z" fill="white"/>
<path d="M951.371 314.513H944.249V331.022H951.371C957.279 331.022 959.929 327.599 959.929 322.767C959.957 317.936 957.307 314.513 951.371 314.513ZM951.233 326.439H949.687V319.068H951.233C953.166 319.068 954.353 320.062 954.353 322.74C954.353 325.445 953.166 326.439 951.233 326.439Z" fill="white"/>
<path d="M965.782 314.513L959.626 331.022H965.147L965.865 328.841H971.58L972.297 331.022H977.819L971.663 314.513H965.782ZM967.107 324.893L968.267 321.387C968.432 320.78 968.598 320.117 968.709 319.261C968.819 320.117 968.985 320.78 969.178 321.387L970.337 324.893H967.107Z" fill="white"/>
<path d="M990.822 325.252C992.479 324.424 993.666 322.905 993.666 320.338C993.666 315.838 990.16 314.513 986.626 314.513H978.951V331.022H984.39V326.135H985.66L989.055 331.022H995.046L990.822 325.252ZM986.515 322.05H984.417V318.957H986.515C987.564 318.957 988.199 319.592 988.199 320.503C988.199 321.415 987.592 322.05 986.515 322.05Z" fill="white"/>
<path d="M994.632 238.537H977.902V269.209H994.632V238.537Z" fill="white"/>
<path d="M984.003 293.172C984.003 295.878 981.684 295.85 980.111 295.85H972.353V309.433H994.604V283.123C994.604 283.123 991.485 276.746 983.893 271.639L973.982 281.439C974.009 281.384 984.003 286.574 984.003 293.172Z" fill="white"/>
<path d="M933.896 260.817C933.896 251.927 939.61 245.605 939.61 245.605L951.012 251.982C945.574 258.829 946.733 265.924 953.055 265.924C959.377 265.924 959.184 260.154 959.184 259.464V238.51H972.712V260.458C972.712 269.927 965.064 279.81 953.221 279.81C942.564 279.838 933.896 271.197 933.896 260.817Z" fill="white"/>
<path d="M934.337 273.985H928.512V280.501C928.512 295.353 920.341 296.651 915.62 296.596H911.23V309.461H933.04C940.577 304.105 944.58 295.077 945.132 282.212C940.77 280.584 937.043 277.685 934.337 273.985Z" fill="white"/>
<path d="M953.221 283.62C952.282 283.62 951.371 283.565 950.46 283.455V309.405H967.163V279.01C963.27 281.909 958.439 283.62 953.221 283.62Z" fill="white"/>
<g clip-path="url(#clip2_691_704)">
<path fill-rule="evenodd" clip-rule="evenodd" d="M1227.44 73.4463C1227.44 73.4463 1211.12 90.5272 1211.12 123.552C1211.12 156.576 1225.54 177.832 1225.54 177.832L1172.78 124.311L1227.44 73.4463Z" fill="white"/>
<path fill-rule="evenodd" clip-rule="evenodd" d="M1236.17 125.07C1237.64 90.9395 1245.79 69.254 1266.65 70.1529C1287.51 71.0518 1290.58 87.9012 1290.58 87.9012C1290.58 87.9012 1275.46 86.1103 1274.76 102.417C1274.06 118.724 1289.98 119.41 1290.36 119.426C1290.74 119.442 1305.47 118.161 1309.05 106.85C1313.86 91.6434 1302.98 74.9637 1302.98 74.9637L1355.36 126.208L1301.46 178.212C1301.46 178.212 1308.29 165.304 1306.77 147.086C1305.79 135.262 1290.45 133.041 1290.07 133.041C1289.69 133.041 1273.75 133.041 1273.75 149.363C1273.75 165.685 1288.93 164.545 1288.93 164.545C1288.93 164.545 1285.14 181.248 1264.26 181.248C1243.38 181.25 1236.17 159.232 1236.17 125.07ZM1173.96 206.644C1175.89 203.681 1179.31 202.125 1182.84 202.125C1185.42 202.125 1187.58 202.922 1189.33 204.822L1189.41 204.746C1189.22 203.304 1190.24 202.279 1191.76 202.279C1193.2 202.279 1194.19 203.266 1194.19 204.708C1194.19 205.998 1193.89 207.253 1193.89 208.542C1193.89 209.569 1194.19 210.591 1194.19 211.617C1194.19 213.364 1192.56 214.237 1191 214.237C1188.95 214.237 1188.04 213.288 1188.11 211.239C1188.15 210.137 1188.15 209.606 1187.43 208.733C1186.63 207.783 1185.38 207.555 1184.21 207.555C1180.67 207.555 1178.93 209.797 1178.93 215.985C1178.93 221.791 1180.67 224.184 1184.4 224.184C1185.42 224.184 1186.56 224.032 1187.32 223.311C1188.23 222.475 1188.27 221.64 1188.27 220.501C1188.27 219.627 1188.27 218.945 1188.76 218.185C1189.25 217.426 1190.16 217.121 1191.08 217.121C1193.54 217.121 1194.64 218.906 1194.64 221.183C1194.64 226.916 1189.22 229.573 1184.13 229.573C1180.67 229.573 1177.33 228.586 1174.9 225.966C1172.63 223.499 1171.64 219.362 1171.64 216.059C1171.64 213.06 1172.29 209.186 1173.96 206.644ZM1204.13 213.969C1204.13 215.715 1202.46 216.513 1200.87 216.513C1199.01 216.513 1197.37 215.185 1197.37 213.248C1197.37 210.856 1199.8 208.693 1205.65 208.693C1207.55 208.693 1210.13 208.883 1211.8 209.832C1213.81 210.97 1214.23 212.793 1214.23 215.677V222.814C1214.23 224.295 1214.46 224.6 1214.87 224.6C1215.18 224.6 1215.48 224.524 1215.79 224.524C1217 224.524 1217.68 225.55 1217.68 226.65C1217.68 228.776 1215.56 229.574 1213.77 229.574C1212.03 229.574 1210.09 228.93 1209.45 227.145C1207.66 228.853 1205.35 229.574 1202.95 229.574C1199.5 229.574 1196.2 227.751 1196.2 223.88C1196.2 214.882 1207.97 219.551 1207.97 214.541C1207.97 213.096 1206.64 212.414 1205.38 212.414C1204.74 212.414 1204.13 212.529 1204.13 213.288L1204.13 213.969ZM1207.96 220.384C1206.86 221.561 1202.46 220.99 1202.46 223.004C1202.46 224.331 1203.52 224.789 1204.62 224.789C1206.86 224.789 1207.96 223.459 1207.96 221.22V220.384ZM1226.79 213.742H1226.86C1227.47 210.629 1229.79 208.883 1232.97 208.883C1235.63 208.883 1237.98 210.894 1237.98 213.628C1237.98 215.564 1236.77 217.348 1234.72 217.348C1233.28 217.348 1232.06 216.398 1232.06 214.88C1232.06 214.35 1232.29 213.854 1232.52 213.4C1228.27 213.095 1228.15 218.867 1228.15 221.903C1228.15 224.144 1228.38 224.561 1228.83 224.561C1229.03 224.561 1229.21 224.485 1229.4 224.408C1229.63 224.332 1229.86 224.293 1230.09 224.293C1231.34 224.293 1231.76 225.32 1231.76 226.459C1231.76 227.902 1231.11 229.077 1229.86 229.077C1227.81 229.077 1226.29 228.698 1224.74 228.698C1223.29 228.698 1221.85 229.077 1220.48 229.077C1219.23 229.077 1218.59 227.902 1218.59 226.459C1218.59 225.32 1219 224.293 1220.26 224.293C1220.52 224.293 1220.71 224.369 1220.94 224.408C1221.13 224.446 1221.32 224.561 1221.51 224.561C1221.97 224.561 1222.19 224.182 1222.19 221.903V216.436C1222.19 214.082 1222 213.781 1221.51 213.781C1221.13 213.781 1220.75 214.045 1220.26 214.045C1219 214.045 1218.59 213.018 1218.59 211.881C1218.59 210.439 1219.23 209.261 1220.48 209.261C1221.59 209.261 1222.35 209.642 1223.1 209.642C1223.94 209.642 1224.74 209.261 1225.61 209.261C1226.45 209.261 1226.79 209.527 1226.79 210.894V213.742Z" fill="white"/>
<path fill-rule="evenodd" clip-rule="evenodd" d="M1245.38 213.742H1245.45C1246.06 210.629 1248.38 208.883 1251.57 208.883C1254.22 208.883 1256.58 210.894 1256.58 213.628C1256.58 215.564 1255.36 217.348 1253.31 217.348C1251.87 217.348 1250.65 216.398 1250.65 214.88C1250.65 214.349 1250.88 213.854 1251.11 213.4C1246.86 213.095 1246.74 218.867 1246.74 221.903C1246.74 224.144 1246.97 224.56 1247.43 224.56C1247.62 224.56 1247.81 224.485 1248 224.408C1248.22 224.332 1248.45 224.293 1248.68 224.293C1249.93 224.293 1250.35 225.319 1250.35 226.459C1250.35 227.901 1249.7 229.077 1248.45 229.077C1246.4 229.077 1244.88 228.698 1243.33 228.698C1241.88 228.698 1240.44 229.077 1239.08 229.077C1237.82 229.077 1237.18 227.901 1237.18 226.459C1237.18 225.319 1237.6 224.293 1238.85 224.293C1239.11 224.293 1239.3 224.369 1239.53 224.408C1239.72 224.446 1239.91 224.56 1240.1 224.56C1240.56 224.56 1240.78 224.182 1240.78 221.903V216.436C1240.78 214.082 1240.59 213.781 1240.1 213.781C1239.72 213.781 1239.34 214.044 1238.85 214.044C1237.6 214.044 1237.18 213.018 1237.18 211.881C1237.18 210.439 1237.82 209.261 1239.08 209.261C1240.18 209.261 1240.94 209.642 1241.7 209.642C1242.53 209.642 1243.33 209.261 1244.2 209.261C1245.04 209.261 1245.38 209.527 1245.38 210.894V213.742ZM1263.52 220.196C1262.54 220.196 1262.42 220.346 1262.42 220.99C1262.42 223.156 1264.13 224.787 1266.33 224.787C1267.66 224.787 1268.35 224.445 1269.41 223.307C1270.62 222.015 1271.04 221.787 1272.29 221.787C1273.77 221.787 1274.91 222.661 1274.91 224.181C1274.91 227.066 1271.19 229.571 1266.26 229.571C1260.03 229.571 1256.16 225.394 1256.16 219.245C1256.16 213.246 1259.88 208.691 1266.1 208.691C1271.95 208.691 1275.25 212.185 1275.25 217.803C1275.25 219.547 1275.02 220.194 1272.75 220.194L1263.52 220.196ZM1268.04 215.982C1268.91 215.982 1268.99 215.754 1268.99 215.338C1268.99 214.312 1268.04 212.984 1266.14 212.984C1264.21 212.984 1262.61 214.464 1262.61 215.451C1262.61 215.944 1263.1 215.982 1264.21 215.982H1268.04ZM1279.87 214.956C1279.87 213.476 1279.76 213.476 1278.58 213.476C1277.1 213.476 1276.27 213.133 1276.27 211.465C1276.27 209.909 1276.84 209.223 1278.39 209.223C1279.84 209.223 1279.87 209.073 1279.91 207.971C1280.06 203.834 1283.63 202.124 1287.39 202.124C1288.64 202.124 1290.2 202.352 1291.3 202.921C1292.59 203.604 1293.58 204.82 1293.58 206.3C1293.58 207.97 1292.44 209.26 1290.73 209.26C1289.48 209.26 1288.15 208.386 1288.15 207.021C1288.15 206.605 1288.26 206.376 1288.49 205.995C1288.23 205.88 1288.04 205.842 1287.73 205.842C1286.33 205.842 1285.84 206.678 1285.84 208.008C1285.84 209.222 1285.91 209.222 1287.13 209.222C1289.4 209.222 1289.82 209.831 1289.82 211.273C1289.82 213.017 1289.33 213.475 1286.63 213.475C1285.95 213.475 1285.84 213.929 1285.84 214.955V221.902C1285.84 224.181 1285.99 224.559 1286.52 224.559C1286.75 224.559 1286.94 224.484 1287.13 224.407C1287.32 224.369 1287.54 224.292 1287.77 224.292C1289.02 224.292 1289.44 225.318 1289.44 226.458C1289.44 227.9 1288.8 229.075 1287.2 229.075C1285.57 229.075 1284.05 228.697 1282.5 228.697C1281.05 228.697 1279.61 229.038 1278.36 229.075C1276.92 229.075 1276.27 227.9 1276.27 226.458C1276.27 225.318 1276.69 224.292 1277.94 224.292C1278.21 224.292 1278.43 224.368 1278.62 224.407C1278.85 224.482 1279.04 224.559 1279.19 224.559C1279.8 224.559 1279.88 223.762 1279.88 221.902V214.956H1279.87Z" fill="white"/>
<path fill-rule="evenodd" clip-rule="evenodd" d="M1310.29 218.903C1310.29 225.204 1307.1 229.572 1300.46 229.572C1293.85 229.572 1290.32 225.624 1290.32 219.132C1290.32 212.679 1293.85 208.693 1300.42 208.693C1306.64 208.692 1310.29 212.792 1310.29 218.903ZM1296.58 219.132C1296.58 223.535 1298.56 224.789 1300.11 224.789C1301.44 224.789 1302.58 224.409 1303.19 223.157C1303.76 221.979 1304.02 220.422 1304.02 219.132C1304.02 214.728 1302.35 213.476 1300.3 213.476C1298.52 213.476 1296.58 214.88 1296.58 219.132ZM1319.01 220.422C1319.01 221.219 1319.01 222.549 1319.47 223.309C1319.7 223.665 1320.01 223.959 1320.38 224.164C1320.75 224.369 1321.17 224.479 1321.59 224.484C1322.14 224.482 1322.68 224.341 1323.15 224.076C1323.63 223.811 1324.03 223.429 1324.32 222.966C1325.12 221.752 1325.2 220.46 1325.2 219.057V216.437C1325.2 214.388 1325.05 213.782 1324.51 213.782C1324.32 213.782 1324.14 213.855 1323.95 213.896C1323.72 213.97 1323.53 214.046 1323.26 214.046C1322.01 214.046 1321.59 213.02 1321.59 211.883C1321.59 210.441 1322.24 209.263 1323.91 209.263C1325.16 209.263 1326 209.644 1327.25 209.644C1328.27 209.644 1328.99 209.263 1329.94 209.263C1330.93 209.263 1331.16 209.682 1331.16 210.517V221.905C1331.16 224.184 1331.42 224.562 1331.84 224.562C1332.22 224.562 1332.6 224.296 1333.1 224.296C1334.35 224.296 1334.77 225.323 1334.77 226.462C1334.77 227.905 1334.12 229.08 1332.53 229.08C1331.58 229.08 1330.7 228.701 1329.83 228.701C1328.99 228.701 1328.16 229.08 1327.44 229.08C1326.49 229.08 1326.07 228.435 1326.07 227.828V226.31H1326C1324.59 228.396 1321.86 229.575 1319.32 229.575C1315.41 229.575 1313.05 227.298 1313.05 223.462V216.439C1313.05 214.123 1312.79 213.784 1312.37 213.784C1312.18 213.784 1311.99 213.857 1311.8 213.899C1311.57 213.972 1311.38 214.049 1311.12 214.049C1309.86 214.049 1309.45 213.023 1309.45 211.885C1309.45 210.443 1310.09 209.265 1311.88 209.265C1313.09 209.265 1314.08 209.646 1315.33 209.646C1316.51 209.646 1317.08 209.265 1318.03 209.265C1319.01 209.265 1319.01 209.987 1319.01 210.974V220.422H1319.01Z" fill="white"/>
<path fill-rule="evenodd" clip-rule="evenodd" d="M1342.54 213.741H1342.62C1343.22 210.628 1345.54 208.882 1348.73 208.882C1351.39 208.882 1353.74 210.893 1353.74 213.627C1353.74 215.563 1352.53 217.347 1350.47 217.347C1349.03 217.347 1347.82 216.397 1347.82 214.879C1347.82 214.348 1348.04 213.853 1348.27 213.399C1344.02 213.094 1343.91 218.866 1343.91 221.902C1343.91 224.143 1344.13 224.559 1344.59 224.559C1344.78 224.559 1344.97 224.484 1345.16 224.407C1345.39 224.331 1345.61 224.292 1345.84 224.292C1347.1 224.292 1347.51 225.318 1347.51 226.458C1347.51 227.9 1346.87 229.076 1345.62 229.076C1343.57 229.076 1342.05 228.697 1340.49 228.697C1339.05 228.697 1337.6 229.076 1336.24 229.076C1334.99 229.076 1334.34 227.9 1334.34 226.458C1334.34 225.318 1334.76 224.292 1336.01 224.292C1336.28 224.292 1336.47 224.368 1336.7 224.407C1336.88 224.445 1337.07 224.559 1337.27 224.559C1337.72 224.559 1337.95 224.181 1337.95 221.902V216.435C1337.95 214.081 1337.76 213.78 1337.27 213.78C1336.88 213.78 1336.51 214.043 1336.01 214.043C1334.76 214.043 1334.34 213.017 1334.34 211.88C1334.34 210.438 1334.99 209.26 1336.24 209.26C1337.34 209.26 1338.1 209.641 1338.86 209.641C1339.69 209.641 1340.49 209.26 1341.37 209.26C1342.2 209.26 1342.54 209.526 1342.54 210.893L1342.54 213.741Z" fill="white"/>
</g>
<g clip-path="url(#clip3_691_704)">
<path d="M558.383 619.609V597.98H562.932V619.609L558.383 619.609ZM586.189 619.609L576.147 605.864V619.616H571.657V597.98H575.852L585.54 611.3V597.98H590.03V619.609L586.189 619.609ZM606.391 602.367V619.609H601.842V602.367H595.55V597.98H612.684V602.367H606.391ZM618.19 619.609V597.98H633.791V602.21H622.687V606.515H632.434V610.745H622.687V615.372H633.916V619.602L618.19 619.609ZM654.019 619.609L649.562 612.692H645.99V619.616H641.44V597.98H650.873C655.75 597.98 658.673 600.667 658.673 605.116V605.178C658.809 608.202 656.995 610.947 654.242 611.883L659.296 619.609H654.019ZM654.111 605.363C654.111 603.306 652.754 602.271 650.539 602.271H646.016V608.482H650.604C652.82 608.482 654.092 607.248 654.092 605.425L654.111 605.363ZM680.711 619.609L670.695 605.857V619.609H666.205V597.98H670.4L680.088 611.3V597.98H684.578V619.609L680.711 619.609ZM707.258 619.609L705.371 614.755H696.607L694.719 619.609H690.078L698.94 597.822H703.135L711.998 619.609H707.258ZM700.979 603.546L698.232 610.56H703.725L700.979 603.546ZM723.921 602.374V619.616H719.372V602.367H713.079V597.98H730.214V602.367L723.921 602.374ZM736.205 619.616V597.98H740.754V619.609L736.205 619.616ZM758.846 619.986C752.474 620 747.886 615.009 747.886 608.86V608.798C747.886 602.628 752.527 597.609 758.905 597.609C765.283 597.609 769.864 602.587 769.864 608.736V608.798C769.871 614.947 765.237 620 758.852 620L758.846 619.986ZM765.106 608.798C765.225 605.169 762.509 602.126 759.04 602.001C758.975 601.998 758.91 601.997 758.846 601.997C755.181 601.997 752.638 605.027 752.638 608.736V608.798C752.519 612.427 755.235 615.47 758.704 615.595C758.769 615.597 758.833 615.598 758.898 615.599C762.562 615.599 765.106 612.568 765.106 608.86V608.798ZM791.804 619.609L781.788 605.857V619.609H777.317V597.98H781.513L791.201 611.3V597.98H795.691V619.609L791.804 619.609ZM818.351 619.609L816.463 614.755H807.739L805.851 619.609H801.21L810.072 597.822H814.268L823.13 619.609H818.351ZM812.124 603.546L809.378 610.56H814.871L812.124 603.546ZM828.269 619.616V597.98H832.818V615.283H843.129V619.609L828.269 619.616Z" fill="white"/>
<path d="M701.176 528.902C698.76 527.578 696.088 526.847 693.362 526.763C687.922 526.763 684.841 530.876 684.034 532.247V576.343H667.536V514.539H682.651L683.595 521.011C684.251 519.887 688.184 513.209 695.984 513.209C697.751 513.233 699.503 513.55 701.176 514.148V528.902H701.176ZM740.328 514.148C738.656 513.55 736.904 513.233 735.137 513.209C727.33 513.209 723.423 519.887 722.748 521.011L721.804 514.539H706.688V576.35H723.187V532.247C724.02 530.842 727.068 526.763 732.515 526.763C735.241 526.847 737.913 527.578 740.328 528.902L740.328 514.148ZM657.428 532.282V576.35H642.286L641.342 569.905C640.3 570.961 635.443 577.68 625.433 577.68C615.994 577.68 609.479 570.139 609.479 559.985C609.479 538.116 634.138 535.038 640.942 534.318V532.563C640.942 528.984 638.071 525.268 630.455 525.268C622.405 525.268 616.204 529.923 615.09 530.753V518.008C621.521 514.784 628.573 513.142 635.705 513.209C650.873 513.195 657.428 520.442 657.428 532.282ZM640.929 546.397C635.685 546.397 626.109 548.283 626.109 556.935C626.109 561.322 628.98 564.476 632.578 564.476C637.258 564.476 640.929 560.966 640.929 553.061L640.929 546.397ZM550.386 496.214L565.22 529.505L559.399 542.531L534.654 487L515.802 496.193L530.623 529.437C529.463 532.028 527.601 536.244 524.586 542.956C517.808 558.114 512.564 562.357 503.276 562.357C500.722 562.309 498.192 561.82 495.79 560.911L487 580.614C491.453 582.553 496.218 583.589 501.041 583.665C512.033 583.665 520.109 576.192 527.129 560.438L535.782 541.036L551.514 576.37H574.456L564.519 554.089L570.339 541.064L586.071 576.398H609.013L569.238 487L550.386 496.214ZM879.791 514.546V494.096L863.292 502.144V514.546H858.009V525.296H863.299V576.357H879.797V525.289H888.161V514.539L879.791 514.546ZM746.503 576.357H763.002V514.539H746.503V576.357ZM844.755 494.089L828.256 502.137V514.539H822.966V525.289H828.256V576.35H844.755V525.289H853.125V514.539H844.755V494.089ZM819.112 540.358V550.524C819.112 565.257 812.229 577.687 795.324 577.687C778.419 577.687 771.536 565.346 771.536 550.524V540.364C771.536 525.57 778.419 513.202 795.324 513.202C812.229 513.202 819.112 525.632 819.112 540.364V540.358ZM802.482 537.91C802.482 530.52 800.765 525.275 795.324 525.275C789.883 525.275 788.166 530.52 788.166 537.91V552.993C788.166 560.383 789.851 565.628 795.324 565.628C800.797 565.628 802.482 560.383 802.482 552.993V537.91Z" fill="white"/>
</g>
<g clip-path="url(#clip4_691_704)">
<path d="M67.8962 553.513V522.976H67.8943V553.515L67.8962 553.513ZM128.635 522.976H98.2595L67.8962 553.513V584.025L128.635 522.976Z" fill="white"/>
<path d="M95.3101 518.892H67.8947V546.051L95.3101 518.892Z" fill="white"/>
<path d="M213.45 536.226L205.522 570.762H219.53L227.452 536.226H213.45Z" fill="white"/>
<path d="M181.457 556.243H178.244L183.424 546.28L185.104 556.243H181.457ZM179.463 536.223L161.448 570.757H170.713L173.703 565.001H186.565L187.523 570.757H201.198L195.386 536.223H179.463Z" fill="white"/>
<path d="M277.424 536.226L269.517 570.762H283.522L291.431 536.226H277.424Z" fill="white"/>
<path d="M271.165 536.226H256.811L244.795 547.523L247.418 536.226H233.991L226.084 570.762H239.468L242.202 558.839L249.359 570.762H265.56L253.561 552.675L271.165 536.226Z" fill="white"/>
<path d="M150.456 551.921C150.456 551.921 149.546 563.138 140.772 563.138H135.808L140.18 544.511H144.685C146.297 544.521 150.963 544.977 150.456 551.921ZM149.745 536.242L146.122 536.23H128.595L120.687 570.751H138.092L144.977 570.762C154.672 570.762 164.213 562.899 164.213 550.857C164.213 536.687 149.745 536.242 149.745 536.242Z" fill="white"/>
<path d="M324.885 536.221L320.213 556.557L313.989 536.221H298.411L290.497 570.762H300.183L304.901 550.247L311.145 570.762H326.656L334.582 536.221H324.885Z" fill="white"/>
</g>
<path d="M1359.87 443.089C1357.21 439.538 1352.28 436.403 1344.23 436.403C1336.18 436.403 1330.14 439.538 1326.1 443.089C1320.19 448.21 1317.74 454.375 1315.83 464.196C1313.9 474.118 1313.95 480.285 1317.87 485.403C1320.53 488.955 1325.35 492.09 1333.4 492.09C1341.45 492.09 1347.6 488.955 1351.64 485.403C1357.55 480.285 1360 474.118 1361.93 464.196C1363.84 454.375 1363.79 448.21 1359.87 443.089ZM1348.34 464.194C1347.24 469.833 1345.99 474.639 1342.62 477.462C1340.75 479.029 1338.49 479.862 1335.78 479.862C1333.06 479.862 1331.23 479.029 1329.97 477.462C1327.7 474.639 1328.32 469.833 1329.41 464.194C1330.51 458.55 1331.74 453.851 1335.11 451.028C1336.99 449.462 1339.13 448.626 1341.85 448.626C1344.57 448.626 1346.5 449.462 1347.76 451.028C1350.04 453.851 1349.44 458.55 1348.34 464.194ZM1300.07 475.06L1311.35 417.076H1297.76L1286.32 475.898C1284.82 483.627 1288 491.466 1299.19 491.466H1306.92L1309.16 479.973H1303.93C1300.48 479.971 1299.44 478.298 1300.07 475.06ZM1247.65 437.029L1234.05 470.669L1229.4 437.029H1218.78L1201.15 470.669L1198.92 437.029H1184.89L1190.63 491.464H1202.51L1220.55 457.3L1225.3 491.464H1237.18L1256.75 448.511L1260.97 448.509C1264.42 448.494 1265.46 450.161 1264.85 453.401L1257.53 491.497H1271.11L1278.6 452.505C1280.07 444.767 1276.85 436.945 1265.67 436.995L1247.65 437.029Z" fill="white"/>
<path d="M1274.94 432.389C1279.5 432.389 1283.19 428.699 1283.19 424.148C1283.19 419.6 1279.5 415.91 1274.94 415.91C1270.39 415.91 1266.7 419.598 1266.7 424.148C1266.7 428.699 1270.39 432.389 1274.94 432.389Z" fill="white"/>
<path d="M748.641 413.429V445.526H759.058V433.613L776.997 446.571V414.407H766.584V426.153L748.641 413.429ZM723.463 414.402V445.526H734.094V414.402H723.463ZM791.504 414.402V445.526H801.657C808.247 445.526 811.839 444.601 814.623 442.751C818.379 440.257 820.512 435.463 820.512 429.966C820.512 424.238 817.944 419.204 813.751 416.722C811.186 415.219 808.073 414.401 802.028 414.401L791.504 414.402ZM833.485 414.402V445.526H844.105V414.402H833.485ZM899.677 414.402V445.521H924.816V438.234H910.101V433.381H921.329V426.727H910.101V421.868H924.433V414.402L899.677 414.402ZM857.854 414.408V423.199H866.573V445.533H876.986V423.199H886.16V414.408H857.854ZM934.653 414.408L945.447 429.973L934.602 445.527H947.141L951.832 437.72L956.518 445.527H969.051L958.205 429.914L969 414.408H956.467L951.832 421.994L947.197 414.408H934.653ZM801.918 422.906H802.571C804.859 422.906 806.004 423.199 807.048 423.891C808.734 425.048 809.551 427.541 809.551 430.027C809.551 432.744 808.624 435.118 806.823 436.21C805.955 436.731 804.913 437.022 802.739 437.022H801.918L801.918 422.906Z" fill="white"/>
<path fill-rule="evenodd" clip-rule="evenodd" d="M446.875 276.065C465.759 276.065 477.703 267.962 477.703 246.535C477.703 224.291 465.844 217.344 446.681 217.344H433.046L432.872 213.882C442.174 213.882 446.293 213.546 451.818 213.546C474.398 213.546 487.772 226.348 487.772 246.535C487.772 258.218 482.834 267.851 474.301 273.45C471.302 275.419 467.594 277.713 462.878 277.647L446.585 277.65L446.875 276.065ZM521.286 251.583C522.4 251.583 522.827 251.094 522.827 249.629C522.827 244.251 516.237 234.268 507.168 234.268C495.999 234.268 488.538 243.749 488.538 258.023C488.538 270.632 496.128 279.445 506.053 279.445C513.019 279.445 519.061 275.216 522.409 267.851L520.742 266.383C518.169 270.547 513.97 272.725 509.22 272.725C498.312 272.725 495.182 262.803 496.538 251.583H521.286ZM511.019 249.041H496.881C498.421 242.591 501.006 237.535 505.969 237.535C510.846 237.535 513.928 242.198 513.928 246.11C513.928 248.064 512.986 249.041 511.019 249.041Z" fill="white"/>
<path fill-rule="evenodd" clip-rule="evenodd" d="M534.289 269.067V206.731H533.611C530.052 208.682 526.318 210.254 522.465 211.423V212.596C526.633 214.454 526.923 215.921 526.923 219.536V267.502C526.923 273.075 526.632 274.541 521.593 274.736V278.157H539.52V274.736C534.579 274.737 534.289 273.466 534.289 269.067ZM543.398 241.445V263.203C543.398 272.878 544.076 278.929 553.282 278.929C558.013 278.929 560.785 276.273 563.983 271.385L563.11 270.309C561.069 272.226 558.821 273.304 556.809 273.415C553.458 273.596 550.763 271.083 550.763 265.253V241.445H564.386L565.008 236.171H550.762V227.634H549.986C546.305 231.838 542.33 236.125 537.968 239.351V241.445H543.398Z" fill="white"/>
<path fill-rule="evenodd" clip-rule="evenodd" d="M586.716 272.391C587.104 276.692 589.624 279.054 593.402 279.054C597.763 279.054 600.476 276.398 601.058 271.315H599.216C599.022 273.465 598.054 274.638 596.695 274.638C595.437 274.638 594.758 273.562 594.758 271.999V248.889C594.758 240.189 593.659 234.616 584.97 234.616C575.377 234.616 564.619 242.436 564.619 247.422C564.619 249.67 566.072 251.04 568.302 251.04C571.983 251.04 573.051 248.623 573.051 243.247C573.051 240.841 575.776 239.432 578.845 239.426C582.79 239.417 587.297 241.726 587.297 247.213V252.743C571.792 258.413 564.619 262.715 564.619 270.535C564.619 275.715 568.302 279.25 573.728 279.25C577.703 279.248 581.968 276.985 586.716 272.391ZM587.008 269.948C583.905 272.391 581.579 273.858 578.674 273.858C574.504 273.858 571.308 271.024 571.308 267.016C571.308 262.323 576.348 259.294 587.008 255.189V269.948ZM410.369 287.484H412.962C413.007 287.191 413.017 286.836 412.989 286.417C412.96 285.99 412.831 285.577 412.614 285.215C412.391 284.832 412.035 284.507 411.548 284.232C411.06 283.958 410.373 283.822 409.488 283.822C408.919 283.822 408.362 283.914 407.815 284.1C407.268 284.288 406.763 284.577 406.301 284.969C405.839 285.359 405.432 285.862 405.077 286.47C404.724 287.081 404.455 287.808 404.275 288.658C403.979 290.041 404.118 291.123 404.691 291.907C405.262 292.691 406.224 293.1 407.575 293.138C408.151 293.165 408.726 293.086 409.276 292.905C409.812 292.728 410.318 292.466 410.778 292.126C411.224 291.797 411.62 291.399 411.953 290.944C412.28 290.493 412.517 290.013 412.66 289.504H409.939C409.843 289.762 409.711 290.003 409.547 290.219C409.415 290.392 409.259 290.542 409.085 290.666C408.936 290.769 408.772 290.845 408.599 290.889C408.435 290.93 408.285 290.951 408.147 290.951C407.784 290.951 407.515 290.83 407.333 290.589C407.144 290.326 407.03 290.011 407.005 289.681C406.969 289.283 406.998 288.881 407.091 288.493C407.187 288.065 407.332 287.669 407.525 287.305C407.702 286.962 407.936 286.654 408.215 286.397C408.482 286.157 408.774 286.036 409.092 286.036C409.16 286.036 409.259 286.038 409.388 286.043C409.517 286.047 409.646 286.09 409.78 286.171C409.913 286.255 410.035 286.395 410.148 286.597C410.258 286.795 410.333 287.092 410.369 287.484ZM436.818 283.822C435.83 283.858 434.956 284.111 434.197 284.587C433.439 285.06 432.818 285.646 432.338 286.349C431.857 287.051 431.531 287.802 431.358 288.608C431.186 289.414 431.195 290.161 431.383 290.85C431.571 291.538 431.952 292.109 432.526 292.564C433.099 293.02 433.89 293.248 434.896 293.248C435.645 293.248 436.328 293.115 436.947 292.852C437.543 292.601 438.095 292.245 438.578 291.799C439.04 291.369 439.432 290.861 439.737 290.296C440.043 289.732 440.26 289.151 440.388 288.548C440.486 287.966 440.493 287.393 440.407 286.827C440.329 286.284 440.138 285.765 439.847 285.31C439.56 284.864 439.166 284.507 438.665 284.232C438.163 283.957 437.548 283.822 436.818 283.822ZM436.413 286.142C436.594 286.142 436.77 286.185 436.941 286.266C437.111 286.348 437.251 286.482 437.358 286.67C437.464 286.855 437.533 287.095 437.565 287.385C437.597 287.677 437.57 288.028 437.482 288.438C437.306 289.266 437.038 289.91 436.678 290.364C436.318 290.819 435.881 291.046 435.364 291.046C434.874 291.046 434.527 290.837 434.324 290.419C434.122 290 434.109 289.375 434.285 288.547C434.458 287.736 434.741 287.133 435.136 286.737C435.532 286.342 435.956 286.142 436.413 286.142ZM460.228 284.121L458.339 292.974H460.983L461.682 289.695L461.914 288.246L463.808 292.974H466.452L468.341 284.121H465.593L464.917 287.291L464.714 288.726L462.795 284.121H460.228ZM487.082 284.121L486.571 286.512H488.996L487.617 292.974H490.429L491.808 286.512H494.284L494.795 284.121H487.082ZM515.83 286.308H517.339C517.64 286.308 517.846 286.389 517.956 286.553C518.01 286.629 518.048 286.717 518.066 286.811C518.084 286.905 518.083 287.001 518.062 287.094C518.01 287.305 517.897 287.494 517.739 287.633C517.566 287.799 517.339 287.887 517.106 287.88H515.493L515.83 286.308ZM513.548 284.121L511.658 292.974H514.482L515.121 289.983C515.44 289.983 515.752 289.974 516.056 289.956C516.362 289.938 516.614 289.983 516.815 290.092C516.988 290.164 517.091 290.282 517.12 290.441C517.15 290.6 517.15 290.799 517.116 291.034C517.075 291.316 517.023 291.597 516.961 291.875C516.888 292.237 516.844 292.605 516.831 292.975H519.745L519.808 292.687C519.646 292.642 519.563 292.542 519.568 292.388C519.57 292.232 519.602 292.01 519.666 291.718C519.741 291.362 519.808 291.044 519.863 290.763C519.919 290.48 519.933 290.222 519.906 289.991C519.879 289.762 519.794 289.544 519.66 289.361C519.523 289.176 519.301 289 518.991 288.836C519.245 288.81 519.511 288.673 519.782 288.426C520.054 288.179 520.285 287.882 520.475 287.532C520.668 287.181 520.794 286.808 520.858 286.411C520.921 286.015 520.872 285.646 520.706 285.307C520.544 284.965 520.24 284.682 519.798 284.458C519.355 284.237 518.725 284.123 517.907 284.123H513.548V284.121ZM544.76 283.822C543.773 283.858 542.898 284.111 542.141 284.587C541.411 285.029 540.777 285.63 540.281 286.349C539.812 287.023 539.478 287.792 539.301 288.608C539.128 289.414 539.137 290.161 539.324 290.85C539.515 291.538 539.895 292.109 540.468 292.564C541.042 293.02 541.832 293.248 542.837 293.248C543.586 293.248 544.27 293.115 544.889 292.852C545.486 292.602 546.037 292.246 546.521 291.799C546.982 291.369 547.374 290.861 547.68 290.296C547.985 289.732 548.202 289.151 548.33 288.548C548.429 287.966 548.435 287.393 548.35 286.827C548.272 286.284 548.081 285.765 547.789 285.31C547.502 284.864 547.107 284.507 546.607 284.232C546.107 283.957 545.492 283.822 544.76 283.822ZM544.356 286.142C544.536 286.142 544.711 286.185 544.884 286.266C545.055 286.348 545.194 286.482 545.301 286.67C545.406 286.855 545.476 287.095 545.508 287.385C545.54 287.677 545.512 288.028 545.425 288.438C545.25 289.266 544.98 289.91 544.621 290.364C544.262 290.819 543.823 291.046 543.309 291.046C542.819 291.046 542.47 290.837 542.27 290.419C542.066 290 542.054 289.375 542.229 288.547C542.402 287.736 542.687 287.133 543.08 286.737C543.475 286.342 543.899 286.142 544.356 286.142ZM568.172 284.121L566.281 292.974H572.809L573.258 290.871H569.478L570.919 284.121H568.172ZM597.557 286.705H600.202C600.255 286.13 600.223 285.661 600.107 285.296C599.991 284.931 599.804 284.646 599.543 284.436C599.282 284.227 598.95 284.078 598.549 283.985C598.093 283.888 597.63 283.833 597.165 283.822C596.053 283.84 595.157 284.078 594.486 284.532C593.813 284.988 593.356 285.551 593.118 286.226C592.889 286.898 592.84 287.435 592.975 287.831C593.109 288.225 593.356 288.544 593.712 288.787C594.069 289.026 594.497 289.214 594.993 289.345C595.489 289.479 595.985 289.612 596.481 289.749C596.703 289.83 596.844 289.953 596.907 290.11C596.937 290.185 596.951 290.266 596.948 290.348C596.945 290.429 596.925 290.509 596.889 290.581C596.803 290.753 596.671 290.896 596.51 290.991C596.318 291.115 596.094 291.172 595.869 291.155C595.604 291.155 595.349 291.091 595.113 290.958C594.873 290.827 594.751 290.573 594.745 290.2H592.102C591.985 290.748 591.993 291.214 592.125 291.601C592.258 291.988 592.478 292.301 592.787 292.542C593.097 292.784 593.476 292.961 593.925 293.074C594.374 293.19 594.846 293.246 595.345 293.246C595.827 293.246 596.311 293.174 596.796 293.033C597.281 292.891 597.729 292.688 598.133 292.426C598.537 292.161 598.886 291.831 599.176 291.435C599.466 291.04 599.656 290.59 599.746 290.091C599.809 289.68 599.793 289.328 599.701 289.033C599.609 288.735 599.44 288.471 599.214 288.268C598.951 288.035 598.652 287.849 598.331 287.72C597.935 287.556 597.528 287.421 597.115 287.317C596.903 287.262 596.664 287.205 596.397 287.147C596.129 287.089 595.919 287.012 595.768 286.921C595.661 286.858 595.597 286.779 595.58 286.684C595.56 286.586 595.582 286.489 595.642 286.389C595.703 286.29 595.797 286.199 595.925 286.123C596.053 286.046 596.212 285.999 596.395 285.98C596.752 285.953 597.046 285.989 597.274 286.089C597.503 286.19 597.597 286.394 597.557 286.705Z" fill="white"/>
<path fill-rule="evenodd" clip-rule="evenodd" d="M463.361 277.785H402.469L432.785 213.546L463.361 277.785Z" fill="white"/>
<defs>
<clipPath id="clip0_691_704">
<rect width="299.81" height="61" fill="white" transform="translate(771 116)"/>
</clipPath>
<clipPath id="clip1_691_704">
<rect width="121" height="121" fill="white" transform="translate(323 347)"/>
</clipPath>
<clipPath id="clip2_691_704">
<rect width="221" height="221" fill="white" transform="translate(1153 35)"/>
</clipPath>
<clipPath id="clip3_691_704">
<rect width="401.162" height="133" fill="white" transform="translate(487 487)"/>
</clipPath>
<clipPath id="clip4_691_704">
<rect width="268.477" height="63" fill="white" transform="translate(67 522)"/>
</clipPath>
</defs>
</svg>
