<svg width="1280" height="80" viewBox="0 0 1280 80" fill="none" xmlns="http://www.w3.org/2000/svg">
<path fill-rule="evenodd" clip-rule="evenodd" d="M32.2113 27.5H26.5572L18.9415 38.7702H18.8778V27.5H14.1379V51.5107H18.8778V39.7298H18.9415L26.4606 51.5107H32.3703L24.0288 39.0262L32.2113 27.5ZM45.4164 49.363H45.4788V51.5023H49.8699C49.7462 50.8964 49.6508 50.3214 49.6508 49.4594V39.944C49.6508 36.1773 46.3011 34.6428 42.2871 34.6428C36.6012 34.6428 34.8304 37.869 34.6737 40.3916H39.033C39.1272 38.9238 40.2347 37.9666 42.0998 37.9666C44.0897 37.9666 45.2891 38.9238 45.2891 40.8714V41.6369L41.0889 41.8928C34.7361 42.275 34.1671 45.1809 34.1671 46.9357C34.1671 50.6714 37.2951 51.9487 39.8553 51.9487C41.7499 51.9487 43.8989 51.3749 45.4164 49.363ZM41.4977 44.7012L45.2891 44.3487V45.8535C45.2891 47.8309 42.9834 48.6285 41.5614 48.6285C40.045 48.6285 38.7172 48.1833 38.7172 46.7142C38.7172 45.5321 39.4124 44.894 41.4977 44.7012ZM53.018 51.5107H57.5693V27.5H53.018V51.5107ZM68.6195 48.438C66.1842 48.438 65.0166 46.5214 64.8269 44.6083H76.7091V43.3309C76.7091 38.0298 73.2958 34.6428 68.3992 34.6428C63.5003 34.6428 60.0871 38.0298 60.0871 43.3309C60.0871 48.5654 63.5003 51.9487 68.3992 51.9487C72.2214 51.9487 75.1929 50.1952 76.2977 46.8416L71.8726 46.4905C71.2431 47.7678 70.0097 48.438 68.6195 48.438ZM68.6195 38.1571C70.798 38.1571 72.0012 40.0726 72.1589 41.669H64.8269C65.0802 39.819 66.2502 38.1571 68.6195 38.1571Z" fill="white"/>
<path fill-rule="evenodd" clip-rule="evenodd" d="M9.88383 27.5H7.91978V28.8107H5.9416V27.5H3.96342V28.8107H1.98407V27.5H0.00589094L0 37.4738H9.88383V27.5Z" fill="white"/>
<path d="M189.561 42.0453C189.561 38.8841 191.745 36.3428 194.791 36.3428C196.687 36.3428 197.779 37.0246 198.756 38.0783L197.606 39.5039C196.802 38.6981 195.94 38.1403 194.733 38.1403C192.779 38.1403 191.4 39.8758 191.4 42.0453V42.1072C191.4 44.2767 192.837 46.0122 194.733 46.0122C195.997 46.0122 196.802 45.4544 197.664 44.5866L198.813 45.8263C197.779 47.0039 196.572 47.7477 194.676 47.7477C191.745 47.7477 189.561 45.2064 189.561 42.0453Z" fill="white"/>
<path d="M200.537 36.5283H202.376V41.1151H207.203V36.5283H208.985V47.5614H207.203V42.9126H202.376V47.5614H200.537V36.5283Z" fill="white"/>
<path d="M226.685 42.2308C228.064 42.2308 228.868 41.425 228.868 40.2473V40.1853C228.868 38.8837 228.006 38.2019 226.685 38.2019H224.558V42.1688H226.685V42.2308ZM222.777 36.5283H226.8C229.213 36.5283 230.65 38.0159 230.65 40.1853V40.2473C230.65 42.7267 228.811 44.0283 226.57 44.0283H224.558V47.5614H222.777V36.5283Z" fill="white"/>
<path d="M232.374 36.5283H234.27L237.374 41.7349L240.477 36.5283H242.373V47.5614H240.592V39.6275L237.374 44.8341H237.316L234.098 39.6895V47.5614H232.374V36.5283Z" fill="white"/>
<path d="M256.166 36.5283H257.775L263.234 44.1523V36.5283H265.016V47.5614H263.521L257.89 39.6895V47.5614H256.166V36.5283Z" fill="white"/>
<path d="M274.785 38.3258H271.567V36.5283H279.842V38.3258H276.624V47.5614H274.785V38.3258Z" fill="white"/>
<path d="M299.554 36.5283H301.335V45.7639H306.68V47.5614H299.554V36.5283Z" fill="white"/>
<path d="M315.817 42.0453C315.817 39.8758 314.38 38.0783 312.369 38.0783C310.358 38.0783 308.921 39.8139 308.921 41.9833V42.0453C308.921 44.1527 310.358 45.9502 312.369 45.9502C314.38 45.9502 315.817 44.2147 315.817 42.0453ZM307.024 42.0453C307.024 38.9461 309.208 36.3428 312.369 36.3428C315.472 36.3428 317.656 38.8841 317.656 41.9833V42.0453C317.656 45.1444 315.472 47.7477 312.311 47.7477C309.151 47.7477 307.024 45.1444 307.024 42.0453Z" fill="white"/>
<path d="M214.099 43.161L215.823 38.7602L217.605 43.161H214.099ZM216.685 36.4668H215.019L210.938 46.5701V47.5618H212.375L213.41 44.8965H218.237L219.271 47.5618H220.765V46.5701L216.685 36.4668Z" fill="white"/>
<path d="M247.488 43.161L249.212 38.7602L250.994 43.161H247.488ZM250.074 36.4668H248.408L244.328 46.5701V47.5618H245.764L246.799 44.8965H251.626L252.66 47.5618H254.155V46.5701L250.074 36.4668Z" fill="white"/>
<path d="M282.601 43.161L284.325 38.7602L286.107 43.161H282.601ZM285.187 36.4668H283.521L279.44 46.5701V47.5618H280.877L281.912 44.8965H286.739L287.773 47.5618H289.267V46.5701L285.187 36.4668Z" fill="white"/>
<path d="M323.977 41.9834H321.334V38.2644H323.92C325.242 38.2644 326.046 38.8842 326.046 40.0619C326.046 41.2396 325.242 41.9834 323.977 41.9834ZM325.874 43.347C326.966 42.9131 327.885 41.8594 327.885 40.0619C327.885 39.1321 327.598 38.2644 327.023 37.7065C326.391 37.0247 325.356 36.5908 324.092 36.5908H319.552V47.5619H321.334V43.7189H323.977L326.506 47.5619H328V46.5702L325.874 43.347Z" fill="white"/>
<path d="M297.485 36.5283H296.048L293.118 41.425L290.302 36.5283H288.75V37.5201L292.256 43.2225V47.5614H294.037V43.1606L297.485 37.5201V36.5283Z" fill="white"/>
<path d="M151 55L160.425 25L182.722 40.7438L181.055 48.0578L151 55ZM162.493 33.9256L152.264 53.9463L179.849 47.562L162.493 33.9256ZM160.597 27.0455L153.241 50.4132L161.976 33.3058L160.597 27.0455ZM164.62 34.6074L180.538 47.0661L181.86 41.1777L164.62 34.6074ZM162.666 33.0579L179.561 39.4421L161.172 26.4876L162.666 33.0579Z" fill="white"/>
<g clip-path="url(#clip0_3078_888)">
<path d="M424.691 64.8527V56.7212H426.392V64.8526L424.691 64.8527ZM435.088 64.8527L431.334 59.6851V64.8552H429.655V56.7212H431.223L434.846 61.7289V56.7212H436.525V64.8526L435.088 64.8527ZM442.642 58.3707V64.8527H440.941V58.3707H438.588V56.7212H444.995V58.3707H442.642ZM447.054 64.8527V56.7212H452.887V58.3114H448.736V59.93H452.38V61.5202H448.736V63.2599H452.934V64.8501L447.054 64.8527ZM460.451 64.8527L458.785 62.2521H457.449V64.8552H455.748V56.7212H459.275C461.098 56.7212 462.191 57.7315 462.191 59.4042V59.4274C462.242 60.5642 461.564 61.5962 460.534 61.948L462.424 64.8527H460.451ZM460.485 59.497C460.485 58.7238 459.978 58.3346 459.15 58.3346H457.459V60.6697H459.174C460.003 60.6697 460.478 60.2057 460.478 59.5202L460.485 59.497ZM470.432 64.8527L466.686 59.6825V64.8527H465.008V56.7212H466.576L470.199 61.7289V56.7212H471.878V64.8526L470.432 64.8527ZM480.358 64.8527L479.652 63.0279H476.375L475.669 64.8527H473.934L477.248 56.6619H478.816L482.13 64.8527H480.358ZM478.01 58.814L476.983 61.4506H479.037L478.01 58.814ZM486.588 58.3733V64.8552H484.887V58.3707H482.534V56.7212H488.941V58.3707L486.588 58.3733ZM491.182 64.8552V56.7212H492.883V64.8526L491.182 64.8552ZM499.647 64.9944C497.265 64.9996 495.549 63.1233 495.549 60.8114V60.7882C495.549 58.4686 497.284 56.582 499.669 56.582C502.054 56.582 503.767 58.4532 503.767 60.765V60.7882C503.77 63.1001 502.037 64.9996 499.65 64.9996L499.647 64.9944ZM501.988 60.7882C502.033 59.424 501.017 58.2799 499.72 58.233C499.696 58.2321 499.671 58.2316 499.647 58.2315C498.277 58.2315 497.326 59.3707 497.326 60.765V60.7882C497.281 62.1524 498.297 63.2965 499.594 63.3435C499.618 63.3443 499.643 63.3448 499.667 63.3449C501.037 63.3449 501.988 62.2057 501.988 60.8114V60.7882ZM511.971 64.8527L508.226 59.6825V64.8527H506.554V56.7212H508.123L511.745 61.7289V56.7212H513.424V64.8526L511.971 64.8527ZM521.897 64.8527L521.191 63.0279H517.929L517.223 64.8527H515.488L518.802 56.6619H520.37L523.684 64.8527H521.897ZM519.569 58.814L518.542 61.4506H520.596L519.569 58.814ZM525.605 64.8552V56.7212H527.306V63.2263H531.162V64.8526L525.605 64.8552Z" fill="white"/>
<path d="M478.083 30.7525C477.18 30.255 476.181 29.98 475.162 29.9484C473.127 29.9484 471.975 31.4948 471.674 32.0103V48.5876H465.505V25.3531H471.157L471.51 27.7861C471.755 27.3634 473.225 24.8531 476.142 24.8531C476.803 24.8621 477.458 24.9813 478.083 25.2062V30.7525H478.083ZM492.723 25.2062C492.098 24.9813 491.443 24.8622 490.782 24.8531C487.863 24.8531 486.402 27.3634 486.149 27.786L485.797 25.3531H480.145V48.5901H486.314V32.0103C486.625 31.4819 487.765 29.9484 489.801 29.9484C490.821 29.98 491.82 30.255 492.723 30.7525L492.723 25.2062ZM461.725 32.0232V48.5901H456.064L455.711 46.1674C455.321 46.5644 453.505 49.0901 449.762 49.0901C446.233 49.0901 443.797 46.2551 443.797 42.4381C443.797 34.2165 453.017 33.0592 455.561 32.7886V32.1288C455.561 30.7835 454.488 29.3866 451.64 29.3866C448.63 29.3866 446.311 31.1366 445.895 31.4484V26.6572C448.299 25.445 450.936 24.8278 453.603 24.8531C459.274 24.8479 461.725 27.5721 461.725 32.0232ZM455.556 37.3299C453.596 37.3299 450.015 38.0386 450.015 41.2912C450.015 42.9407 451.088 44.1262 452.434 44.1262C454.184 44.1262 455.556 42.8066 455.556 39.835L455.556 37.3299ZM421.701 18.4639L427.248 30.9793L425.071 35.8762L415.819 15L408.77 18.4562L414.311 30.9536C413.877 31.9278 413.181 33.5128 412.054 36.036C409.52 41.7345 407.559 43.3298 404.086 43.3298C403.131 43.3117 402.185 43.128 401.287 42.786L398 50.1932C399.665 50.9223 401.447 51.3115 403.25 51.3401C407.36 51.3401 410.38 48.5309 413.005 42.6082L416.24 35.3144L422.123 48.5979H430.701L426.985 40.2216L429.162 35.3247L435.044 48.6082H443.623L428.75 15L421.701 18.4639ZM544.87 25.3557V17.6675L538.701 20.6933V25.3557H536.725V29.3969H538.703V48.5927H544.872V29.3943H548V25.3531L544.87 25.3557ZM495.032 48.5927H501.201V25.3531H495.032V48.5927ZM531.77 17.6649L525.6 20.6907V25.3531H523.622V29.3943H525.6V48.5902H531.77V29.3943H534.899V25.3531H531.77V17.6649ZM522.181 35.0592V38.8814C522.181 44.42 519.608 49.0927 513.287 49.0927C506.966 49.0927 504.392 44.4535 504.392 38.8814V35.0618C504.392 29.5 506.966 24.8505 513.287 24.8505C519.608 24.8505 522.181 29.5232 522.181 35.0618V35.0592ZM515.963 34.1391C515.963 31.3608 515.321 29.3891 513.287 29.3891C511.252 29.3891 510.61 31.3608 510.61 34.1391V39.8092C510.61 42.5876 511.24 44.5592 513.287 44.5592C515.333 44.5592 515.963 42.5876 515.963 39.8092V34.1391Z" fill="white"/>
</g>
<path d="M646.599 50.0416H651.376L646.737 29.957H641.295L631.846 50.0416H636.899L638.537 46.1278H645.769L646.599 50.0416ZM640.39 41.7008L643.304 34.7356H643.35L644.829 41.7008H640.39Z" fill="white"/>
<path d="M666.194 45.3682H652.076L651.376 50.0418H665.492L666.194 45.3682ZM667.803 34.6294H653.687L654.388 29.9572H668.504L667.803 34.6294ZM664.953 42.3357H652.531L653.232 37.6633H665.655L664.953 42.3357ZM681.75 44.8922C680.403 45.5138 678.392 45.6155 677.407 45.6155C674.229 45.6155 672.125 43.4476 672.231 40.2254C672.345 36.8228 674.917 34.3835 678.41 34.3835C680.061 34.3835 681.515 34.9288 682.819 36.0309L683.785 31.2221C681.791 30.0468 680.116 29.5654 678.026 29.5654C672.243 29.5654 667.471 34.3835 667.269 40.4366C667.075 46.3079 670.891 50.4341 676.56 50.4341C677.546 50.4341 679.678 50.3312 681.023 49.7103L681.75 44.8922ZM693.754 29.6137C699.126 29.9955 702.449 34.368 701.85 40.213C701.229 46.2371 696.369 50.7217 690.887 50.3306C685.514 49.9489 682.191 45.5765 682.792 39.7314C683.411 33.708 688.271 29.2225 693.754 29.6137ZM697.071 40.7014C697.801 37.3056 696.537 34.6605 693.97 34.1374C691.15 33.5585 688.584 35.719 687.811 39.3077C687.079 42.7038 688.343 45.3483 690.91 45.8739C693.733 46.4491 696.297 44.2898 697.071 40.7014ZM724.154 50.0418L723.786 29.956H719.257L713.46 41.2857L711.12 29.956H706.596L700.356 50.0418H705.348L708.743 38.2824L710.877 50.0418H713.422L719.307 38.2873L719.237 50.0418H724.154Z" fill="white"/>
<g clip-path="url(#clip1_3078_888)">
<path d="M808.567 40.0078V20.6191H808.566V40.0088L808.567 40.0078ZM847.027 20.6191H827.794L808.567 40.0078V59.3809L847.027 20.6191Z" fill="white"/>
<path d="M825.926 17.8734H808.567V35.0703L825.926 17.8734Z" fill="white"/>
<path d="M900.733 29.0325L895.712 50.96H904.583L909.599 29.0325H900.733Z" fill="white"/>
<path d="M880.474 41.7416H878.44L881.72 35.4159L882.784 41.7416H880.474ZM879.212 29.0307L867.805 50.957H873.671L875.565 47.3023H883.709L884.316 50.957H892.975L889.294 29.0307H879.212Z" fill="white"/>
<path d="M941.241 29.0325L936.234 50.96H945.102L950.11 29.0325H941.241Z" fill="white"/>
<path d="M937.278 29.0325H928.189L920.581 36.2052L922.241 29.0325H913.74L908.732 50.96H917.207L918.939 43.3902L923.47 50.96H933.729L926.131 39.4763L937.278 29.0325Z" fill="white"/>
<path d="M860.845 38.9973C860.845 38.9973 860.268 46.1195 854.713 46.1195H851.57L854.338 34.2926H857.191C858.212 34.2993 861.166 34.5887 860.845 38.9973ZM860.395 29.0427L858.101 29.0348H847.002L841.995 50.9532H853.016L857.376 50.96C863.514 50.96 869.556 45.968 869.556 38.322C869.556 29.3253 860.395 29.0427 860.395 29.0427Z" fill="white"/>
<path d="M971.294 29.0292L968.335 41.9409L964.394 29.0292H954.53L949.519 50.96H955.652L958.639 37.935L962.593 50.96H972.415L977.433 29.0292H971.294Z" fill="white"/>
</g>
<path d="M1261.88 29.784H1262.9V32.3516H1263.38V29.784H1264.41V29.3501H1261.88V29.784ZM1267.56 29.3501L1266.5 30.7604L1265.47 29.3501H1264.99V32.3516H1265.47V30.1456L1266.35 31.3029H1266.64L1267.52 30.1456V32.3516H1268V29.3501H1267.56ZM1218.35 32.8217H1211.49V29.3501H1229.02V32.8217H1222.2V50.614H1218.39V32.8217H1218.35ZM1252.86 29.3501V50.614H1268V47.2146H1256.63V29.3501H1252.86ZM1241.05 38.5355L1250.07 29.3862H1245.41L1235.14 40.0905V29.3862H1231.37V50.6501H1235.14V44.5024L1238.48 41.1031L1245.85 50.6501L1250.4 50.6863L1241.05 38.5355ZM1204.45 42.6581C1207.72 42.1518 1210.1 39.3311 1209.99 36.0764C1209.99 34.3406 1209.29 32.7132 1208.05 31.4837C1206.36 30.001 1204.16 29.2416 1201.89 29.3501H1189.57L1192.24 32.7494H1201.74C1204.53 32.7494 1206.21 33.9789 1206.21 36.2572C1206.21 38.427 1204.49 39.8012 1201.78 39.8012H1197.71L1206.18 50.5416H1210.65L1204.45 42.6581Z" fill="white"/>
<path d="M1048.03 40.0727C1047.84 34.1058 1052.61 29.1515 1058.62 29.0068C1058.81 29.0068 1058.95 29.0068 1059.14 29.0068C1062.29 28.8983 1065.37 30.0917 1067.57 32.2976L1065.15 35.0461C1063.54 33.3825 1061.34 32.4423 1058.99 32.4061C1054.99 32.5508 1051.88 35.8416 1051.99 39.7834C1051.99 39.8558 1051.99 39.8919 1051.99 39.9643C1051.73 43.9422 1054.81 47.3415 1058.84 47.5585C1058.92 47.5585 1059.03 47.5585 1059.1 47.5585C1061.45 47.5224 1063.68 46.5098 1065.26 44.8101L1067.68 47.2331C1065.48 49.7283 1062.29 51.1025 1058.95 50.994C1052.94 51.0302 1048.06 46.2566 1048.03 40.3259C1047.99 40.2536 1047.99 40.1812 1048.03 40.0727ZM1093.61 29.3684H1097.38V47.2331H1108.75V50.6324H1093.61V29.3684ZM1111.43 29.3684H1115.2V47.2331H1126.57V50.6324H1111.46V29.3684H1111.43ZM1129.5 29.3684H1133.28V50.6324H1129.5V29.3684ZM1136.36 47.5585L1138.64 44.8824C1140.47 46.6183 1142.89 47.6309 1145.46 47.6309C1147.8 47.6309 1149.27 46.5821 1149.27 44.9548C1149.27 43.4359 1148.39 42.6042 1144.39 41.7001C1139.85 40.5429 1137.28 39.1687 1137.28 35.263C1137.5 31.6829 1140.62 28.9345 1144.25 29.1515C1144.39 29.1515 1144.5 29.1876 1144.65 29.1876C1147.51 29.1515 1150.26 30.0917 1152.46 31.8637L1150.41 34.7206C1148.76 33.3825 1146.7 32.6231 1144.58 32.5508C1142.38 32.5508 1141.06 33.6719 1141.06 35.0822C1141.06 36.7096 1142.05 37.4328 1146.15 38.4092C1150.26 39.3856 1153.08 41.1215 1153.08 44.6293C1153.08 48.6073 1150 50.9579 1145.38 50.9579C1142.05 50.994 1138.82 49.7645 1136.36 47.5585ZM1155.32 40.0727C1155.65 33.925 1160.97 29.2238 1167.2 29.5131C1172.96 29.8024 1177.58 34.3589 1177.91 40.0727C1177.58 46.2205 1172.26 50.9217 1166.03 50.6324C1160.23 50.3431 1155.65 45.7865 1155.32 40.0727ZM1173.8 40.0727C1173.95 36.0586 1170.76 32.6593 1166.69 32.5146C1166.61 32.5146 1166.54 32.5146 1166.47 32.5146C1162.43 32.5146 1159.17 35.7693 1159.21 39.7473C1159.21 39.8558 1159.21 39.9281 1159.21 40.0366C1159.06 44.0507 1162.25 47.45 1166.32 47.5947C1166.39 47.5947 1166.47 47.5947 1166.54 47.5947C1170.57 47.5947 1173.84 44.34 1173.8 40.362C1173.8 40.2897 1173.8 40.1812 1173.8 40.0727ZM1184.25 29.3684H1180.73V50.6686H1184.47V35.5162L1196.39 50.6686H1201.01L1184.25 29.3684ZM1078.1 29.2238L1068.64 50.6324H1072.52L1079.82 33.6719L1083.56 42.2064H1079.89L1078.46 45.4972H1084.92L1087.12 50.6324H1091.11L1081.62 29.1876H1078.1V29.2238Z" fill="white"/>
<defs>
<clipPath id="clip0_3078_888">
<rect width="150" height="50" fill="white" transform="translate(398 15)"/>
</clipPath>
<clipPath id="clip1_3078_888">
<rect width="170" height="40" fill="white" transform="translate(808 20)"/>
</clipPath>
</defs>
</svg>
