<svg width="1144" height="80" viewBox="0 0 1144 80" fill="none" xmlns="http://www.w3.org/2000/svg">
<g clip-path="url(#clip0_3078_806)">
<path d="M33.1007 36.0426H36.4014V34.4643H33.1007V32.1955H36.6106V30.6172H31.4038V40.2843H36.7966V38.6813H33.1007V36.0426Z" fill="white"/>
<path d="M43.003 34.7109C43.003 35.5247 43.003 36.2892 43.0495 37.0537C42.7938 36.5358 42.4917 35.9933 42.1197 35.3521L39.3071 30.6172H37.6567V40.2843H39.2606V36.1166C39.2606 35.1795 39.2606 34.415 39.2374 33.6998C39.5163 34.2423 39.865 34.8589 40.2834 35.574L43.0728 40.3089H44.6302V30.6172H43.003V34.7109Z" fill="white"/>
<path d="M48.3262 30.6172L45.2114 40.2843H46.9548L47.8381 37.4483H50.4415L51.348 40.2843H53.1379L50.0463 30.6172H48.3262ZM50.0463 35.9193H48.2797L48.9771 33.6998C49.0468 33.5025 49.0933 33.3052 49.1398 33.1079C49.1863 33.3052 49.256 33.5025 49.3257 33.7245L50.0463 35.9193Z" fill="white"/>
<path d="M55.3922 30.6172H53.6953V40.2843H55.3922V30.6172Z" fill="white"/>
<path d="M59.6927 34.5625C58.5304 34.0939 58.1818 33.7486 58.1818 33.1075C58.1818 32.6142 58.5304 32.047 59.5067 32.047C60.1576 32.047 60.6689 32.2443 60.9711 32.4416L61.2733 32.6389L61.7614 31.0853L61.5522 30.962C61.0641 30.6414 60.3203 30.4688 59.53 30.4688C57.7401 30.4688 56.4849 31.6031 56.4849 33.2308C56.4849 34.5131 57.2752 35.4502 58.9256 36.0914C60.1111 36.56 60.3435 37.0039 60.3435 37.5957C60.3435 38.3602 59.7856 38.8288 58.8559 38.8288C58.205 38.8288 57.5541 38.6315 57.0428 38.2862L56.7173 38.0643L56.2524 39.6426L56.4384 39.7659C56.973 40.1358 57.9261 40.4071 58.7861 40.4071C61.0409 40.4071 62.0404 38.9274 62.0404 37.4724C62.0404 36.1161 61.343 35.2283 59.6927 34.5625Z" fill="white"/>
<path d="M65.9222 34.5625C64.7599 34.0939 64.4113 33.7486 64.4113 33.1075C64.4113 32.6142 64.7599 32.047 65.7362 32.047C66.3871 32.047 66.9217 32.2443 67.2006 32.4416L67.5028 32.6389L67.9909 31.0853L67.7817 30.962C67.2936 30.6414 66.5498 30.4688 65.7594 30.4688C63.9696 30.4688 62.7144 31.6031 62.7144 33.2308C62.7144 34.5131 63.5047 35.4502 65.1551 36.0914C66.3406 36.56 66.573 37.0039 66.573 37.5957C66.573 38.3602 66.0151 38.8288 65.0853 38.8288C64.4577 38.8288 63.7836 38.6315 63.2723 38.2862L62.9468 38.0643L62.4819 39.6426L62.6679 39.7659C63.2025 40.1358 64.1556 40.4071 65.0156 40.4071C67.2704 40.4071 68.2699 38.9274 68.2699 37.4724C68.2699 36.1161 67.5725 35.2283 65.9222 34.5625Z" fill="white"/>
<path d="M71.5708 30.6172L68.4561 40.2843H70.1994L71.0827 37.4483H73.6861L74.5927 40.2843H76.3825L73.291 30.6172H71.5708ZM73.291 35.9193H71.5244L72.2217 33.6998C72.2914 33.5025 72.3379 33.3052 72.3844 33.1079C72.4309 33.3052 72.5006 33.5025 72.5704 33.7245L73.291 35.9193Z" fill="white"/>
<path d="M82.3329 34.7109C82.3329 35.5247 82.3329 36.2892 82.3794 37.0537C82.1237 36.5358 81.7983 35.9686 81.4496 35.3521L78.6138 30.6172H76.9634V40.2843H78.5673V36.1166C78.5673 35.1795 78.5673 34.415 78.544 33.6998C78.823 34.2423 79.1716 34.8589 79.59 35.574L82.3794 40.3089H83.9368V30.6172H82.3329V34.7109Z" fill="white"/>
<path d="M89.5623 32.0471C90.3759 32.0471 90.9106 32.269 91.143 32.3923L91.4452 32.5649L91.8868 31.036L91.6776 30.9126C91.4917 30.814 90.7943 30.4688 89.5159 30.4688C86.68 30.4688 84.7739 32.4909 84.7739 35.5242C84.7739 38.5082 86.5405 40.4318 89.2602 40.4318C90.3992 40.4318 91.236 40.1852 91.6544 39.9632L91.8636 39.8646L91.5149 38.3356L91.1895 38.5082C90.7711 38.7302 90.1202 38.8535 89.5159 38.8535C87.6563 38.8535 86.5405 37.5958 86.5405 35.5242C86.5173 33.3294 87.6563 32.0471 89.5623 32.0471Z" fill="white"/>
<path d="M94.3043 38.6813V36.0426H97.605V34.4643H94.3043V32.1955H97.8142V30.6172H92.6074V40.2843H98.0002V38.6813H94.3043Z" fill="white"/>
<path d="M29.6372 49.6544C29.2885 49.8517 28.5679 50.0243 27.6381 50.0243C25.4996 50.0243 23.9189 48.594 23.9189 45.9553C23.9189 43.4399 25.5228 41.7383 27.8706 41.7383C28.8004 41.7383 29.4047 41.9602 29.6604 42.0835L29.4047 42.922C29.056 42.7247 28.5214 42.6014 27.8938 42.6014C26.1272 42.6014 24.9417 43.8098 24.9417 45.906C24.9417 47.8788 26.011 49.1366 27.8241 49.1366C28.4284 49.1366 29.0328 49.0132 29.428 48.816L29.6372 49.6544Z" fill="white"/>
<path d="M37.099 45.8073C37.099 48.5447 35.5184 50.0243 33.5891 50.0243C31.59 50.0243 30.1953 48.3721 30.1953 45.9553C30.1953 43.4152 31.683 41.7383 33.682 41.7383C35.7508 41.7629 37.099 43.4399 37.099 45.8073ZM31.2181 45.9306C31.2181 47.6569 32.1014 49.1859 33.6355 49.1859C35.1929 49.1859 36.053 47.6816 36.053 45.8567C36.053 44.2537 35.2627 42.5768 33.6355 42.5768C32.0084 42.5768 31.2181 44.1797 31.2181 45.9306Z" fill="white"/>
<path d="M38.354 49.9015V41.8867H39.4233L41.8407 45.9558C42.3986 46.8929 42.8402 47.7314 43.1889 48.5698H43.2122C43.1192 47.5094 43.0959 46.523 43.0959 45.2899V41.8867H44.0257V49.9015H43.0495L40.6552 45.8325C40.1206 44.9447 39.6325 44.0322 39.2605 43.1691H39.2373C39.2838 44.1802 39.307 45.142 39.307 46.4736V49.9015H38.354Z" fill="white"/>
<path d="M45.6063 48.6431C46.0479 48.939 46.6755 49.161 47.3496 49.161C48.3492 49.161 48.9303 48.5938 48.9303 47.8046C48.9303 47.0648 48.5351 46.6209 47.5123 46.2263C46.2804 45.7578 45.5133 45.0673 45.5133 43.9329C45.5133 42.6751 46.4896 41.7627 47.954 41.7627C48.7211 41.7627 49.2789 41.96 49.6044 42.1573L49.3254 42.9957C49.093 42.8478 48.5816 42.6258 47.9075 42.6258C46.8847 42.6258 46.4896 43.267 46.4896 43.8342C46.4896 44.574 46.9545 44.944 48.0005 45.3878C49.2789 45.9057 49.9066 46.5716 49.9066 47.7306C49.9066 48.9637 49.0465 50.0488 47.2799 50.0488C46.5593 50.0488 45.7457 49.8022 45.3506 49.5309L45.6063 48.6431Z" fill="white"/>
<path d="M52.6728 42.7745H50.3716V41.8867H55.9503V42.7745H53.6491V49.9015H52.6728V42.7745Z" fill="white"/>
<path d="M56.8105 42.0095C57.2987 41.9109 58.0193 41.8369 58.6701 41.8369C59.7161 41.8369 60.3902 42.0589 60.8551 42.5028C61.2271 42.848 61.4595 43.4152 61.4595 44.0317C61.4595 45.0675 60.9016 45.8813 60.0881 46.1772C59.5999 46.3499 59.135 46.3252 59.135 46.3252C59.135 46.3252 61.9244 49.6298 62.0871 49.9257H60.7157C60.5995 49.6791 57.7868 46.4485 57.7868 46.4485V49.9257H56.8105V42.0095ZM57.7868 45.6594H58.7864C59.8324 45.6594 60.4832 45.0428 60.4832 44.1304C60.4832 43.0946 59.7859 42.6507 58.7399 42.6507C58.275 42.6507 57.9495 42.6754 57.7868 42.7247V45.6594Z" fill="white"/>
<path d="M64.1092 47.3861L63.3189 49.9015H62.3193L64.8995 41.8867H66.0617L68.6419 49.9015H67.5959L66.7823 47.3861H64.1092ZM66.5964 46.5723L65.8525 44.2788C65.6898 43.7609 65.5736 43.2924 65.4574 42.8238H65.4341C65.3179 43.2924 65.2017 43.7856 65.0622 44.2788L64.3184 46.597H66.5964V46.5723Z" fill="white"/>
<path d="M74.8252 49.6544C74.4765 49.8517 73.7559 50.0243 72.8261 50.0243C70.6876 50.0243 69.1069 48.594 69.1069 45.9553C69.1069 43.4399 70.7108 41.7383 73.0585 41.7383C73.9883 41.7383 74.5927 41.9602 74.8484 42.0835L74.5927 42.922C74.244 42.7247 73.7094 42.6014 73.0818 42.6014C71.3152 42.6014 70.1297 43.8098 70.1297 45.906C70.1297 47.8788 71.199 49.1366 73.0121 49.1366C73.6164 49.1366 74.2208 49.0132 74.616 48.816L74.8252 49.6544Z" fill="white"/>
<path d="M77.8003 42.7745H75.499V41.8867H81.0778V42.7745H78.7998V49.9015H77.8235V42.7745H77.8003Z" fill="white"/>
<path d="M82.9143 41.8867V49.9015H81.938V41.8867H82.9143Z" fill="white"/>
<path d="M91.0731 45.8073C91.0731 48.5447 89.4925 50.0243 87.5632 50.0243C85.5641 50.0243 84.1694 48.3721 84.1694 45.9553C84.1694 43.4152 85.6571 41.7383 87.6561 41.7383C89.7249 41.7629 91.0731 43.4399 91.0731 45.8073ZM85.1922 45.9306C85.1922 47.6569 86.0755 49.1859 87.6097 49.1859C89.1438 49.1859 90.0271 47.6816 90.0271 45.8567C90.0271 44.2537 89.2368 42.5768 87.6097 42.5768C86.0058 42.6014 85.1922 44.1797 85.1922 45.9306Z" fill="white"/>
<path d="M92.3281 49.9015V41.8867H93.3974L95.8148 45.9311C96.3727 46.8682 96.8144 47.7067 97.163 48.5452H97.1863C97.0933 47.4847 97.0701 46.4983 97.0701 45.2653V41.8867H97.9999V49.9015H97.0236L94.6061 45.8325C94.0715 44.9447 93.5833 44.0322 93.2114 43.1691H93.1882C93.2347 44.1802 93.2579 45.142 93.2579 46.4736V49.9015H92.3281Z" fill="white"/>
<path d="M27.2895 35.8449C27.522 35.8202 27.8474 35.7956 28.1961 35.6722C29.2653 35.2777 29.9627 34.1926 29.9627 32.9102C29.9627 32.1211 29.6837 31.3812 29.1956 30.9127C28.5912 30.3455 27.7079 30.0742 26.4295 30.0742C25.6624 30.0742 24.7791 30.1482 24.105 30.2715L23.9888 30.2962V40.2838H25.4764V36.2641C26.8479 37.8424 28.8469 40.2838 28.8469 40.2838H30.9622C30.939 40.2838 28.0799 36.782 27.2895 35.8449ZM28.475 33.0335C28.475 34.0693 27.7079 34.7598 26.5225 34.7598H25.4532V31.4306C25.6159 31.4059 25.9413 31.3566 26.4992 31.3566C27.4058 31.3566 28.475 31.6525 28.475 33.0335Z" fill="white"/>
<path d="M0.348697 31.1102C1.53418 30.6416 2.76615 30.395 4.02137 30.2471C9.62335 29.7292 14.4815 30.5183 16.899 32.5652C18.2704 33.7489 18.5261 35.8698 17.3871 37.3248C17.2011 37.596 16.9454 37.7933 16.713 37.9906C14.7837 39.2483 12.4127 39.3716 8.36813 39.8402C7.55457 39.8402 6.81073 39.9635 6.0669 40.1608C6.0669 40.2841 12.2268 43.5886 13.3425 44.1805C14.6442 44.9203 22.4312 49.4826 22.6869 49.8032C22.8031 50.0005 21.6874 49.8032 21.4317 49.6799C20.0602 48.9647 18.5726 48.1016 18.4331 48.4222C18.3169 48.7428 19.1072 49.4086 18.5493 49.4086C18.2936 49.4086 13.8771 47.0905 13.389 46.8439C12.9009 46.5726 11.9478 46.0547 11.7619 46.4493C11.5759 46.8439 12.0176 47.5837 11.6456 47.5097C8.64707 46.1287 5.74148 44.5997 2.92886 42.8981C1.02279 41.4925 0.534655 39.5196 1.76663 38.3852C3.76567 36.5356 6.29935 36.8562 9.8558 36.3383C11.1575 36.141 13.2728 35.8204 13.2728 34.6121C13.2263 32.3186 11.0413 31.7267 6.3226 31.1842C4.95116 30.9869 3.57972 31.0609 2.27801 31.2582C1.76663 31.3321 2.09205 31.0609 1.27849 31.1842C0.906571 31.2582 0.581144 31.3321 0.209229 31.2582" fill="white"/>
</g>
<g clip-path="url(#clip1_3078_806)">
<path fill-rule="evenodd" clip-rule="evenodd" d="M188.21 20.4375C188.21 20.4375 183.779 25.0749 183.779 34.0408C183.779 43.0067 187.695 48.7774 187.695 48.7774L173.37 34.2469L188.21 20.4375Z" fill="white"/>
<path fill-rule="evenodd" clip-rule="evenodd" d="M190.58 34.4532C190.979 25.1869 193.193 19.2994 198.856 19.5434C204.518 19.7875 205.353 24.362 205.353 24.362C205.353 24.362 201.248 23.8758 201.057 28.303C200.866 32.7303 205.191 32.9164 205.293 32.9208C205.396 32.9251 209.395 32.5775 210.367 29.5064C211.673 25.378 208.718 20.8495 208.718 20.8495L222.939 34.762L208.306 48.8808C208.306 48.8808 210.161 45.3765 209.749 40.4303C209.481 37.2201 205.317 36.6172 205.214 36.6172C205.111 36.6172 200.783 36.6172 200.783 41.0485C200.783 45.4798 204.905 45.1704 204.905 45.1704C204.905 45.1704 203.875 49.705 198.207 49.705C192.538 49.7057 190.58 43.7279 190.58 34.4532ZM173.689 56.5998C174.215 55.7954 175.143 55.373 176.101 55.373C176.802 55.373 177.389 55.5894 177.864 56.1052L177.884 56.0846C177.832 55.693 178.111 55.4148 178.523 55.4148C178.915 55.4148 179.183 55.6828 179.183 56.0743C179.183 56.4245 179.1 56.7651 179.1 57.1153C179.1 57.3938 179.183 57.6715 179.183 57.9501C179.183 58.4242 178.739 58.6614 178.317 58.6614C177.76 58.6614 177.513 58.4036 177.534 57.8474C177.544 57.5482 177.544 57.4041 177.348 57.1669C177.132 56.9092 176.791 56.8472 176.472 56.8472C175.514 56.8472 175.04 57.4558 175.04 59.1357C175.04 60.712 175.514 61.362 176.524 61.362C176.802 61.362 177.111 61.3206 177.317 61.1248C177.564 60.8979 177.575 60.6713 177.575 60.3618C177.575 60.1247 177.575 59.9394 177.709 59.7331C177.843 59.527 178.09 59.4442 178.338 59.4442C179.007 59.4442 179.306 59.9289 179.306 60.5471C179.306 62.1034 177.833 62.825 176.452 62.825C175.514 62.825 174.607 62.557 173.947 61.8457C173.329 61.1758 173.061 60.0528 173.061 59.156C173.061 58.3417 173.236 57.2899 173.689 56.5998ZM181.882 58.5885C181.882 59.0626 181.428 59.2792 180.996 59.2792C180.49 59.2792 180.047 58.9188 180.047 58.3927C180.047 57.7434 180.707 57.156 182.294 57.156C182.809 57.156 183.51 57.2077 183.964 57.4654C184.51 57.7742 184.623 58.2691 184.623 59.0523V60.99C184.623 61.3919 184.685 61.4747 184.799 61.4747C184.881 61.4747 184.964 61.4541 185.046 61.4541C185.376 61.4541 185.561 61.7327 185.561 62.0312C185.561 62.6086 184.984 62.8253 184.5 62.8253C184.026 62.8253 183.5 62.6503 183.325 62.1657C182.84 62.6295 182.212 62.8253 181.562 62.8253C180.625 62.8253 179.728 62.3304 179.728 61.2792C179.728 58.8363 182.923 60.1041 182.923 58.7438C182.923 58.3516 182.562 58.1664 182.222 58.1664C182.047 58.1664 181.882 58.1976 181.882 58.4036L181.882 58.5885ZM182.923 60.3301C182.624 60.6498 181.428 60.4948 181.428 61.0414C181.428 61.4018 181.717 61.526 182.016 61.526C182.624 61.526 182.923 61.1649 182.923 60.557V60.3301ZM188.033 58.5269H188.053C188.218 57.6818 188.847 57.2077 189.712 57.2077C190.434 57.2077 191.073 57.7537 191.073 58.4961C191.073 59.0215 190.743 59.5058 190.187 59.5058C189.795 59.5058 189.465 59.2481 189.465 58.836C189.465 58.6919 189.527 58.5574 189.589 58.4341C188.434 58.3513 188.403 59.9183 188.403 60.7425C188.403 61.3511 188.465 61.4641 188.589 61.4641C188.64 61.4641 188.692 61.4435 188.743 61.4227C188.805 61.4021 188.867 61.3915 188.929 61.3915C189.269 61.3915 189.383 61.6701 189.383 61.9795C189.383 62.3711 189.207 62.6902 188.867 62.6902C188.311 62.6902 187.899 62.5875 187.476 62.5875C187.084 62.5875 186.693 62.6902 186.322 62.6902C185.982 62.6902 185.807 62.3711 185.807 61.9795C185.807 61.6701 185.92 61.3915 186.26 61.3915C186.332 61.3915 186.384 61.4121 186.446 61.4227C186.497 61.4329 186.549 61.4641 186.6 61.4641C186.724 61.4641 186.786 61.3614 186.786 60.7425V59.2584C186.786 58.6193 186.734 58.5375 186.6 58.5375C186.497 58.5375 186.394 58.6091 186.26 58.6091C185.92 58.6091 185.807 58.3305 185.807 58.0217C185.807 57.6301 185.982 57.3104 186.322 57.3104C186.621 57.3104 186.827 57.4138 187.033 57.4138C187.26 57.4138 187.476 57.3104 187.713 57.3104C187.94 57.3104 188.033 57.3826 188.033 57.7537V58.5269Z" fill="white"/>
<path fill-rule="evenodd" clip-rule="evenodd" d="M193.08 58.5272H193.1C193.265 57.6821 193.894 57.208 194.76 57.208C195.481 57.208 196.12 57.754 196.12 58.4964C196.12 59.0218 195.79 59.5061 195.234 59.5061C194.842 59.5061 194.512 59.2484 194.512 58.8363C194.512 58.6922 194.574 58.5577 194.636 58.4344C193.482 58.3516 193.45 59.9186 193.45 60.7428C193.45 61.3514 193.512 61.4644 193.636 61.4644C193.687 61.4644 193.739 61.4438 193.79 61.423C193.852 61.4024 193.914 61.3918 193.976 61.3918C194.316 61.3918 194.43 61.6704 194.43 61.9798C194.43 62.3714 194.255 62.6905 193.914 62.6905C193.358 62.6905 192.946 62.5878 192.523 62.5878C192.131 62.5878 191.739 62.6905 191.369 62.6905C191.029 62.6905 190.854 62.3714 190.854 61.9798C190.854 61.6704 190.967 61.3918 191.307 61.3918C191.379 61.3918 191.431 61.4124 191.493 61.423C191.544 61.4332 191.596 61.4644 191.647 61.4644C191.771 61.4644 191.833 61.3617 191.833 60.7428V59.2587C191.833 58.6196 191.781 58.5378 191.647 58.5378C191.544 58.5378 191.441 58.6094 191.307 58.6094C190.967 58.6094 190.854 58.3308 190.854 58.022C190.854 57.6304 191.029 57.3107 191.369 57.3107C191.667 57.3107 191.874 57.4141 192.08 57.4141C192.307 57.4141 192.523 57.3107 192.76 57.3107C192.987 57.3107 193.08 57.3829 193.08 57.754V58.5272ZM198.006 60.2793C197.738 60.2793 197.707 60.3201 197.707 60.4951C197.707 61.0831 198.171 61.526 198.769 61.526C199.129 61.526 199.315 61.4329 199.603 61.1241C199.934 60.7733 200.047 60.7114 200.387 60.7114C200.789 60.7114 201.098 60.9486 201.098 61.3613C201.098 62.1445 200.088 62.8246 198.748 62.8246C197.058 62.8246 196.007 61.6907 196.007 60.0213C196.007 58.3927 197.017 57.156 198.707 57.156C200.294 57.156 201.191 58.1045 201.191 59.6297C201.191 60.1032 201.129 60.279 200.51 60.279L198.006 60.2793ZM199.232 59.1354C199.47 59.1354 199.49 59.0735 199.49 58.9605C199.49 58.6819 199.232 58.3214 198.717 58.3214C198.192 58.3214 197.759 58.7233 197.759 58.9913C197.759 59.1251 197.892 59.1354 198.192 59.1354H199.232ZM202.445 58.8568C202.445 58.455 202.414 58.455 202.095 58.455C201.693 58.455 201.466 58.3619 201.466 57.909C201.466 57.4866 201.621 57.3005 202.044 57.3005C202.435 57.3005 202.445 57.2597 202.456 56.9605C202.497 55.8372 203.465 55.373 204.486 55.373C204.826 55.373 205.248 55.435 205.548 55.5894C205.898 55.7749 206.166 56.1049 206.166 56.5067C206.166 56.9602 205.856 57.3104 205.393 57.3104C205.053 57.3104 204.692 57.0732 204.692 56.7025C204.692 56.5895 204.723 56.5276 204.785 56.4239C204.713 56.3928 204.661 56.3825 204.579 56.3825C204.197 56.3825 204.064 56.6094 204.064 56.9705C204.064 57.3001 204.084 57.3001 204.414 57.3001C205.032 57.3001 205.146 57.4654 205.146 57.857C205.146 58.3305 205.012 58.4547 204.28 58.4547C204.094 58.4547 204.064 58.5779 204.064 58.8565V60.7425C204.064 61.3613 204.105 61.4641 204.25 61.4641C204.311 61.4641 204.363 61.4435 204.414 61.4227C204.466 61.4124 204.528 61.3915 204.589 61.3915C204.93 61.3915 205.043 61.6701 205.043 61.9795C205.043 62.3711 204.868 62.6902 204.435 62.6902C203.991 62.6902 203.579 62.5874 203.157 62.5874C202.765 62.5874 202.373 62.6799 202.034 62.6902C201.642 62.6902 201.467 62.3711 201.467 61.9795C201.467 61.6701 201.58 61.3915 201.921 61.3915C201.992 61.3915 202.054 61.4121 202.106 61.4227C202.167 61.4432 202.219 61.4641 202.26 61.4641C202.425 61.4641 202.446 61.2477 202.446 60.7425V58.8568H202.445Z" fill="white"/>
<path fill-rule="evenodd" clip-rule="evenodd" d="M210.702 59.9281C210.702 61.6389 209.837 62.8246 208.034 62.8246C206.24 62.8246 205.281 61.7528 205.281 59.9904C205.281 58.2382 206.24 57.1563 208.023 57.1563C209.713 57.1559 210.702 58.2691 210.702 59.9281ZM206.982 59.9904C206.982 61.1857 207.518 61.5262 207.94 61.5262C208.301 61.5262 208.61 61.4229 208.775 61.083C208.929 60.7633 209.002 60.3406 209.002 59.9904C209.002 58.7945 208.548 58.4546 207.992 58.4546C207.507 58.4546 206.982 58.8359 206.982 59.9904ZM213.071 60.3406C213.071 60.5569 213.071 60.918 213.194 61.1244C213.257 61.2211 213.342 61.3008 213.443 61.3565C213.544 61.4121 213.656 61.442 213.772 61.4434C213.92 61.4427 214.066 61.4046 214.195 61.3326C214.325 61.2605 214.434 61.1569 214.513 61.0313C214.73 60.7017 214.751 60.3509 214.751 59.9699V59.2586C214.751 58.7023 214.709 58.5377 214.565 58.5377C214.513 58.5377 214.462 58.5576 214.411 58.5688C214.349 58.5887 214.297 58.6096 214.225 58.6096C213.885 58.6096 213.772 58.331 213.772 58.0222C213.772 57.6306 213.946 57.311 214.4 57.311C214.74 57.311 214.967 57.4143 215.307 57.4143C215.585 57.4143 215.781 57.311 216.039 57.311C216.307 57.311 216.369 57.4246 216.369 57.6515V60.7431C216.369 61.3619 216.441 61.4646 216.555 61.4646C216.657 61.4646 216.761 61.3924 216.895 61.3924C217.235 61.3924 217.348 61.671 217.348 61.9804C217.348 62.372 217.173 62.691 216.74 62.691C216.482 62.691 216.245 62.5883 216.008 62.5883C215.781 62.5883 215.555 62.691 215.359 62.691C215.101 62.691 214.988 62.5161 214.988 62.3511V61.939H214.967C214.586 62.5055 213.844 62.8255 213.154 62.8255C212.092 62.8255 211.454 62.2073 211.454 61.1658V59.2592C211.454 58.6304 211.381 58.5383 211.267 58.5383C211.216 58.5383 211.165 58.5582 211.113 58.5694C211.051 58.5894 211 58.6102 210.927 58.6102C210.588 58.6102 210.474 58.3316 210.474 58.0228C210.474 57.6313 210.649 57.3116 211.134 57.3116C211.463 57.3116 211.731 57.4149 212.072 57.4149C212.391 57.4149 212.545 57.3116 212.803 57.3116C213.071 57.3116 213.071 57.5074 213.071 57.7754V60.3406H213.071Z" fill="white"/>
<path fill-rule="evenodd" clip-rule="evenodd" d="M219.459 58.5272H219.48C219.645 57.6821 220.273 57.208 221.139 57.208C221.86 57.208 222.5 57.754 222.5 58.4964C222.5 59.0218 222.17 59.5061 221.613 59.5061C221.221 59.5061 220.892 59.2484 220.892 58.8363C220.892 58.6922 220.953 58.5577 221.015 58.4344C219.861 58.3516 219.83 59.9186 219.83 60.7428C219.83 61.3514 219.892 61.4644 220.016 61.4644C220.067 61.4644 220.119 61.4438 220.17 61.423C220.232 61.4024 220.294 61.3918 220.356 61.3918C220.696 61.3918 220.809 61.6704 220.809 61.9798C220.809 62.3714 220.634 62.6905 220.294 62.6905C219.738 62.6905 219.325 62.5878 218.903 62.5878C218.511 62.5878 218.119 62.6905 217.748 62.6905C217.408 62.6905 217.233 62.3714 217.233 61.9798C217.233 61.6704 217.346 61.3918 217.687 61.3918C217.759 61.3918 217.81 61.4124 217.872 61.423C217.923 61.4332 217.975 61.4644 218.027 61.4644C218.15 61.4644 218.212 61.3616 218.212 60.7428V59.2587C218.212 58.6196 218.161 58.5378 218.027 58.5378C217.923 58.5378 217.821 58.6094 217.687 58.6094C217.346 58.6094 217.233 58.3308 217.233 58.022C217.233 57.6304 217.408 57.3107 217.748 57.3107C218.047 57.3107 218.253 57.4141 218.46 57.4141C218.686 57.4141 218.903 57.3107 219.14 57.3107C219.367 57.3107 219.459 57.3829 219.459 57.754L219.459 58.5272Z" fill="white"/>
</g>
<path d="M341.87 25.7366H336.24C335.61 25.7366 335.1 26.2768 335.1 26.9466C335.1 27.6156 335.61 28.1583 336.24 28.1583L337.612 28.1641L337.613 28.1632L341.87 28.1641C342.501 28.1641 343.013 27.6214 343.013 26.9516C343.013 26.2809 342.501 25.7366 341.87 25.7366Z" fill="white"/>
<path d="M304.748 33.8207C304.083 33.8207 303.544 33.2781 303.544 32.6082C303.544 31.9384 304.083 31.3957 304.748 31.3957H315.312C315.897 31.3957 316.225 31.1108 316.342 30.7036C316.417 30.441 316.839 29.7612 317.693 29.7612H334.281C334.281 29.7612 334.345 29.7537 334.376 29.7843C334.404 29.8149 334.411 29.8595 334.411 29.8595V32.1713C334.411 32.1713 334.396 32.2382 334.361 32.2589C334.305 32.2911 334.251 32.2828 334.251 32.2828L329.746 32.2754C329.2 32.2754 328.727 32.6974 328.727 33.2459V48.6134C328.727 48.6134 328.727 49.4014 328.087 49.8317C328.087 49.8317 323.349 52.9067 323.065 53.1008C322.83 53.2635 322.288 53.4865 321.806 53.1338C321.464 52.8836 321.423 52.2955 321.423 52.2955V33.4895C321.423 32.5661 320.875 32.2787 320.209 32.2787L317.996 32.2779C317.324 32.2721 317.083 32.5322 316.968 32.9394C316.893 33.2021 316.544 33.8158 315.646 33.8158H314.992C314.555 33.8158 314.204 34.1742 314.204 34.6128V49.8036C314.204 49.8036 314.228 51.0682 313.54 52.0841C312.986 52.9018 311.716 53.6426 311.716 53.6426L306.439 57.176C306.439 57.176 304.297 58.6693 301.89 57.7732C300.076 57.0976 299.781 55.881 299.979 54.7849C300.178 53.6914 301.46 53.0488 302.254 53.0934C303.234 53.1479 304.023 53.4882 304.493 54.6528C304.884 55.6183 305.188 55.947 305.681 55.9809C306.175 56.0148 306.635 55.3498 306.635 54.1217C306.635 52.8935 306.635 34.6037 306.635 34.6037C306.635 34.1742 306.29 33.8249 305.863 33.8249L304.748 33.8207Z" fill="white"/>
<path d="M341.87 25.7366H336.24C335.61 25.7366 335.1 26.2768 335.1 26.9466C335.1 27.6156 335.61 28.1583 336.24 28.1583L337.612 28.1641L337.613 28.1632L341.87 28.1641C342.501 28.1641 343.013 27.6214 343.013 26.9516C343.013 26.2809 342.501 25.7366 341.87 25.7366Z" fill="white"/>
<path d="M304.748 33.8207C304.083 33.8207 303.544 33.2781 303.544 32.6082C303.544 31.9384 304.083 31.3957 304.748 31.3957H315.312C315.897 31.3957 316.225 31.1108 316.342 30.7036C316.417 30.441 316.839 29.7612 317.693 29.7612H334.281C334.281 29.7612 334.345 29.7537 334.376 29.7843C334.404 29.8149 334.411 29.8595 334.411 29.8595V32.1713C334.411 32.1713 334.396 32.2382 334.361 32.2589C334.305 32.2911 334.251 32.2828 334.251 32.2828L329.746 32.2754C329.2 32.2754 328.727 32.6974 328.727 33.2459V48.6134C328.727 48.6134 328.727 49.4014 328.087 49.8317C328.087 49.8317 323.349 52.9067 323.065 53.1008C322.83 53.2635 322.288 53.4865 321.806 53.1338C321.464 52.8836 321.423 52.2955 321.423 52.2955V33.4895C321.423 32.5661 320.875 32.2787 320.209 32.2787L317.996 32.2779C317.324 32.2721 317.083 32.5322 316.968 32.9394C316.893 33.2021 316.544 33.8158 315.646 33.8158H314.992C314.555 33.8158 314.204 34.1742 314.204 34.6128V49.8036C314.204 49.8036 314.228 51.0682 313.54 52.0841C312.986 52.9018 311.716 53.6426 311.716 53.6426L306.439 57.176C306.439 57.176 304.297 58.6693 301.89 57.7732C300.076 57.0976 299.781 55.881 299.979 54.7849C300.178 53.6914 301.46 53.0488 302.254 53.0934C303.234 53.1479 304.023 53.4882 304.493 54.6528C304.884 55.6183 305.188 55.947 305.681 55.9809C306.175 56.0148 306.635 55.3498 306.635 54.1217C306.635 52.8935 306.635 34.6037 306.635 34.6037C306.635 34.1742 306.29 33.8249 305.863 33.8249L304.748 33.8207Z" fill="white"/>
<path d="M342.717 29.7683V44.3099C342.717 44.3099 342.715 45.0987 342.075 45.5274C342.075 45.5274 337.336 48.604 337.054 48.7973C336.819 48.96 336.275 49.1838 335.796 48.8311C335.452 48.5801 335.414 47.992 335.414 47.992V29.7683H342.717Z" fill="white"/>
<path d="M441.478 26.8125H478.523C485.739 26.8125 491.631 32.6933 491.631 40C491.631 47.3073 485.739 53.1885 478.523 53.1885H441.478C434.262 53.1885 428.369 47.3071 428.369 40C428.369 32.6932 434.262 26.8125 441.478 26.8125Z" stroke="white" stroke-width="12" stroke-miterlimit="2.613"/>
<path fill-rule="evenodd" clip-rule="evenodd" d="M446.486 42.2843C446.327 42.0461 446.069 41.9859 445.803 41.9859C445.327 41.9859 445.006 42.3922 445.006 42.9085C445.006 43.4331 445.331 43.8133 445.815 43.8133C446.069 43.8133 446.322 43.7444 446.485 43.5277V44.4997C446.227 44.589 446.041 44.6554 445.799 44.6554C445.382 44.6554 444.986 44.4777 444.676 44.1631C444.347 43.8307 444.196 43.3978 444.196 42.9035C444.196 42.4486 444.351 42.0129 444.637 41.6841C444.93 41.3471 445.355 41.1434 445.775 41.1434C446.025 41.1434 446.255 41.2048 446.485 41.3119V42.2843H446.486ZM450.389 41.2297H451.11L452.436 43.2708H452.444V41.2297H453.164V44.5686H452.444L451.117 42.5225H451.11V44.5686H450.389V41.2297ZM457.176 44.5686H456.401V41.9647H455.827V41.2305H457.751V41.9647H457.176V44.5686ZM458.877 41.8921H458.952C459.207 41.8921 459.493 41.9456 459.493 42.3088C459.493 42.6719 459.207 42.7255 458.952 42.7255H458.877V41.8921ZM459.614 43.1994C460.039 43.1152 460.27 42.7163 460.27 42.2561C460.27 41.5435 459.821 41.2297 459.229 41.2297H458.068V44.5686H458.843V43.2837H458.851L459.586 44.5686H460.555L459.614 43.1994ZM465.623 42.2843C465.464 42.0461 465.206 41.9859 464.94 41.9859C464.464 41.9859 464.143 42.3922 464.143 42.9085C464.143 43.4331 464.468 43.8133 464.952 43.8133C465.206 43.8133 465.46 43.7444 465.622 43.5277V44.4997C465.365 44.589 465.178 44.6554 464.936 44.6554C464.52 44.6554 464.123 44.4777 463.813 44.1631C463.484 43.8307 463.333 43.3978 463.333 42.9035C463.333 42.4486 463.488 42.0129 463.774 41.6841C464.068 41.3471 464.493 41.1434 464.913 41.1434C465.162 41.1434 465.392 41.2048 465.623 41.3119V42.2843ZM467.257 44.5686H466.482V41.9647H465.907V41.2305H467.831V41.9647H467.257V44.5686ZM468.922 44.5686H468.147V41.2297H468.922V44.5686ZM472.924 41.2297H473.644L474.97 43.2708H474.978V41.2297H475.699V44.5686H474.978L473.651 42.5225H473.644V44.5686H472.924V41.2297ZM454.637 43.2683C454.507 43.2368 454.528 43.2426 454.416 43.2181C454.303 43.1936 454.055 43.1015 454.055 43.1015C453.884 43.0271 453.739 42.9045 453.637 42.7485C453.534 42.5926 453.48 42.4101 453.48 42.2237C453.48 41.6294 453.962 41.1504 454.553 41.1504C455.144 41.1504 455.624 41.6335 455.624 42.2278H454.839V42.1262C454.839 41.9618 454.716 41.8286 454.553 41.8286C454.495 41.8286 454.438 41.8455 454.39 41.8773C454.341 41.9091 454.303 41.9544 454.28 42.0076C454.257 42.0607 454.251 42.1195 454.261 42.1765C454.271 42.2336 454.297 42.2865 454.337 42.3287C454.337 42.3287 454.413 42.4188 454.589 42.4698C454.726 42.5096 454.839 42.4997 455.05 42.5881C455.232 42.664 455.387 42.7918 455.496 42.9555C455.606 43.1192 455.664 43.3114 455.665 43.5082C455.665 44.1274 455.169 44.6292 454.553 44.6292C453.936 44.6292 453.436 44.1299 453.436 43.5115H454.212C454.205 43.5389 454.211 43.5709 454.211 43.5999C454.211 43.664 454.229 43.7267 454.263 43.781C454.297 43.8353 454.345 43.879 454.403 43.9071C454.46 43.9353 454.525 43.9466 454.588 43.94C454.652 43.9334 454.713 43.909 454.763 43.8697C454.814 43.8304 454.852 43.7776 454.874 43.7175C454.896 43.6574 454.901 43.5923 454.888 43.5296C454.874 43.4669 454.844 43.4092 454.8 43.363C454.755 43.3168 454.699 43.284 454.637 43.2683ZM463.054 43.4281C463.054 44.11 462.503 44.6637 461.824 44.6637C461.144 44.6637 460.593 44.11 460.593 43.4281V41.2376H461.432V43.4277C461.432 43.6427 461.61 43.817 461.824 43.817C462.038 43.817 462.205 43.6427 462.205 43.4277V41.2376H463.054V43.4281ZM447.477 42.9093C447.477 42.4067 447.883 42 448.383 42C448.883 42 449.289 42.4067 449.289 42.9093C449.289 43.4111 448.883 43.8178 448.383 43.8178C447.883 43.8178 447.477 43.4111 447.477 42.9093ZM448.383 44.6811C449.358 44.6811 450.148 43.8876 450.148 42.9089C450.148 41.9298 449.358 41.1367 448.383 41.1367C447.409 41.1367 446.619 41.9294 446.619 42.9089C446.619 43.8876 447.409 44.6811 448.383 44.6811ZM470.009 42.9093C470.009 42.4067 470.414 42 470.914 42C471.415 42 471.821 42.4067 471.821 42.9093C471.821 43.0285 471.798 43.1465 471.752 43.2567C471.707 43.3669 471.64 43.467 471.556 43.5514C471.472 43.6357 471.372 43.7027 471.262 43.7484C471.152 43.7941 471.034 43.8177 470.914 43.8178C470.674 43.8174 470.443 43.7214 470.273 43.5511C470.104 43.3807 470.008 43.1499 470.009 42.9093ZM470.914 44.6811C471.89 44.6811 472.679 43.8876 472.679 42.9089C472.68 42.6767 472.634 42.4466 472.546 42.2318C472.458 42.017 472.328 41.8218 472.164 41.6572C472 41.4926 471.805 41.362 471.591 41.2727C471.376 41.1833 471.147 41.1372 470.914 41.1367C469.94 41.1367 469.15 41.9294 469.15 42.9089C469.15 43.8876 469.94 44.6811 470.914 44.6811Z" fill="white"/>
<path fill-rule="evenodd" clip-rule="evenodd" d="M448.837 37.9876C448.837 37.6404 448.974 37.3071 449.219 37.061C449.464 36.8149 449.796 36.6762 450.144 36.6753C450.491 36.6762 450.824 36.8149 451.069 37.061C451.314 37.3071 451.451 37.6404 451.45 37.9876C451.451 38.3349 451.314 38.6682 451.069 38.9142C450.824 39.1603 450.491 39.2991 450.144 39.2999C449.796 39.2991 449.464 39.1603 449.219 38.9142C448.974 38.6682 448.837 38.3349 448.837 37.9876ZM450.144 40.5442C451.55 40.5442 452.69 39.4 452.69 37.9876C452.69 36.5757 451.55 35.4306 450.144 35.4306C448.738 35.4306 447.597 36.5753 447.597 37.9876C447.597 39.4 448.738 40.5442 450.144 40.5442ZM465.126 37.7129C465.135 37.8029 465.14 37.8946 465.14 37.9876C465.14 39.4 464 40.5442 462.594 40.5442C461.187 40.5442 460.048 39.4 460.048 37.9876C460.048 36.5757 461.188 35.4306 462.594 35.4306C463.128 35.4311 463.649 35.5997 464.083 35.9127C464.516 36.2256 464.84 36.6669 465.009 37.1741L463.623 37.1791C463.501 37.0222 463.345 36.8952 463.167 36.8079C462.988 36.7206 462.792 36.6752 462.594 36.6753C462.247 36.6762 461.914 36.8149 461.669 37.061C461.424 37.3071 461.287 37.6404 461.287 37.9876C461.287 38.3349 461.424 38.6682 461.669 38.9142C461.914 39.1603 462.247 39.2991 462.594 39.2999C462.8 39.2986 463.003 39.2486 463.186 39.1539C463.369 39.0593 463.527 38.9228 463.648 38.7554H462.295V37.7029L465.126 37.7129ZM456.508 38.7156C456.508 39.7191 455.698 40.5322 454.698 40.5322C453.699 40.5322 452.889 39.7191 452.889 38.7156V35.4953H454.122V38.7156C454.122 39.0318 454.384 39.2875 454.698 39.2875C455.013 39.2875 455.259 39.0314 455.259 38.7156V35.4953H456.508V38.7156ZM468.958 38.7156C468.958 39.7191 468.147 40.5322 467.149 40.5322C466.149 40.5322 465.34 39.7191 465.34 38.7156V35.4953H466.573V38.7156C466.573 39.0318 466.835 39.2875 467.149 39.2875C467.464 39.2875 467.71 39.0314 467.71 38.7156V35.4953H468.959V38.7156H468.958ZM472.101 35.4953V36.6396H470.64V37.4161H472.101V38.5595H470.639V39.329H472.097V40.4803H469.417V35.4958L472.101 35.4953ZM474.195 38.5363C474.004 38.4902 474.035 38.4985 473.87 38.4628C473.705 38.4271 473.34 38.2906 473.34 38.2906C473.089 38.1814 472.875 38.0011 472.724 37.7717C472.574 37.5424 472.494 37.2741 472.494 36.9998C472.494 36.5813 472.661 36.1799 472.956 35.884C473.252 35.5881 473.654 35.4219 474.072 35.4219C474.942 35.4219 475.647 36.1324 475.647 37.0056H474.493V36.8571C474.493 36.6155 474.312 36.4196 474.072 36.4196C473.987 36.4196 473.904 36.4446 473.833 36.4914C473.761 36.5382 473.705 36.6047 473.672 36.6829C473.638 36.7611 473.627 36.8475 473.642 36.9315C473.657 37.0154 473.695 37.0933 473.754 37.1555C473.754 37.1555 473.866 37.2879 474.126 37.363C474.326 37.4211 474.493 37.4066 474.804 37.5373V37.5365C475.071 37.6482 475.299 37.8363 475.46 38.0771C475.621 38.3179 475.707 38.6008 475.708 38.8903C475.708 39.8009 474.978 40.5384 474.072 40.5384C473.857 40.5385 473.643 40.4961 473.443 40.4135C473.244 40.3309 473.063 40.2097 472.91 40.057C472.758 39.9043 472.637 39.7231 472.554 39.5236C472.472 39.3241 472.43 39.1103 472.43 38.8945H473.571C473.561 38.9347 473.57 38.9812 473.57 39.0248C473.57 39.3033 473.794 39.5295 474.072 39.5295C474.35 39.5295 474.575 39.3037 474.575 39.0248C474.575 38.9126 474.538 38.8036 474.469 38.715C474.401 38.6265 474.304 38.5636 474.195 38.5363ZM444.293 35.4953V40.4803L446.131 40.4844C446.32 40.4841 446.508 40.4464 446.683 40.3735C446.858 40.3006 447.017 40.1939 447.151 40.0596C447.284 39.9253 447.39 39.766 447.463 39.5907C447.535 39.4154 447.572 39.2276 447.571 39.0381C447.572 38.7786 447.503 38.5237 447.371 38.3003C447.239 38.077 447.049 37.8935 446.821 37.7693C447.042 37.6207 447.209 37.4054 447.297 37.1549C447.386 36.9045 447.393 36.6322 447.315 36.3779C447.238 36.1236 447.081 35.9008 446.868 35.7422C446.655 35.5836 446.396 35.4975 446.131 35.4966L444.293 35.4953ZM445.528 39.3327V38.3836H445.995C446.117 38.3887 446.232 38.4403 446.317 38.5285C446.402 38.6167 446.449 38.7341 446.449 38.8563C446.449 38.9784 446.402 39.0959 446.317 39.184C446.232 39.2722 446.117 39.3243 445.995 39.3294L445.528 39.3327ZM445.995 36.6305C446.198 36.6305 446.364 36.7923 446.364 36.9965C446.364 37.0947 446.325 37.1889 446.256 37.2587C446.187 37.3284 446.093 37.3678 445.995 37.3684L445.528 37.37V36.6342L445.995 36.6305Z" fill="white"/>
<path fill-rule="evenodd" clip-rule="evenodd" d="M459.132 40.4848V38.6611L460.569 35.4961H459.277L458.512 37.1732L457.74 35.4961H456.447L457.892 38.6611V40.4848H459.132Z" fill="white"/>
<g clip-path="url(#clip2_3078_806)">
<path fill-rule="evenodd" clip-rule="evenodd" d="M603.863 51.9811C613.875 51.9811 620.207 47.6786 620.207 36.3015C620.207 24.4904 613.92 20.8016 603.76 20.8016H596.532L596.439 18.9637C601.371 18.9637 603.555 18.7852 606.484 18.7852C618.455 18.7852 625.545 25.5829 625.545 36.3015C625.545 42.5046 622.927 47.6195 618.404 50.5925C616.814 51.6382 614.848 52.8563 612.347 52.8213L603.709 52.8225L603.863 51.9811ZM643.313 38.982C643.903 38.982 644.13 38.7223 644.13 37.9443C644.13 35.0889 640.636 29.7881 635.828 29.7881C629.907 29.7881 625.951 34.8224 625.951 42.4012C625.951 49.0962 629.975 53.7759 635.237 53.7759C638.93 53.7759 642.133 51.5305 643.908 47.6195L643.024 46.8403C641.66 49.0512 639.434 50.2078 636.916 50.2078C631.133 50.2078 629.474 44.9396 630.193 38.982H643.313ZM637.87 37.6322H630.374C631.191 34.2075 632.561 31.5226 635.192 31.5226C637.778 31.5226 639.412 33.9988 639.412 36.0756C639.412 37.1133 638.912 37.6322 637.87 37.6322Z" fill="white"/>
<path fill-rule="evenodd" clip-rule="evenodd" d="M650.206 48.2656V15.167H649.847C647.96 16.2028 645.981 17.0372 643.938 17.658V18.2809C646.147 19.2675 646.301 20.0462 646.301 21.966V47.4347C646.301 50.3935 646.147 51.1721 643.476 51.2755V53.0919H652.98V51.2755C650.36 51.2761 650.206 50.6015 650.206 48.2656ZM655.036 33.5992V45.1518C655.036 50.2888 655.395 53.5018 660.276 53.5018C662.784 53.5018 664.254 52.0917 665.949 49.4961L665.486 48.9249C664.404 49.9429 663.212 50.5153 662.146 50.5744C660.369 50.6705 658.941 49.336 658.941 46.2406V33.5992H666.163L666.493 30.7986H658.94V26.2659H658.529C656.577 28.4978 654.47 30.774 652.157 32.4869V33.5992H655.036Z" fill="white"/>
<path fill-rule="evenodd" clip-rule="evenodd" d="M678.001 50.0308C678.207 52.315 679.543 53.5688 681.545 53.5688C683.858 53.5688 685.296 52.1586 685.604 49.4596H684.628C684.525 50.6014 684.012 51.2243 683.292 51.2243C682.624 51.2243 682.265 50.6531 682.265 49.8227V37.5518C682.265 32.9324 681.682 29.9736 677.076 29.9736C671.99 29.9736 666.286 34.1259 666.286 36.7732C666.286 37.9667 667.057 38.6942 668.239 38.6942C670.19 38.6942 670.756 37.4109 670.756 34.5561C670.756 33.2789 672.201 32.5305 673.828 32.5274C675.92 32.5225 678.309 33.7486 678.309 36.6624V39.5984C670.089 42.6089 666.286 44.8931 666.286 49.0453C666.286 51.7961 668.239 53.6728 671.116 53.6728C673.223 53.6722 675.484 52.4701 678.001 50.0308ZM678.156 48.7339C676.511 50.0308 675.278 50.81 673.738 50.81C671.527 50.81 669.832 49.3051 669.832 47.1773C669.832 44.685 672.504 43.0767 678.156 40.8972V48.7339ZM584.509 58.0448H585.884C585.908 57.8897 585.913 57.7007 585.899 57.4785C585.883 57.2516 585.815 57.0323 585.7 56.8402C585.581 56.6371 585.393 56.4641 585.134 56.3183C584.876 56.173 584.512 56.1004 584.042 56.1004C583.741 56.1004 583.446 56.1496 583.156 56.2481C582.865 56.3478 582.598 56.5017 582.353 56.7097C582.108 56.9165 581.892 57.1837 581.704 57.5068C581.517 57.8312 581.374 58.2171 581.279 58.6683C581.122 59.4026 581.196 59.9775 581.499 60.3936C581.802 60.8097 582.312 61.027 583.028 61.0473C583.333 61.0614 583.639 61.0195 583.93 60.9235C584.214 60.8296 584.483 60.6901 584.726 60.5099C584.963 60.3354 585.173 60.1237 585.349 59.8821C585.523 59.6427 585.648 59.3878 585.724 59.1176H584.281C584.231 59.2547 584.161 59.3827 584.074 59.4974C584.004 59.589 583.921 59.6689 583.829 59.7344C583.75 59.7892 583.663 59.8294 583.571 59.8532C583.484 59.8747 583.404 59.8858 583.331 59.8858C583.139 59.8858 582.996 59.8218 582.9 59.6937C582.8 59.554 582.74 59.3868 582.726 59.2118C582.707 59.0003 582.722 58.7868 582.772 58.5809C582.822 58.3538 582.9 58.1433 583.002 57.95C583.096 57.7677 583.22 57.6046 583.367 57.4681C583.509 57.3406 583.664 57.276 583.833 57.276C583.869 57.276 583.921 57.2772 583.989 57.2797C584.058 57.2822 584.126 57.3049 584.197 57.348C584.268 57.3923 584.332 57.4668 584.392 57.5739C584.451 57.6792 584.49 57.8367 584.509 58.0448ZM598.532 56.1004C598.008 56.1195 597.544 56.2543 597.142 56.5066C596.74 56.7577 596.411 57.0692 596.156 57.4422C595.902 57.8152 595.729 58.214 595.637 58.6418C595.546 59.0696 595.55 59.4666 595.65 59.8322C595.75 60.1979 595.952 60.5007 596.256 60.7426C596.56 60.9845 596.979 61.1057 597.513 61.1057C597.91 61.1057 598.272 61.035 598.6 60.8952C598.916 60.7622 599.209 60.5733 599.465 60.3363C599.71 60.108 599.918 59.8383 600.079 59.538C600.241 59.2389 600.356 58.9299 600.424 58.6098C600.476 58.3008 600.48 57.9968 600.435 57.6964C600.393 57.4077 600.292 57.1325 600.137 56.8907C599.985 56.6537 599.776 56.4641 599.511 56.3183C599.245 56.1724 598.919 56.1004 598.532 56.1004ZM598.317 57.3326C598.413 57.3326 598.506 57.3554 598.597 57.3985C598.687 57.4416 598.761 57.513 598.818 57.6127C598.874 57.7112 598.911 57.8386 598.927 57.9925C598.945 58.1476 598.93 58.3341 598.884 58.5514C598.79 58.9915 598.648 59.3331 598.457 59.5743C598.266 59.8156 598.035 59.9363 597.761 59.9363C597.501 59.9363 597.317 59.8255 597.21 59.6033C597.102 59.3811 597.095 59.0493 597.189 58.6092C597.28 58.179 597.431 57.8589 597.64 57.6484C597.85 57.4385 598.075 57.3326 598.317 57.3326ZM610.943 56.2592L609.941 60.9599H611.343L611.714 59.2192L611.837 58.4498L612.841 60.9599H614.242L615.244 56.2592H613.787L613.428 57.9426L613.321 58.7046L612.304 56.2592H610.943ZM625.179 56.2592L624.909 57.529H626.194L625.463 60.9599H626.954L627.685 57.529H628.998L629.268 56.2592H625.179ZM640.42 57.4207H641.22C641.38 57.4207 641.489 57.4637 641.548 57.5505C641.576 57.5912 641.596 57.638 641.606 57.6877C641.615 57.7374 641.615 57.7887 641.603 57.838C641.576 57.95 641.516 58.0502 641.432 58.1242C641.341 58.2122 641.22 58.2592 641.097 58.2553H640.242L640.42 57.4207ZM639.211 56.2592L638.208 60.9599H639.706L640.045 59.3718C640.214 59.3718 640.379 59.3669 640.54 59.3577C640.702 59.3478 640.836 59.3718 640.942 59.4297C641.034 59.4679 641.089 59.5306 641.104 59.615C641.12 59.6993 641.12 59.8052 641.102 59.9301C641.08 60.0799 641.053 60.2288 641.02 60.3764C640.981 60.5685 640.958 60.764 640.951 60.9605H642.496L642.529 60.8078C642.443 60.7838 642.4 60.7309 642.402 60.649C642.403 60.5659 642.42 60.4484 642.454 60.2933C642.494 60.1043 642.529 59.935 642.559 59.7861C642.588 59.6359 642.596 59.4986 642.581 59.3761C642.567 59.2543 642.522 59.1389 642.451 59.0419C642.378 58.9434 642.26 58.8499 642.096 58.7631C642.231 58.7489 642.372 58.6763 642.516 58.5452C642.66 58.4141 642.782 58.2565 642.883 58.0706C642.985 57.8841 643.052 57.6859 643.086 57.4754C643.119 57.2649 643.093 57.0692 643.006 56.8889C642.92 56.7073 642.758 56.5571 642.524 56.4383C642.289 56.3207 641.955 56.2604 641.522 56.2604H639.211V56.2592ZM655.758 56.1004C655.235 56.1195 654.771 56.2543 654.369 56.5066C653.982 56.7417 653.646 57.0605 653.383 57.4422C653.134 57.8001 652.958 58.2084 652.864 58.6418C652.772 59.0696 652.777 59.4666 652.876 59.8322C652.977 60.1979 653.178 60.5007 653.482 60.7426C653.787 60.9845 654.206 61.1057 654.738 61.1057C655.135 61.1057 655.498 61.035 655.826 60.8952C656.143 60.7624 656.435 60.5734 656.691 60.3363C656.936 60.1077 657.143 59.838 657.306 59.538C657.468 59.2389 657.583 58.9299 657.65 58.6098C657.703 58.3008 657.706 57.9968 657.661 57.6964C657.62 57.4077 657.518 57.1323 657.364 56.8907C657.212 56.6537 657.002 56.4641 656.737 56.3183C656.472 56.1724 656.146 56.1004 655.758 56.1004ZM655.544 57.3326C655.639 57.3326 655.732 57.3554 655.824 57.3985C655.914 57.4416 655.988 57.513 656.045 57.6127C656.1 57.7112 656.138 57.8386 656.154 57.9925C656.171 58.1476 656.157 58.3341 656.11 58.5514C656.017 58.9915 655.875 59.3331 655.684 59.5743C655.494 59.8156 655.261 59.9363 654.988 59.9363C654.729 59.9363 654.544 59.8255 654.438 59.6033C654.33 59.3811 654.323 59.0493 654.416 58.6092C654.508 58.179 654.659 57.8589 654.867 57.6484C655.077 57.4385 655.301 57.3326 655.544 57.3326ZM668.17 56.2592L667.167 60.9599H670.628L670.866 59.8433H668.862L669.626 56.2592H668.17ZM683.748 57.6312H685.151C685.179 57.3259 685.162 57.0772 685.101 56.8833C685.039 56.6894 684.94 56.538 684.801 56.4266C684.663 56.3158 684.487 56.2364 684.274 56.1872C684.033 56.1356 683.787 56.1066 683.541 56.1004C682.951 56.1102 682.476 56.2364 682.121 56.4777C681.764 56.7196 681.521 57.0187 681.395 57.377C681.274 57.734 681.248 58.0189 681.319 58.2294C681.391 58.4387 681.521 58.608 681.71 58.7366C681.899 58.864 682.126 58.9637 682.389 59.0333C682.652 59.1041 682.915 59.1749 683.178 59.2475C683.296 59.2906 683.371 59.3558 683.404 59.4395C683.42 59.4793 683.427 59.5224 683.426 59.5656C683.424 59.6088 683.413 59.6511 683.394 59.6894C683.349 59.781 683.279 59.8567 683.194 59.9073C683.091 59.9729 682.973 60.0033 682.854 59.9941C682.713 59.9941 682.578 59.9603 682.453 59.8895C682.325 59.8199 682.261 59.6851 682.258 59.4869H680.857C680.795 59.7781 680.799 60.0255 680.869 60.2311C680.939 60.4367 681.056 60.6029 681.22 60.7309C681.384 60.8589 681.585 60.9531 681.823 61.0134C682.061 61.075 682.312 61.1045 682.576 61.1045C682.831 61.1045 683.088 61.0663 683.345 60.9913C683.602 60.9162 683.84 60.8084 684.054 60.6693C684.268 60.5284 684.453 60.353 684.607 60.1431C684.761 59.9332 684.862 59.6944 684.909 59.4291C684.942 59.2112 684.934 59.0241 684.885 58.8677C684.836 58.7095 684.747 58.5689 684.627 58.4615C684.487 58.3374 684.329 58.239 684.159 58.1704C683.949 58.0834 683.733 58.0118 683.514 57.9561C683.402 57.9272 683.275 57.8971 683.133 57.8663C682.992 57.8355 682.88 57.7943 682.8 57.7463C682.743 57.7124 682.71 57.6706 682.7 57.6201C682.69 57.5684 682.702 57.5167 682.733 57.4637C682.765 57.4108 682.815 57.3628 682.883 57.3222C682.951 57.2816 683.035 57.2563 683.133 57.2465C683.322 57.2323 683.477 57.2514 683.599 57.3043C683.72 57.3579 683.77 57.4662 683.748 57.6312Z" fill="white"/>
<path fill-rule="evenodd" clip-rule="evenodd" d="M612.604 52.8945H580.321L596.394 18.7852L612.604 52.8945Z" fill="white"/>
</g>
<path d="M842.049 70.2702H781.926V10.1477H842.049V70.2702ZM842.663 9.53418H781.313V70.8837H842.663V9.53418Z" fill="white"/>
<path d="M796.024 53.1162L793.276 60.4536H795.73L796.049 59.4843H798.589L798.908 60.4536H801.362L798.626 53.1162H796.024ZM796.613 57.7297L797.129 56.1714C797.202 55.9015 797.276 55.607 797.325 55.2266C797.374 55.607 797.448 55.9015 797.534 56.1714L798.049 57.7297H796.613Z" fill="white"/>
<path d="M804.307 53.1162H801.877V60.4536H807.436V58.3309H804.307V53.1162Z" fill="white"/>
<path d="M811.276 53.1162H808.11V60.4536H811.276C813.902 60.4536 815.08 58.9322 815.08 56.7849C815.092 54.6377 813.914 53.1162 811.276 53.1162ZM811.215 58.4168H810.528V55.1407H811.215C812.074 55.1407 812.601 55.5825 812.601 56.7727C812.601 57.9751 812.074 58.4168 811.215 58.4168Z" fill="white"/>
<path d="M817.681 53.1162L814.945 60.4536H817.399L817.718 59.4843H820.258L820.577 60.4536H823.031L820.295 53.1162H817.681ZM818.27 57.7297L818.785 56.1714C818.859 55.9015 818.933 55.607 818.982 55.2266C819.031 55.607 819.104 55.9015 819.19 56.1714L819.706 57.7297H818.27Z" fill="white"/>
<path d="M828.81 57.8892C829.546 57.5211 830.074 56.8463 830.074 55.7052C830.074 53.7052 828.515 53.1162 826.945 53.1162H823.534V60.4536H825.951V58.2819H826.515L828.025 60.4536H830.687L828.81 57.8892ZM826.896 56.4659H825.963V55.0917H826.896C827.362 55.0917 827.644 55.3739 827.644 55.7788C827.644 56.1837 827.374 56.4659 826.896 56.4659Z" fill="white"/>
<path d="M830.503 19.3496H823.067V32.9815H830.503V19.3496Z" fill="white"/>
<path d="M825.779 43.6321C825.779 44.8345 824.748 44.8223 824.049 44.8223H820.601V50.8591H830.491V39.1658C830.491 39.1658 829.104 36.3315 825.73 34.0615L821.325 38.4174C821.337 38.3928 825.779 40.6996 825.779 43.6321Z" fill="white"/>
<path d="M803.509 29.252C803.509 25.3011 806.049 22.4913 806.049 22.4913L811.117 25.3256C808.699 28.3686 809.215 31.5219 812.025 31.5219C814.834 31.5219 814.749 28.9575 814.749 28.6508V19.3379H820.761V29.0925C820.761 33.3011 817.362 37.6937 812.098 37.6937C807.362 37.706 803.509 33.8655 803.509 29.252Z" fill="white"/>
<path d="M803.705 35.1045H801.117V38.0002C801.117 44.6014 797.485 45.1781 795.386 45.1536H793.436V50.8714H803.129C806.479 48.491 808.258 44.4787 808.503 38.7609C806.564 38.037 804.908 36.7487 803.705 35.1045Z" fill="white"/>
<path d="M812.098 39.387C811.681 39.387 811.276 39.3624 810.871 39.3134V50.8471H818.294V37.3379C816.564 38.6262 814.417 39.387 812.098 39.387Z" fill="white"/>
<g clip-path="url(#clip3_3078_806)">
<path fill-rule="evenodd" clip-rule="evenodd" d="M930.21 58.8749L929.368 55.97H929.341L928.434 58.8749H930.209H930.21ZM927.934 52.8142H930.761L934.18 62.2422H931.181L930.786 60.8959H927.802L927.382 62.2422H924.476L927.934 52.8142ZM936.796 59.0732C936.796 59.311 936.835 59.5224 936.901 59.6937C937.112 60.2615 937.743 60.3815 938.282 60.3815C938.755 60.3815 939.478 60.222 939.478 59.5224C939.478 59.0395 939.071 58.9078 937.454 58.4395C935.968 58.0224 934.271 57.6127 934.271 55.7103C934.271 53.5342 936.125 52.5932 938.059 52.5932C940.096 52.5932 941.897 53.3747 941.977 55.6722H939.242C939.295 55.3159 939.136 55.0795 938.899 54.9207C938.663 54.7488 938.335 54.6829 938.045 54.6829C937.65 54.6829 937.006 54.7898 937.006 55.3173C937.058 55.9905 938.397 56.1368 939.728 56.5071C941.053 56.8773 942.37 57.4978 942.37 59.2276C942.37 61.6839 940.116 62.4763 938.031 62.4763C936.963 62.4763 933.926 62.0929 933.897 59.0827H936.79M945.129 55.2339H942.502V52.8171H950.655V55.2339H948.025V62.2437H945.132V55.2325M954.284 56.9359H955.796C956.335 56.9359 957.071 56.8429 957.071 55.9978C957.071 55.4037 956.749 55.0612 955.644 55.0612H954.291V56.9359H954.284ZM951.391 52.8164H956.901C958.544 52.8164 959.964 53.7266 959.964 55.509C959.964 56.4866 959.517 57.5161 958.557 57.8725C959.345 58.1768 959.833 59.0483 959.937 60.2234C959.977 60.6844 959.99 61.8039 960.254 62.2429H957.36C957.215 61.7673 957.163 61.2771 957.123 60.7868C957.045 59.8883 956.966 58.9517 955.822 58.9517H954.284V62.2437H951.391V52.8142V52.8164ZM965.289 60.1188C966.025 60.1188 967.156 59.6285 967.156 57.53C967.156 55.43 966.025 54.942 965.289 54.942C964.553 54.942 963.422 55.4322 963.422 57.5322C963.422 59.6322 964.553 60.1203 965.289 60.1203V60.1188ZM965.289 52.5917C968.143 52.5917 970.049 54.6478 970.049 57.5307C970.049 60.4063 968.142 62.4639 965.289 62.4639C962.435 62.4639 960.529 60.4034 960.529 57.5249C960.529 54.6464 962.435 52.5873 965.289 52.5873V52.5917ZM970.955 52.8112H973.914L976.65 57.8556H976.675V52.812H979.412V62.2437H976.597L973.717 57.0925H973.691V62.2422H970.955V52.8142M925.029 49.8559L952.256 17.6462L978.861 49.8559H968.475L968.124 37.0291L952.066 31.3291L935.727 37.3144L935.479 49.8559M922.027 10.1133H981.886V69.9999H922.027V10.1133Z" fill="white"/>
</g>
<g clip-path="url(#clip4_3078_806)">
<path d="M1141.86 34.4055C1140.51 32.5842 1137.99 30.9766 1133.87 30.9766C1129.76 30.9766 1126.67 32.5842 1124.61 34.4055C1121.59 37.0312 1120.34 40.1929 1119.36 45.2295C1118.37 50.3177 1118.4 53.4803 1120.41 56.105C1121.76 57.9263 1124.23 59.534 1128.34 59.534C1132.45 59.534 1135.59 57.9263 1137.66 56.105C1140.68 53.4803 1141.93 50.3177 1142.92 45.2295C1143.89 40.1929 1143.87 37.0312 1141.86 34.4055ZM1135.97 45.2284C1135.41 48.1204 1134.77 50.5851 1133.05 52.0327C1132.09 52.836 1130.94 53.2634 1129.55 53.2634C1128.16 53.2634 1127.23 52.836 1126.59 52.0327C1125.42 50.5851 1125.74 48.1204 1126.3 45.2284C1126.86 42.3342 1127.49 39.9244 1129.21 38.4767C1130.17 37.6735 1131.27 37.245 1132.66 37.245C1134.05 37.245 1135.03 37.6735 1135.68 38.4767C1136.84 39.9244 1136.53 42.3342 1135.97 45.2284ZM1111.31 50.8009L1117.07 21.0654H1110.13L1104.28 51.2305C1103.51 55.1943 1105.14 59.2139 1110.86 59.2139H1114.81L1115.95 53.3203H1113.28C1111.52 53.3193 1110.99 52.4612 1111.31 50.8009ZM1084.53 31.2977L1077.57 48.5489L1075.2 31.2977H1069.77L1060.77 48.5489L1059.62 31.2977H1052.46L1055.39 59.2129H1061.46L1070.68 41.6931L1073.1 59.2129H1079.17L1089.17 37.1859L1091.33 37.1848C1093.09 37.1773 1093.63 38.0321 1093.31 39.6935L1089.57 59.23H1096.51L1100.34 39.2338C1101.09 35.2657 1099.45 31.2547 1093.73 31.2805L1084.53 31.2977Z" fill="white"/>
<path d="M1098.47 28.9174C1100.8 28.9174 1102.68 27.0252 1102.68 24.6916C1102.68 22.3591 1100.8 20.4668 1098.47 20.4668C1096.14 20.4668 1094.26 22.358 1094.26 24.6916C1094.26 27.0252 1096.14 28.9174 1098.47 28.9174Z" fill="white"/>
</g>
<defs>
<clipPath id="clip0_3078_806">
<rect width="98" height="20" fill="white" transform="translate(0 30)"/>
</clipPath>
<clipPath id="clip1_3078_806">
<rect width="60" height="60" fill="white" transform="translate(168 10)"/>
</clipPath>
<clipPath id="clip2_3078_806">
<rect width="132" height="60" fill="white" transform="translate(570 10)"/>
</clipPath>
<clipPath id="clip3_3078_806">
<rect width="60" height="60" fill="white" transform="translate(922 10)"/>
</clipPath>
<clipPath id="clip4_3078_806">
<rect width="92" height="40" fill="white" transform="translate(1052 20)"/>
</clipPath>
</defs>
</svg>
