<svg width="85" height="20" viewBox="0 0 85 20" fill="none" xmlns="http://www.w3.org/2000/svg">
<mask id="mask0_485_287" style="mask-type:luminance" maskUnits="userSpaceOnUse" x="0" y="0" width="20" height="20">
<path d="M20 0H0V20H20V0Z" fill="white"/>
</mask>
<g mask="url(#mask0_485_287)">
<path d="M14.8151 16.8021C16.7308 15.4436 18.0475 13.2962 18.292 10.8333H16V9.16667H19.9687L19.9775 9.40007H19.9814C19.9932 9.59857 20 9.79857 20 10C20 15.5228 15.5228 20 10 20C5.79707 20 2.20043 17.4068 0.72103 13.7334H2.5485C3.16422 14.9599 4.07427 16.0126 5.18523 16.8008L10 8.5L14.8151 16.8021ZM6.67937 17.6439C7.69687 18.0866 8.81947 18.3333 10 18.3333C11.1804 18.3333 12.3031 18.0871 13.3206 17.6445L10 11.8333L6.67937 17.6439ZM9.99513 4.33333C11.1257 4.3324 12.2309 4.66993 13.1683 5.30207C14.1056 5.9342 14.8327 6.83203 15.2555 7.88053C15.6784 8.92907 15.7779 10.0803 15.5413 11.1859C15.3048 12.2914 14.7426 13.301 13.9277 14.0846L13 12.6667C13.5862 12.1029 13.8165 11.6485 13.9867 10.8532C14.1569 10.0578 14.0855 9.22933 13.7813 8.47493C13.477 7.7206 12.954 7.07423 12.2796 6.61947C11.6052 6.1647 10.8098 5.9222 9.99643 5.92287C9.18307 5.92357 8.38843 6.16783 7.71483 6.6237C7.04127 7.0796 6.51943 7.72663 6.21647 8.48143C5.91353 9.2363 5.84313 10.0646 6.01463 10.8597C6.18617 11.6548 6.41283 12.1038 7 12.6667L6.07877 14.0908C5.26263 13.3085 4.699 12.2998 4.4606 11.1947C4.23717 10.1586 4.30913 9.08193 4.666 8.0869L4.7412 7.88933C5.16233 6.84013 5.8876 5.94063 6.8239 5.30697C7.76013 4.67337 8.86463 4.3343 9.99513 4.33333ZM8.66667 1.77311C4.9672 2.36805 2.08255 5.39793 1.70833 9.16667H4V10.8333H0.03125L0.0250651 10.6667H0.0227865C0.00828037 10.4463 0 10.224 0 10C0 4.92927 3.7742 0.740423 8.66667 0.0885417V1.77311ZM11.3333 0.0885417C14.9769 0.57402 18.0002 3.02102 19.3063 6.33333H17.485C16.3158 3.9511 14.0432 2.2089 11.3333 1.77311V0.0885417ZM10.8333 4H9.16667V0H10.8333V4Z" fill="white"/>
</g>
<path d="M29.4823 15.612C28.7356 15.612 28.0216 15.5 27.3403 15.276C26.6589 15.0427 26.1223 14.744 25.7303 14.38L26.2483 13.288C26.6216 13.6147 27.0976 13.8853 27.6763 14.1C28.2549 14.3147 28.8569 14.422 29.4823 14.422C30.0516 14.422 30.5136 14.3567 30.8683 14.226C31.2229 14.0953 31.4843 13.918 31.6523 13.694C31.8203 13.4607 31.9043 13.1993 31.9043 12.91C31.9043 12.574 31.7923 12.3033 31.5683 12.098C31.3536 11.8927 31.0689 11.7293 30.7143 11.608C30.3689 11.4773 29.9863 11.3653 29.5663 11.272C29.1463 11.1787 28.7216 11.0713 28.2923 10.95C27.8723 10.8193 27.4849 10.656 27.1303 10.46C26.7849 10.264 26.5049 10.0027 26.2903 9.676C26.0756 9.34 25.9683 8.91067 25.9683 8.388C25.9683 7.884 26.0989 7.422 26.3603 7.002C26.6309 6.57267 27.0416 6.232 27.5923 5.98C28.1523 5.71867 28.8616 5.588 29.7203 5.588C30.2896 5.588 30.8543 5.66267 31.4143 5.812C31.9743 5.96133 32.4596 6.176 32.8702 6.456L32.4083 7.576C31.9883 7.296 31.5449 7.09533 31.0783 6.974C30.6116 6.84333 30.1589 6.778 29.7203 6.778C29.1696 6.778 28.7169 6.848 28.3623 6.988C28.0076 7.128 27.7463 7.31467 27.5783 7.548C27.4196 7.78133 27.3403 8.04267 27.3403 8.332C27.3403 8.67733 27.4476 8.95267 27.6623 9.158C27.8863 9.36333 28.1709 9.52667 28.5163 9.648C28.8709 9.76933 29.2583 9.88133 29.6783 9.984C30.0983 10.0773 30.5183 10.1847 30.9383 10.306C31.3676 10.4273 31.7549 10.586 32.1003 10.782C32.4549 10.978 32.7396 11.2393 32.9543 11.566C33.1689 11.8927 33.2763 12.3127 33.2763 12.826C33.2763 13.3207 33.1409 13.7827 32.8702 14.212C32.5996 14.632 32.1796 14.9727 31.6103 15.234C31.0503 15.486 30.3409 15.612 29.4823 15.612ZM37.1308 15.5V6.918H33.7708V5.7H41.8768V6.918H38.5168V15.5H37.1308ZM43.4016 15.5V5.7H47.2236C48.0823 5.7 48.815 5.83533 49.4216 6.106C50.0283 6.37667 50.495 6.76867 50.8216 7.282C51.1483 7.79533 51.3116 8.40667 51.3116 9.116C51.3116 9.82533 51.1483 10.4367 50.8216 10.95C50.495 11.454 50.0283 11.8413 49.4216 12.112C48.815 12.3827 48.0823 12.518 47.2236 12.518H44.1716L44.8016 11.874V15.5H43.4016ZM49.9536 15.5L47.4616 11.944H48.9596L51.4796 15.5H49.9536ZM44.8016 12.014L44.1716 11.328H47.1816C48.0776 11.328 48.7543 11.1367 49.2116 10.754C49.6783 10.362 49.9116 9.816 49.9116 9.116C49.9116 8.416 49.6783 7.87467 49.2116 7.492C48.7543 7.10933 48.0776 6.918 47.1816 6.918H44.1716L44.8016 6.218V12.014ZM52.0895 15.5L56.5275 5.7H57.9135L62.3655 15.5H60.8955L56.9335 6.484H57.4935L53.5315 15.5H52.0895ZM53.9795 13.05L54.3575 11.93H59.8735L60.2795 13.05H53.9795ZM65.2812 15.5V6.918H61.9212V5.7H70.0272V6.918H66.6672V15.5H65.2812ZM69.5758 15.5L74.0138 5.7H75.3998L79.8518 15.5H78.3818L74.4198 6.484H74.9798L71.0178 15.5H69.5758ZM71.4658 13.05L71.8438 11.93H77.3598L77.7658 13.05H71.4658Z" fill="white"/>
</svg>
