<svg width="180" height="80" viewBox="0 0 180 80" fill="none" xmlns="http://www.w3.org/2000/svg">
<g clip-path="url(#clip0_3086_949)">
<path fill-rule="evenodd" clip-rule="evenodd" d="M79.5846 24.375H72.4795L62.9095 38.4627H62.8295V24.375H56.8733V54.3883H62.8295V39.6622H62.9095L72.3581 54.3883H79.7844L69.3023 38.7827L79.5846 24.375ZM96.1782 51.7038H96.2566V54.3779H101.775C101.619 53.6205 101.499 52.9017 101.499 51.8243V39.9301C101.499 35.2217 97.29 33.3036 92.2459 33.3036C85.1009 33.3036 82.8757 37.3363 82.6788 40.4895H88.1567C88.2752 38.6547 89.6669 37.4583 92.0105 37.4583C94.5111 37.4583 96.0183 38.6547 96.0183 41.0892V42.0461L90.7403 42.366C82.7572 42.8437 82.0421 46.4761 82.0421 48.6696C82.0421 53.3392 85.973 54.9359 89.1901 54.9359C91.5708 54.9359 94.2713 54.2187 96.1782 51.7038ZM91.2539 45.8765L96.0183 45.4359V47.3169C96.0183 49.7886 93.1209 50.7857 91.3339 50.7857C89.4285 50.7857 87.7599 50.2291 87.7599 48.3928C87.7599 46.9151 88.6335 46.1175 91.2539 45.8765ZM105.731 54.3883H111.45V24.375H105.731V54.3883ZM125.336 50.5475C122.275 50.5475 120.808 48.1517 120.57 45.7604H135.501V44.1636C135.501 37.5372 131.212 33.3036 125.059 33.3036C118.903 33.3036 114.614 37.5372 114.614 44.1636C114.614 50.7068 118.903 54.9359 125.059 54.9359C129.862 54.9359 133.596 52.744 134.984 48.552L129.423 48.1131C128.632 49.7098 127.083 50.5475 125.336 50.5475ZM125.336 37.6964C128.073 37.6964 129.585 40.0908 129.783 42.0863H120.57C120.888 39.7738 122.358 37.6964 125.336 37.6964Z" fill="white"/>
<path fill-rule="evenodd" clip-rule="evenodd" d="M51.5273 24.375H49.0593V26.0134H46.5735V24.375H44.0877V26.0134H41.6004V24.375H39.1146L39.1072 36.8423H51.5273V24.375Z" fill="white"/>
</g>
<defs>
<clipPath id="clip0_3086_949">
<rect width="101.786" height="50" fill="white" transform="translate(39.1072 15)"/>
</clipPath>
</defs>
</svg>
