<svg width="180" height="80" viewBox="0 0 180 80" fill="none" xmlns="http://www.w3.org/2000/svg">
<path d="M40.1592 42.0453C40.1592 38.8841 42.3387 36.3428 45.3785 36.3428C47.2712 36.3428 48.3609 37.0246 49.336 38.0783L48.1889 39.5039C47.3859 38.6981 46.5256 38.1403 45.3211 38.1403C43.371 38.1403 41.9945 39.8758 41.9945 42.0453V42.1072C41.9945 44.2767 43.4284 46.0122 45.3211 46.0122C46.5829 46.0122 47.3859 45.4544 48.2462 44.5866L49.3933 45.8263C48.3609 47.0039 47.1565 47.7477 45.2638 47.7477C42.3387 47.7477 40.1592 45.2064 40.1592 42.0453Z" fill="white"/>
<path d="M51.1138 36.5283H52.9491V41.1151H57.7669V36.5283H59.5449V47.5614H57.7669V42.9126H52.9491V47.5614H51.1138V36.5283Z" fill="white"/>
<path d="M77.2102 42.2308C78.5867 42.2308 79.3897 41.425 79.3897 40.2473V40.1853C79.3897 38.8837 78.5294 38.2019 77.2102 38.2019H75.0881V42.1688H77.2102V42.2308ZM73.3101 36.5283H77.3249C79.7338 36.5283 81.1677 38.0159 81.1677 40.1853V40.2473C81.1677 42.7267 79.3323 44.0283 77.0955 44.0283H75.0881V47.5614H73.3101V36.5283Z" fill="white"/>
<path d="M82.8882 36.5283H84.7809L87.878 41.7349L90.9752 36.5283H92.8679V47.5614H91.0899V39.6275L87.878 44.8341H87.8207L84.6088 39.6895V47.5614H82.8882V36.5283Z" fill="white"/>
<path d="M106.633 36.5283H108.239L113.687 44.1523V36.5283H115.465V47.5614H113.974L108.353 39.6895V47.5614H106.633V36.5283Z" fill="white"/>
<path d="M125.216 38.3258H122.004V36.5283H130.264V38.3258H127.052V47.5614H125.216V38.3258Z" fill="white"/>
<path d="M149.936 36.5283H151.714V45.7639H157.048V47.5614H149.936V36.5283Z" fill="white"/>
<path d="M166.167 42.0453C166.167 39.8758 164.734 38.0783 162.726 38.0783C160.719 38.0783 159.285 39.8139 159.285 41.9833V42.0453C159.285 44.1527 160.719 45.9502 162.726 45.9502C164.734 45.9502 166.167 44.2147 166.167 42.0453ZM157.392 42.0453C157.392 38.9461 159.572 36.3428 162.726 36.3428C165.823 36.3428 168.003 38.8841 168.003 41.9833V42.0453C168.003 45.1444 165.823 47.7477 162.669 47.7477C159.514 47.7477 157.392 45.1444 157.392 42.0453Z" fill="white"/>
<path d="M64.6491 43.161L66.3698 38.7602L68.1478 43.161H64.6491ZM67.2301 36.4668H65.5668L61.4946 46.5701V47.5618H62.9285L63.9609 44.8965H68.7787L69.8111 47.5618H71.3023V46.5701L67.2301 36.4668Z" fill="white"/>
<path d="M97.9729 43.161L99.6935 38.7602L101.472 43.161H97.9729ZM100.554 36.4668H98.8906L94.8184 46.5701V47.5618H96.2522L97.2846 44.8965H102.102L103.135 47.5618H104.626V46.5701L100.554 36.4668Z" fill="white"/>
<path d="M133.016 43.161L134.737 38.7602L136.515 43.161H133.016ZM135.597 36.4668H133.934L129.862 46.5701V47.5618H131.296L132.328 44.8965H137.146L138.178 47.5618H139.67V46.5701L135.597 36.4668Z" fill="white"/>
<path d="M174.312 41.9834H171.674V38.2644H174.254C175.574 38.2644 176.377 38.8842 176.377 40.0619C176.377 41.2396 175.574 41.9834 174.312 41.9834ZM176.205 43.347C177.294 42.9131 178.212 41.8594 178.212 40.0619C178.212 39.1321 177.925 38.2644 177.352 37.7065C176.721 37.0247 175.688 36.5908 174.427 36.5908H169.896V47.5619H171.674V43.7189H174.312L176.835 47.5619H178.327V46.5702L176.205 43.347Z" fill="white"/>
<path d="M147.872 36.5283H146.438L143.513 41.425L140.702 36.5283H139.154V37.5201L142.652 43.2225V47.5614H144.43V43.1606L147.872 37.5201V36.5283Z" fill="white"/>
<path d="M1.67383 55L11.08 25L33.3336 40.7438L31.6703 48.0578L1.67383 55ZM13.1448 33.9256L2.93563 53.9463L30.4659 47.562L13.1448 33.9256ZM11.2521 27.0455L3.91066 50.4132L12.6286 33.3058L11.2521 27.0455ZM15.2669 34.6074L31.1541 47.0661L32.4733 41.1777L15.2669 34.6074ZM13.3168 33.0579L30.1791 39.4421L11.8256 26.4876L13.3168 33.0579Z" fill="white"/>
</svg>
