<svg width="180" height="80" viewBox="0 0 180 80" fill="none" xmlns="http://www.w3.org/2000/svg">
<path d="M41.6914 59.6105V51.479H43.3924V59.6104L41.6914 59.6105ZM52.0885 59.6105L48.3336 54.4429V59.613H46.6546V51.479H48.2233L51.8458 56.4867V51.479H53.5247V59.6104L52.0885 59.6105ZM59.6424 53.1285V59.6105H57.9414V53.1285H55.5885V51.479H61.9953V53.1285H59.6424ZM64.0541 59.6105V51.479H69.8874V53.0692H65.7355V54.6878H69.3801V56.278H65.7355V58.0177H69.934V59.6079L64.0541 59.6105ZM77.4512 59.6105L75.7845 57.0099H74.4487V59.613H72.7477V51.479H76.2747C78.0982 51.479 79.1913 52.4893 79.1913 54.162V54.1852C79.2421 55.322 78.5637 56.3541 77.5345 56.7058L79.4242 59.6105H77.4512ZM77.4855 54.2548C77.4855 53.4816 76.9781 53.0924 76.1497 53.0924H74.4585V55.4275H76.1742C77.0026 55.4275 77.4781 54.9636 77.4781 54.278L77.4855 54.2548ZM87.4316 59.6105L83.6865 54.4404V59.6105H82.0075V51.479H83.5762L87.1987 56.4867V51.479H88.8776V59.6104L87.4316 59.6105ZM97.358 59.6105L96.6521 57.7857H93.3752L92.6693 59.6105H90.934L94.2477 51.4197H95.8164L99.1301 59.6105H97.358ZM95.01 53.5718L93.983 56.2084H96.0369L95.01 53.5718ZM103.588 53.1311V59.613H101.887V53.1285H99.5345V51.479H105.941V53.1285L103.588 53.1311ZM108.182 59.613V51.479H109.883V59.6104L108.182 59.613ZM116.647 59.7522C114.265 59.7574 112.549 57.8811 112.549 55.5692V55.546C112.549 53.2264 114.284 51.3398 116.669 51.3398C119.054 51.3398 120.767 53.211 120.767 55.5228V55.546C120.77 57.8579 119.037 59.7574 116.65 59.7574L116.647 59.7522ZM118.988 55.546C119.033 54.1818 118.017 53.0377 116.72 52.9908C116.696 52.9899 116.671 52.9894 116.647 52.9893C115.277 52.9893 114.326 54.1285 114.326 55.5228V55.546C114.281 56.9103 115.297 58.0543 116.594 58.1013C116.618 58.1021 116.643 58.1026 116.667 58.1027C118.037 58.1027 118.988 56.9635 118.988 55.5692V55.546ZM128.971 59.6105L125.226 54.4404V59.6105H123.554V51.479H125.123L128.745 56.4867V51.479H130.424V59.6104L128.971 59.6105ZM138.897 59.6105L138.191 57.7857H134.929L134.223 59.6105H132.488L135.802 51.4197H137.37L140.684 59.6105H138.897ZM136.569 53.5718L135.542 56.2084H137.596L136.569 53.5718ZM142.605 59.613V51.479H144.306V57.9842H148.162V59.6104L142.605 59.613Z" fill="white"/>
<path d="M95.0833 30.7525C94.18 30.255 93.181 29.98 92.1617 29.9484C90.1274 29.9484 88.9755 31.4948 88.674 32.0103V48.5876H82.5048V25.3531H88.1568L88.5097 27.7861C88.7548 27.3634 90.2254 24.8531 93.1421 24.8531C93.8028 24.8621 94.458 24.9813 95.0833 25.2062V30.7525H95.0833ZM109.723 25.2062C109.098 24.9813 108.443 24.8622 107.782 24.8531C104.863 24.8531 103.402 27.3634 103.149 27.786L102.797 25.3531H97.1446V48.5901H103.314V32.0103C103.625 31.4819 104.765 29.9484 106.801 29.9484C107.821 29.98 108.82 30.255 109.723 30.7525L109.723 25.2062ZM78.7255 32.0232V48.5901H73.0637L72.7108 46.1674C72.3211 46.5644 70.5049 49.0901 66.7622 49.0901C63.2328 49.0901 60.7966 46.2551 60.7966 42.4381C60.7966 34.2165 70.0171 33.0592 72.5612 32.7886V32.1288C72.5612 30.7835 71.4877 29.3866 68.6397 29.3866C65.6299 29.3866 63.3112 31.1366 62.8946 31.4484V26.6572C65.2994 25.445 67.9362 24.8278 70.6029 24.8531C76.2745 24.8479 78.7255 27.5721 78.7255 32.0232ZM72.5564 37.3299C70.5956 37.3299 67.0147 38.0386 67.0147 41.2912C67.0147 42.9407 68.0882 44.1262 69.4338 44.1262C71.1838 44.1262 72.5563 42.8066 72.5563 39.835L72.5564 37.3299ZM38.701 18.4639L44.2475 30.9793L42.0711 35.8762L32.8186 15L25.7696 18.4562L31.3113 30.9536C30.8774 31.9278 30.1814 33.5128 29.0539 36.036C26.5196 41.7345 24.5588 43.3298 21.0858 43.3298C20.1307 43.3117 19.185 43.128 18.2868 42.786L15 50.1932C16.665 50.9223 18.4467 51.3115 20.25 51.3401C24.3603 51.3401 27.3799 48.5309 30.0049 42.6082L33.2402 35.3144L39.1226 48.5979H47.701L43.9853 40.2216L46.1618 35.3247L52.0441 48.6082H60.6225L45.75 15L38.701 18.4639ZM161.87 25.3557V17.6675L155.701 20.6933V25.3557H153.725V29.3969H155.703V48.5927H161.872V29.3943H165V25.3531L161.87 25.3557ZM112.032 48.5927H118.201V25.3531H112.032V48.5927ZM148.77 17.6649L142.6 20.6907V25.3531H140.622V29.3943H142.6V48.5902H148.77V29.3943H151.899V25.3531H148.77V17.6649ZM139.181 35.0592V38.8814C139.181 44.42 136.608 49.0927 130.287 49.0927C123.966 49.0927 121.392 44.4535 121.392 38.8814V35.0618C121.392 29.5 123.966 24.8505 130.287 24.8505C136.608 24.8505 139.181 29.5232 139.181 35.0618V35.0592ZM132.963 34.1391C132.963 31.3608 132.321 29.3891 130.287 29.3891C128.252 29.3891 127.61 31.3608 127.61 34.1391V39.8092C127.61 42.5876 128.24 44.5592 130.287 44.5592C132.333 44.5592 132.963 42.5876 132.963 39.8092V34.1391Z" fill="white"/>
</svg>
