<svg width="180" height="80" viewBox="0 0 180 80" fill="none" xmlns="http://www.w3.org/2000/svg">
<path d="M58.6554 50.0416H63.4239L58.7927 29.957H53.3612L43.9292 50.0416H48.973L50.6081 46.1278H57.8265L58.6554 50.0416ZM52.4572 41.7008L55.3668 34.7356H55.4124L56.8886 41.7008H52.4572Z" fill="white"/>
<path d="M78.2147 45.3682H64.123L63.4238 50.0418H77.5143L78.2147 45.3682ZM79.8212 34.6294H65.7304L66.4301 29.9572H80.5211L79.8212 34.6294ZM76.9768 42.3357H64.5765L65.2767 37.6633H77.6768L76.9768 42.3357ZM93.7427 44.8922C92.3984 45.5138 90.3915 45.6155 89.4077 45.6155C86.2353 45.6155 84.135 43.4476 84.2414 40.2254C84.3547 36.8228 86.9221 34.3835 90.4087 34.3835C92.0575 34.3835 93.5083 34.9288 94.8098 36.0309L95.7749 31.2221C93.7836 30.0468 92.1125 29.5654 90.0259 29.5654C84.2532 29.5654 79.4896 34.3835 79.2886 40.4366C79.0943 46.3079 82.9039 50.4341 88.5628 50.4341C89.5464 50.4341 91.6752 50.3312 93.0176 49.7103L93.7427 44.8922ZM105.726 29.6137C111.088 29.9955 114.405 34.368 113.807 40.213C113.187 46.2371 108.335 50.7217 102.863 50.3306C97.5003 49.9489 94.1838 45.5765 94.7832 39.7314C95.4006 33.708 100.253 29.2225 105.726 29.6137ZM109.036 40.7014C109.765 37.3056 108.503 34.6605 105.941 34.1374C103.126 33.5585 100.565 35.719 99.793 39.3077C99.0624 42.7038 100.324 45.3483 102.886 45.8739C105.704 46.4491 108.264 44.2898 109.036 40.7014ZM136.071 50.0418L135.703 29.956H131.183L125.396 41.2857L123.06 29.956H118.544L112.315 50.0418H117.298L120.688 38.2824L122.818 50.0418H125.358L131.233 38.2873L131.163 50.0418H136.071Z" fill="white"/>
</svg>
