<svg width="180" height="80" viewBox="0 0 180 80" fill="none" xmlns="http://www.w3.org/2000/svg">
<path d="M120.049 70.2702H59.9265V10.1477H120.049V70.2702ZM120.663 9.53418H59.313V70.8837H120.663V9.53418Z" fill="white"/>
<path d="M74.0243 53.1162L71.2759 60.4536H73.7299L74.0489 59.4843H76.5888L76.9078 60.4536H79.3618L76.6256 53.1162H74.0243ZM74.6133 57.7297L75.1286 56.1714C75.2023 55.9015 75.2759 55.607 75.325 55.2266C75.374 55.607 75.4477 55.9015 75.5335 56.1714L76.0489 57.7297H74.6133Z" fill="white"/>
<path d="M82.3069 53.1162H79.8774V60.4536H85.4357V58.3309H82.3069V53.1162Z" fill="white"/>
<path d="M89.276 53.1162H86.1104V60.4536H89.276C91.9018 60.4536 93.0797 58.9322 93.0797 56.7849C93.0919 54.6377 91.914 53.1162 89.276 53.1162ZM89.2146 58.4168H88.5275V55.1407H89.2146C90.0735 55.1407 90.6011 55.5825 90.6011 56.7727C90.6011 57.9751 90.0735 58.4168 89.2146 58.4168Z" fill="white"/>
<path d="M95.681 53.1162L92.9448 60.4536H95.3988L95.7178 59.4843H98.2577L98.5767 60.4536H101.031L98.2945 53.1162H95.681ZM96.27 57.7297L96.7853 56.1714C96.8589 55.9015 96.9325 55.607 96.9816 55.2266C97.0307 55.607 97.1043 55.9015 97.1902 56.1714L97.7055 57.7297H96.27Z" fill="white"/>
<path d="M106.81 57.8892C107.546 57.5211 108.074 56.8463 108.074 55.7052C108.074 53.7052 106.515 53.1162 104.945 53.1162H101.534V60.4536H103.951V58.2819H104.515L106.025 60.4536H108.687L106.81 57.8892ZM104.896 56.4659H103.963V55.0917H104.896C105.362 55.0917 105.644 55.3739 105.644 55.7788C105.644 56.1837 105.374 56.4659 104.896 56.4659Z" fill="white"/>
<path d="M108.503 19.3496H101.067V32.9815H108.503V19.3496Z" fill="white"/>
<path d="M103.779 43.6321C103.779 44.8345 102.748 44.8223 102.049 44.8223H98.6011V50.8591H108.491V39.1658C108.491 39.1658 107.104 36.3315 103.73 34.0615L99.325 38.4174C99.3373 38.3928 103.779 40.6996 103.779 43.6321Z" fill="white"/>
<path d="M81.5093 29.252C81.5093 25.3011 84.0492 22.4913 84.0492 22.4913L89.1166 25.3256C86.6995 28.3686 87.2148 31.5219 90.0246 31.5219C92.8344 31.5219 92.7485 28.9575 92.7485 28.6508V19.3379H98.7608V29.0925C98.7608 33.3011 95.362 37.6937 90.0982 37.6937C85.362 37.706 81.5093 33.8655 81.5093 29.252Z" fill="white"/>
<path d="M81.7055 35.1045H79.1165V38.0002C79.1165 44.6014 75.4846 45.1781 73.3865 45.1536H71.4355V50.8714H81.1288C84.4785 48.491 86.2576 44.4787 86.503 38.7609C84.5644 38.037 82.908 36.7487 81.7055 35.1045Z" fill="white"/>
<path d="M90.0981 39.387C89.6809 39.387 89.276 39.3624 88.8711 39.3134V50.8471H96.2944V37.3379C94.5644 38.6262 92.4171 39.387 90.0981 39.387Z" fill="white"/>
</svg>
