<svg width="180" height="80" viewBox="0 0 180 80" fill="none" xmlns="http://www.w3.org/2000/svg">
<path d="M174.989 31.6417H175.829V33.7425H176.219V31.6417H177.059V31.2867H174.989V31.6417ZM179.64 31.2867L178.77 32.4406L177.93 31.2867H177.539V33.7425H177.93V31.9376L178.65 32.8844H178.89L179.61 31.9376V33.7425H180V31.2867H179.64ZM139.378 34.1271H133.767V31.2867H148.108V34.1271H142.528V48.6844H139.408V34.1271H139.378ZM167.609 31.2867V48.6844H180V45.9032H170.699V31.2867H167.609ZM157.949 38.802L165.329 31.3163H161.519L153.118 40.0743V31.3163H150.028V48.714H153.118V43.684L155.848 40.9028L161.879 48.714L165.599 48.7436L157.949 38.802ZM128.007 42.1751C130.677 41.7608 132.627 39.453 132.537 36.79C132.537 35.3698 131.967 34.0384 130.947 33.0324C129.567 31.8193 127.767 31.1979 125.907 31.2867H115.827L118.017 34.0679H125.787C128.067 34.0679 129.447 35.0739 129.447 36.938C129.447 38.7133 128.037 39.8376 125.817 39.8376H122.487L129.417 48.6252H133.077L128.007 42.1751Z" fill="white"/>
<path d="M0.0225011 40.0595C-0.127506 35.1775 3.77268 31.1239 8.69292 31.0056C8.84293 31.0056 8.96293 31.0056 9.11294 31.0056C11.6931 30.9168 14.2132 31.8932 16.0133 33.6981L14.0332 35.9468C12.7131 34.5857 10.913 33.8164 8.99294 33.7868C5.72278 33.9052 3.17265 36.5977 3.26266 39.8228C3.26266 39.882 3.26266 39.9116 3.26266 39.9707C3.05265 43.2254 5.57277 46.0067 8.87293 46.1842C8.93293 46.1842 9.02294 46.1842 9.08294 46.1842C11.003 46.1547 12.8331 45.3262 14.1232 43.9356L16.1033 45.918C14.3032 47.9595 11.6931 49.0839 8.96293 48.9951C4.0427 49.0247 0.0525025 45.1191 0.0225011 40.2666C-0.00750036 40.2075 -0.00750036 40.1483 0.0225011 40.0595ZM37.3143 31.3014H40.4045V45.918H49.7049V48.6992H37.3143V31.3014ZM51.895 31.3014H54.9852V45.918H64.2856V48.6992H51.925V31.3014H51.895ZM66.6857 31.3014H69.7759V48.6992H66.6857V31.3014ZM72.296 46.1842L74.1561 43.9947C75.6562 45.415 77.6363 46.2434 79.7364 46.2434C81.6565 46.2434 82.8565 45.3854 82.8565 44.0539C82.8565 42.8112 82.1365 42.1307 78.8663 41.391C75.1461 40.4442 73.046 39.3198 73.046 36.1243C73.2261 33.1951 75.7762 30.9464 78.7463 31.1239C78.8663 31.1239 78.9563 31.1535 79.0763 31.1535C81.4164 31.1239 83.6666 31.8932 85.4666 33.343L83.7866 35.6805C82.4365 34.5857 80.7564 33.9644 79.0163 33.9052C77.2162 33.9052 76.1362 34.8224 76.1362 35.9764C76.1362 37.3078 76.9462 37.8996 80.3064 38.6985C83.6666 39.4973 85.9767 40.9176 85.9767 43.7876C85.9767 47.0423 83.4565 48.9655 79.6764 48.9655C76.9462 48.9951 74.3061 47.9891 72.296 46.1842ZM87.8068 40.0595C88.0768 35.0295 92.427 31.1831 97.5272 31.4198C102.237 31.6565 106.018 35.3846 106.288 40.0595C106.018 45.0895 101.667 48.9359 96.5672 48.6992C91.827 48.4625 88.0768 44.7344 87.8068 40.0595ZM102.927 40.0595C103.047 36.7752 100.437 33.994 97.1072 33.8756C97.0472 33.8756 96.9872 33.8756 96.9272 33.8756C93.627 33.8756 90.9569 36.5385 90.9869 39.7932C90.9869 39.882 90.9869 39.9412 90.9869 40.0299C90.8669 43.3142 93.477 46.0955 96.8072 46.2138C96.8672 46.2138 96.9272 46.2138 96.9872 46.2138C100.287 46.2138 102.957 43.5509 102.927 40.2962C102.927 40.237 102.927 40.1483 102.927 40.0595ZM111.478 31.3014H108.598V48.7288H111.658V36.3314L121.408 48.7288H125.189L111.478 31.3014ZM24.6237 31.1831L16.8833 48.6992H20.0635L26.0338 34.8224L29.0939 41.8052H26.0938L24.9237 44.4977H30.204L32.0041 48.6992H35.2742L27.5038 31.1535H24.6237V31.1831Z" fill="white"/>
</svg>
